AlumniSansPinstripe-Italic.ufo
<glyph name="exclam" format="2">
  <advance width="152"/>
  <unicode hex="0021"/>
  <note>
exclam
</note>
  <outline>
    <contour>
      <point x="63" y="195" type="line"/>
      <point x="72" y="195" type="line"/>
      <point x="99" y="357" type="line"/>
      <point x="137" y="630" type="line"/>
      <point x="121" y="630" type="line"/>
      <point x="83" y="357" type="line"/>
    </contour>
    <contour>
      <point x="41" y="-3" type="curve" smooth="yes"/>
      <point x="53" y="-3"/>
      <point x="59" y="3"/>
      <point x="59" y="16" type="curve" smooth="yes"/>
      <point x="59" y="25"/>
      <point x="55" y="29"/>
      <point x="45" y="29" type="curve" smooth="yes"/>
      <point x="33" y="29"/>
      <point x="27" y="23"/>
      <point x="27" y="9" type="curve" smooth="yes"/>
      <point x="27" y="1"/>
      <point x="32" y="-3"/>
    </contour>
  </outline>
</glyph>
<glyph name="numbersign" format="2">
  <advance width="652"/>
  <unicode hex="0023"/>
  <note>
numbersign
</note>
  <outline>
    <contour>
      <point x="82" y="0" type="line"/>
      <point x="99" y="0" type="line"/>
      <point x="190" y="200" type="line"/>
      <point x="379" y="200" type="line"/>
      <point x="288" y="0" type="line"/>
      <point x="306" y="0" type="line"/>
      <point x="397" y="200" type="line"/>
      <point x="537" y="200" type="line"/>
      <point x="543" y="216" type="line"/>
      <point x="403" y="216" type="line"/>
      <point x="488" y="400" type="line"/>
      <point x="628" y="400" type="line"/>
      <point x="635" y="416" type="line"/>
      <point x="495" y="416" type="line"/>
      <point x="566" y="573" type="line"/>
      <point x="548" y="573" type="line"/>
      <point x="478" y="416" type="line"/>
      <point x="288" y="416" type="line"/>
      <point x="359" y="573" type="line"/>
      <point x="343" y="573" type="line"/>
      <point x="272" y="416" type="line"/>
      <point x="131" y="416" type="line"/>
      <point x="124" y="400" type="line"/>
      <point x="265" y="400" type="line"/>
      <point x="180" y="216" type="line"/>
      <point x="39" y="216" type="line"/>
      <point x="33" y="200" type="line"/>
      <point x="174" y="200" type="line"/>
    </contour>
    <contour>
      <point x="386" y="216" type="line"/>
      <point x="196" y="216" type="line"/>
      <point x="281" y="400" type="line"/>
      <point x="471" y="400" type="line"/>
    </contour>
  </outline>
</glyph>
<glyph name="asterisk" format="2">
  <advance width="469"/>
  <unicode hex="002A"/>
  <note>
asterisk
</note>
  <outline>
    <contour>
      <point x="123" y="264" type="line"/>
      <point x="258" y="421" type="line"/>
      <point x="349" y="264" type="line"/>
      <point x="365" y="274" type="line"/>
      <point x="271" y="431" type="line"/>
      <point x="463" y="487" type="line"/>
      <point x="460" y="502" type="line"/>
      <point x="268" y="442" type="line"/>
      <point x="297" y="630" type="line"/>
      <point x="281" y="630" type="line"/>
      <point x="254" y="442" type="line"/>
      <point x="81" y="503" type="line"/>
      <point x="74" y="488" type="line"/>
      <point x="247" y="429" type="line"/>
      <point x="112" y="273" type="line"/>
    </contour>
  </outline>
</glyph>
<glyph name="plus" format="2">
  <advance width="364"/>
  <unicode hex="002B"/>
  <note>
plus
</note>
  <outline>
    <contour>
      <point x="161" y="160" type="line"/>
      <point x="177" y="160" type="line"/>
      <point x="195" y="284" type="line"/>
      <point x="319" y="284" type="line"/>
      <point x="321" y="300" type="line"/>
      <point x="197" y="300" type="line"/>
      <point x="215" y="424" type="line"/>
      <point x="199" y="424" type="line"/>
      <point x="181" y="300" type="line"/>
      <point x="57" y="300" type="line"/>
      <point x="55" y="284" type="line"/>
      <point x="179" y="284" type="line"/>
    </contour>
  </outline>
</glyph>
<glyph name="comma" format="2">
  <advance width="132"/>
  <unicode hex="002C"/>
  <note>
comma
</note>
  <outline>
    <contour>
      <point x="-6" y="-87" type="curve"/>
      <point x="7" y="-87" type="line"/>
      <point x="27" y="-62"/>
      <point x="51" y="-23"/>
      <point x="55" y="4" type="curve" smooth="yes"/>
      <point x="56" y="17"/>
      <point x="52" y="29"/>
      <point x="37" y="29" type="curve" smooth="yes"/>
      <point x="24" y="29"/>
      <point x="17" y="16"/>
      <point x="17" y="6" type="curve" smooth="yes"/>
      <point x="17" y="-9"/>
      <point x="28" y="-11"/>
      <point x="28" y="-21" type="curve" smooth="yes"/>
      <point x="28" y="-38"/>
      <point x="4" y="-72"/>
    </contour>
  </outline>
</glyph>
<glyph name="period" format="2">
  <advance width="132"/>
  <unicode hex="002E"/>
  <note>
period
</note>
  <outline>
    <contour>
      <point x="33" y="-3" type="curve" smooth="yes"/>
      <point x="44" y="-3"/>
      <point x="49" y="2"/>
      <point x="49" y="13" type="curve" smooth="yes"/>
      <point x="49" y="24"/>
      <point x="44" y="29"/>
      <point x="33" y="29" type="curve" smooth="yes"/>
      <point x="22" y="29"/>
      <point x="17" y="24"/>
      <point x="17" y="13" type="curve" smooth="yes"/>
      <point x="17" y="2"/>
      <point x="22" y="-3"/>
    </contour>
  </outline>
</glyph>
<glyph name="slash" format="2">
  <advance width="441"/>
  <unicode hex="002F"/>
  <note>
slash
</note>
  <outline>
    <contour>
      <point x="-1" y="-46" type="line"/>
      <point x="17" y="-46" type="line"/>
      <point x="456" y="631" type="line"/>
      <point x="439" y="631" type="line"/>
    </contour>
  </outline>
</glyph>
<glyph name="one" format="2">
  <advance width="202"/>
  <unicode hex="0031"/>
  <note>
one
</note>
  <outline>
    <contour>
      <point x="74" y="0" type="line"/>
      <point x="90" y="0" type="line"/>
      <point x="174" y="591" type="line"/>
      <point x="159" y="591" type="line"/>
      <point x="153" y="552" type="line" smooth="yes"/>
      <point x="150" y="528"/>
      <point x="136" y="511"/>
      <point x="108" y="511" type="curve" smooth="yes"/>
      <point x="61" y="511" type="line"/>
      <point x="59" y="495" type="line"/>
      <point x="144" y="495" type="line"/>
    </contour>
  </outline>
</glyph>
<glyph name="two" format="2">
  <advance width="385"/>
  <unicode hex="0032"/>
  <note>
two
</note>
  <outline>
    <contour>
      <point x="31" y="0" type="line"/>
      <point x="303" y="0" type="line"/>
      <point x="305" y="16" type="line"/>
      <point x="51" y="16" type="line"/>
      <point x="64" y="105" type="line" smooth="yes"/>
      <point x="75" y="184"/>
      <point x="133" y="215"/>
      <point x="207" y="254" type="curve" smooth="yes"/>
      <point x="293" y="300"/>
      <point x="348" y="358"/>
      <point x="360" y="450" type="curve" smooth="yes"/>
      <point x="362" y="463"/>
      <point x="363" y="475"/>
      <point x="363" y="487" type="curve" smooth="yes"/>
      <point x="363" y="558"/>
      <point x="325" y="595"/>
      <point x="245" y="595" type="curve" smooth="yes"/>
      <point x="161" y="595"/>
      <point x="105" y="551"/>
      <point x="92" y="458" type="curve" smooth="yes"/>
      <point x="85" y="409" type="line"/>
      <point x="101" y="409" type="line"/>
      <point x="108" y="462" type="line" smooth="yes"/>
      <point x="120" y="543"/>
      <point x="172" y="578"/>
      <point x="242" y="578" type="curve" smooth="yes"/>
      <point x="314" y="578"/>
      <point x="347" y="548"/>
      <point x="347" y="486" type="curve" smooth="yes"/>
      <point x="347" y="476"/>
      <point x="347" y="465"/>
      <point x="345" y="454" type="curve" smooth="yes"/>
      <point x="343" y="440" type="line" smooth="yes"/>
      <point x="331" y="355"/>
      <point x="271" y="307"/>
      <point x="198" y="266" type="curve" smooth="yes"/>
      <point x="125" y="226"/>
      <point x="59" y="195"/>
      <point x="46" y="105" type="curve" smooth="yes"/>
    </contour>
  </outline>
</glyph>
<glyph name="five" format="2">
  <advance width="430"/>
  <unicode hex="0035"/>
  <note>
five
</note>
  <outline>
    <contour>
      <point x="186" y="-8" type="curve" smooth="yes"/>
      <point x="258" y="-8"/>
      <point x="339" y="19"/>
      <point x="359" y="163" type="curve" smooth="yes"/>
      <point x="370" y="241" type="line" smooth="yes"/>
      <point x="372" y="256"/>
      <point x="373" y="269"/>
      <point x="373" y="281" type="curve" smooth="yes"/>
      <point x="373" y="367"/>
      <point x="321" y="392"/>
      <point x="246" y="392" type="curve" smooth="yes"/>
      <point x="190" y="392"/>
      <point x="140" y="371"/>
      <point x="112" y="332" type="curve"/>
      <point x="115" y="326" type="line"/>
      <point x="150" y="575" type="line"/>
      <point x="392" y="575" type="line"/>
      <point x="394" y="591" type="line"/>
      <point x="137" y="591" type="line"/>
      <point x="96" y="296" type="line"/>
      <point x="111" y="296" type="line"/>
      <point x="119" y="332"/>
      <point x="167" y="376"/>
      <point x="244" y="376" type="curve" smooth="yes"/>
      <point x="331" y="376"/>
      <point x="357" y="335"/>
      <point x="357" y="279" type="curve" smooth="yes"/>
      <point x="357" y="267"/>
      <point x="356" y="255"/>
      <point x="354" y="242" type="curve" smooth="yes"/>
      <point x="343" y="160" type="line" smooth="yes"/>
      <point x="328" y="56"/>
      <point x="269" y="4"/>
      <point x="189" y="4" type="curve" smooth="yes"/>
      <point x="99" y="4"/>
      <point x="80" y="56"/>
      <point x="80" y="107" type="curve" smooth="yes"/>
      <point x="80" y="123"/>
      <point x="82" y="139"/>
      <point x="84" y="154" type="curve" smooth="yes"/>
      <point x="86" y="168" type="line"/>
      <point x="70" y="168" type="line"/>
      <point x="67" y="151" type="line" smooth="yes"/>
      <point x="65" y="135"/>
      <point x="64" y="121"/>
      <point x="64" y="108" type="curve" smooth="yes"/>
      <point x="64" y="-2"/>
      <point x="137" y="-8"/>
    </contour>
  </outline>
</glyph>
<glyph name="six" format="2">
  <advance width="428"/>
  <unicode hex="0036"/>
  <note>
six
</note>
  <outline>
    <contour>
      <point x="179" y="-9" type="curve" smooth="yes"/>
      <point x="252" y="-9"/>
      <point x="332" y="13"/>
      <point x="352" y="158" type="curve" smooth="yes"/>
      <point x="359" y="205" type="line" smooth="yes"/>
      <point x="361" y="219"/>
      <point x="362" y="232"/>
      <point x="362" y="244" type="curve" smooth="yes"/>
      <point x="362" y="330"/>
      <point x="313" y="355"/>
      <point x="241" y="355" type="curve" smooth="yes"/>
      <point x="173" y="355"/>
      <point x="127" y="326"/>
      <point x="89" y="288" type="curve"/>
      <point x="113" y="454" type="line" smooth="yes"/>
      <point x="123" y="525"/>
      <point x="179" y="577"/>
      <point x="259" y="577" type="curve" smooth="yes"/>
      <point x="326" y="577"/>
      <point x="364" y="548"/>
      <point x="364" y="485" type="curve" smooth="yes"/>
      <point x="364" y="477"/>
      <point x="363" y="469"/>
      <point x="362" y="460" type="curve" smooth="yes"/>
      <point x="360" y="449" type="line"/>
      <point x="376" y="449" type="line"/>
      <point x="377" y="456" type="line" smooth="yes"/>
      <point x="379" y="467"/>
      <point x="379" y="478"/>
      <point x="379" y="487" type="curve" smooth="yes"/>
      <point x="379" y="559"/>
      <point x="338" y="593"/>
      <point x="261" y="593" type="curve" smooth="yes"/>
      <point x="176" y="593"/>
      <point x="108" y="538"/>
      <point x="95" y="450" type="curve" smooth="yes"/>
      <point x="53" y="149" type="line" smooth="yes"/>
      <point x="51" y="133"/>
      <point x="50" y="119"/>
      <point x="50" y="107" type="curve" smooth="yes"/>
      <point x="50" y="-7"/>
      <point x="131" y="-9"/>
    </contour>
    <contour>
      <point x="181" y="7" type="curve" smooth="yes"/>
      <point x="85" y="7"/>
      <point x="66" y="60"/>
      <point x="66" y="112" type="curve" smooth="yes"/>
      <point x="66" y="126"/>
      <point x="67" y="139"/>
      <point x="69" y="152" type="curve" smooth="yes"/>
      <point x="81" y="234" type="line" smooth="yes"/>
      <point x="87" y="279"/>
      <point x="158" y="339"/>
      <point x="239" y="339" type="curve" smooth="yes"/>
      <point x="321" y="339"/>
      <point x="344" y="294"/>
      <point x="344" y="234" type="curve" smooth="yes"/>
      <point x="344" y="220"/>
      <point x="343" y="205"/>
      <point x="341" y="190" type="curve" smooth="yes"/>
      <point x="336" y="158" type="line" smooth="yes"/>
      <point x="322" y="54"/>
      <point x="264" y="7"/>
    </contour>
  </outline>
</glyph>
<glyph name="eight" format="2">
  <advance width="404"/>
  <unicode hex="0038"/>
  <note>
eight
</note>
  <outline>
    <contour>
      <point x="166" y="-8" type="curve" smooth="yes"/>
      <point x="253" y="-8"/>
      <point x="314" y="41"/>
      <point x="327" y="137" type="curve" smooth="yes"/>
      <point x="331" y="163" type="line" smooth="yes"/>
      <point x="332" y="173"/>
      <point x="333" y="184"/>
      <point x="333" y="194" type="curve" smooth="yes"/>
      <point x="333" y="251"/>
      <point x="310" y="300"/>
      <point x="240" y="309" type="curve"/>
      <point x="306" y="321"/>
      <point x="354" y="373"/>
      <point x="364" y="442" type="curve" smooth="yes"/>
      <point x="366" y="460" type="line" smooth="yes"/>
      <point x="367" y="470"/>
      <point x="368" y="479"/>
      <point x="368" y="488" type="curve" smooth="yes"/>
      <point x="368" y="555"/>
      <point x="329" y="595"/>
      <point x="250" y="595" type="curve" smooth="yes"/>
      <point x="161" y="595"/>
      <point x="108" y="543"/>
      <point x="96" y="460" type="curve" smooth="yes"/>
      <point x="94" y="442" type="line" smooth="yes"/>
      <point x="93" y="434"/>
      <point x="92" y="426"/>
      <point x="92" y="419" type="curve" smooth="yes"/>
      <point x="92" y="361"/>
      <point x="125" y="320"/>
      <point x="180" y="309" type="curve"/>
      <point x="96" y="298"/>
      <point x="58" y="232"/>
      <point x="49" y="163" type="curve" smooth="yes"/>
      <point x="45" y="137" type="line" smooth="yes"/>
      <point x="44" y="126"/>
      <point x="43" y="116"/>
      <point x="43" y="106" type="curve" smooth="yes"/>
      <point x="43" y="33"/>
      <point x="86" y="-8"/>
    </contour>
    <contour>
      <point x="168" y="8" type="curve" smooth="yes"/>
      <point x="98" y="10"/>
      <point x="59" y="44"/>
      <point x="59" y="109" type="curve" smooth="yes"/>
      <point x="59" y="118"/>
      <point x="60" y="127"/>
      <point x="61" y="137" type="curve" smooth="yes"/>
      <point x="65" y="163" type="line" smooth="yes"/>
      <point x="76" y="245"/>
      <point x="133" y="300"/>
      <point x="209" y="300" type="curve" smooth="yes"/>
      <point x="278" y="300"/>
      <point x="317" y="256"/>
      <point x="317" y="189" type="curve" smooth="yes"/>
      <point x="317" y="181"/>
      <point x="316" y="172"/>
      <point x="315" y="163" type="curve" smooth="yes"/>
      <point x="311" y="137" type="line" smooth="yes"/>
      <point x="300" y="57"/>
      <point x="250" y="10"/>
    </contour>
    <contour>
      <point x="211" y="318" type="curve" smooth="yes"/>
      <point x="152" y="318"/>
      <point x="109" y="363"/>
      <point x="109" y="422" type="curve" smooth="yes"/>
      <point x="109" y="428"/>
      <point x="109" y="434"/>
      <point x="110" y="440" type="curve" smooth="yes"/>
      <point x="112" y="459" type="line" smooth="yes"/>
      <point x="122" y="530"/>
      <point x="166" y="579"/>
      <point x="248" y="579" type="curve" smooth="yes"/>
      <point x="320" y="579"/>
      <point x="352" y="541"/>
      <point x="352" y="484" type="curve" smooth="yes"/>
      <point x="352" y="476"/>
      <point x="351" y="468"/>
      <point x="350" y="459" type="curve" smooth="yes"/>
      <point x="348" y="440" type="line" smooth="yes"/>
      <point x="338" y="372"/>
      <point x="277" y="318"/>
    </contour>
  </outline>
</glyph>
<glyph name="nine" format="2">
  <advance width="428"/>
  <unicode hex="0039"/>
  <note>
nine
</note>
  <outline>
    <contour>
      <point x="179" y="-9" type="curve" smooth="yes"/>
      <point x="264" y="-9"/>
      <point x="332" y="46"/>
      <point x="345" y="134" type="curve" smooth="yes"/>
      <point x="387" y="435" type="line" smooth="yes"/>
      <point x="389" y="450"/>
      <point x="390" y="463"/>
      <point x="390" y="475" type="curve" smooth="yes"/>
      <point x="390" y="587"/>
      <point x="309" y="593"/>
      <point x="261" y="593" type="curve" smooth="yes"/>
      <point x="188" y="593"/>
      <point x="108" y="571"/>
      <point x="88" y="426" type="curve" smooth="yes"/>
      <point x="81" y="379" type="line" smooth="yes"/>
      <point x="79" y="365"/>
      <point x="78" y="353"/>
      <point x="78" y="341" type="curve" smooth="yes"/>
      <point x="78" y="258"/>
      <point x="127" y="229"/>
      <point x="199" y="229" type="curve" smooth="yes"/>
      <point x="267" y="229"/>
      <point x="313" y="258"/>
      <point x="351" y="296" type="curve"/>
      <point x="327" y="130" type="line" smooth="yes"/>
      <point x="317" y="59"/>
      <point x="261" y="7"/>
      <point x="181" y="7" type="curve" smooth="yes"/>
      <point x="114" y="7"/>
      <point x="76" y="36"/>
      <point x="76" y="99" type="curve" smooth="yes"/>
      <point x="76" y="107"/>
      <point x="77" y="115"/>
      <point x="78" y="124" type="curve" smooth="yes"/>
      <point x="80" y="135" type="line"/>
      <point x="64" y="135" type="line"/>
      <point x="63" y="128" type="line" smooth="yes"/>
      <point x="61" y="117"/>
      <point x="61" y="106"/>
      <point x="61" y="97" type="curve" smooth="yes"/>
      <point x="61" y="25"/>
      <point x="102" y="-9"/>
    </contour>
    <contour>
      <point x="201" y="245" type="curve" smooth="yes"/>
      <point x="119" y="245"/>
      <point x="96" y="290"/>
      <point x="96" y="350" type="curve" smooth="yes"/>
      <point x="96" y="364"/>
      <point x="97" y="379"/>
      <point x="99" y="394" type="curve" smooth="yes"/>
      <point x="104" y="426" type="line" smooth="yes"/>
      <point x="118" y="530"/>
      <point x="172" y="577"/>
      <point x="259" y="577" type="curve" smooth="yes"/>
      <point x="355" y="577"/>
      <point x="374" y="524"/>
      <point x="374" y="472" type="curve" smooth="yes"/>
      <point x="374" y="458"/>
      <point x="373" y="445"/>
      <point x="371" y="432" type="curve" smooth="yes"/>
      <point x="356" y="327" type="line"/>
      <point x="339" y="301"/>
      <point x="282" y="245"/>
    </contour>
  </outline>
</glyph>
<glyph name="colon" format="2">
  <advance width="132"/>
  <unicode hex="003A"/>
  <note>
colon
</note>
  <outline>
    <contour>
      <point x="79" y="317" type="curve" smooth="yes"/>
      <point x="90" y="317"/>
      <point x="95" y="322"/>
      <point x="95" y="333" type="curve" smooth="yes"/>
      <point x="95" y="344"/>
      <point x="90" y="349"/>
      <point x="79" y="349" type="curve" smooth="yes"/>
      <point x="68" y="349"/>
      <point x="63" y="344"/>
      <point x="63" y="333" type="curve" smooth="yes"/>
      <point x="63" y="322"/>
      <point x="68" y="317"/>
    </contour>
    <contour>
      <point x="33" y="-3" type="curve" smooth="yes"/>
      <point x="44" y="-3"/>
      <point x="49" y="2"/>
      <point x="49" y="13" type="curve" smooth="yes"/>
      <point x="49" y="24"/>
      <point x="44" y="29"/>
      <point x="33" y="29" type="curve" smooth="yes"/>
      <point x="22" y="29"/>
      <point x="17" y="24"/>
      <point x="17" y="13" type="curve" smooth="yes"/>
      <point x="17" y="2"/>
      <point x="22" y="-3"/>
    </contour>
  </outline>
</glyph>
<glyph name="semicolon" format="2">
  <advance width="132"/>
  <unicode hex="003B"/>
  <note>
semicolon
</note>
  <outline>
    <contour>
      <point x="-6" y="-87" type="curve"/>
      <point x="4" y="-87" type="line"/>
      <point x="13" y="-78"/>
      <point x="30" y="-53"/>
      <point x="41" y="-36" type="curve"/>
      <point x="46" y="-25"/>
      <point x="52" y="-10"/>
      <point x="55" y="9" type="curve" smooth="yes"/>
      <point x="58" y="20"/>
      <point x="52" y="30"/>
      <point x="39" y="30" type="curve" smooth="yes"/>
      <point x="27" y="30"/>
      <point x="20" y="18"/>
      <point x="20" y="10" type="curve" smooth="yes"/>
      <point x="20" y="6"/>
      <point x="21" y="1"/>
      <point x="23" y="-3" type="curve"/>
      <point x="27" y="-7"/>
      <point x="30" y="-14"/>
      <point x="30" y="-22" type="curve" smooth="yes"/>
      <point x="30" y="-27"/>
      <point x="29" y="-32"/>
      <point x="27" y="-37" type="curve" smooth="yes"/>
      <point x="19" y="-56"/>
      <point x="-2" y="-82"/>
    </contour>
    <contour>
      <point x="80" y="317" type="curve" smooth="yes"/>
      <point x="91" y="317"/>
      <point x="96" y="322"/>
      <point x="96" y="333" type="curve" smooth="yes"/>
      <point x="96" y="344"/>
      <point x="91" y="349"/>
      <point x="80" y="349" type="curve" smooth="yes"/>
      <point x="69" y="349"/>
      <point x="64" y="344"/>
      <point x="64" y="333" type="curve" smooth="yes"/>
      <point x="64" y="322"/>
      <point x="69" y="317"/>
    </contour>
  </outline>
</glyph>
<glyph name="less" format="2">
  <advance width="328"/>
  <unicode hex="003C"/>
  <note>
less
</note>
  <outline>
    <contour>
      <point x="266" y="163" type="line"/>
      <point x="269" y="181" type="line"/>
      <point x="69" y="326" type="line"/>
      <point x="309" y="472" type="line"/>
      <point x="312" y="491" type="line"/>
      <point x="52" y="333" type="line"/>
      <point x="50" y="320" type="line"/>
    </contour>
  </outline>
</glyph>
<glyph name="question" format="2">
  <advance width="368"/>
  <unicode hex="003F"/>
  <note>
question
</note>
  <outline>
    <contour>
      <point x="117" y="144" type="line"/>
      <point x="133" y="144" type="line"/>
      <point x="148" y="250" type="line"/>
      <point x="195" y="250" type="line" smooth="yes"/>
      <point x="246" y="250"/>
      <point x="326" y="285"/>
      <point x="340" y="378" type="curve" smooth="yes"/>
      <point x="350" y="449" type="line" smooth="yes"/>
      <point x="352" y="463"/>
      <point x="353" y="476"/>
      <point x="353" y="488" type="curve" smooth="yes"/>
      <point x="353" y="562"/>
      <point x="315" y="595"/>
      <point x="231" y="595" type="curve" smooth="yes"/>
      <point x="150" y="595"/>
      <point x="103" y="549"/>
      <point x="90" y="458" type="curve" smooth="yes"/>
      <point x="86" y="429" type="line"/>
      <point x="102" y="429" type="line"/>
      <point x="106" y="462" type="line" smooth="yes"/>
      <point x="117" y="538"/>
      <point x="161" y="579"/>
      <point x="231" y="579" type="curve" smooth="yes"/>
      <point x="302" y="579"/>
      <point x="336" y="544"/>
      <point x="336" y="480" type="curve" smooth="yes"/>
      <point x="336" y="471"/>
      <point x="335" y="461"/>
      <point x="334" y="451" type="curve" smooth="yes"/>
      <point x="325" y="386" type="line" smooth="yes"/>
      <point x="313" y="300"/>
      <point x="240" y="266"/>
      <point x="193" y="266" type="curve" smooth="yes"/>
      <point x="134" y="266" type="line"/>
    </contour>
    <contour>
      <point x="107" y="-3" type="curve" smooth="yes"/>
      <point x="119" y="-3"/>
      <point x="125" y="3"/>
      <point x="125" y="17" type="curve" smooth="yes"/>
      <point x="125" y="25"/>
      <point x="120" y="29"/>
      <point x="111" y="29" type="curve" smooth="yes"/>
      <point x="99" y="29"/>
      <point x="93" y="23"/>
      <point x="93" y="10" type="curve" smooth="yes"/>
      <point x="93" y="1"/>
      <point x="97" y="-3"/>
    </contour>
  </outline>
</glyph>
<glyph name="at" format="2">
  <advance width="720"/>
  <unicode hex="0040"/>
  <note>
at
</note>
  <outline>
    <contour>
      <point x="312" y="-64" type="curve" smooth="yes"/>
      <point x="416" y="-64"/>
      <point x="501" y="-40"/>
      <point x="542" y="-25" type="curve"/>
      <point x="545" y="-9" type="line"/>
      <point x="479" y="-36"/>
      <point x="364" y="-48"/>
      <point x="313" y="-48" type="curve" smooth="yes"/>
      <point x="188" y="-48"/>
      <point x="70" y="-19"/>
      <point x="70" y="167" type="curve" smooth="yes"/>
      <point x="70" y="191"/>
      <point x="72" y="218"/>
      <point x="76" y="248" type="curve" smooth="yes"/>
      <point x="108" y="481"/>
      <point x="228" y="577"/>
      <point x="401" y="577" type="curve" smooth="yes"/>
      <point x="592" y="577"/>
      <point x="657" y="495"/>
      <point x="657" y="368" type="curve" smooth="yes"/>
      <point x="657" y="348"/>
      <point x="655" y="326"/>
      <point x="652" y="304" type="curve" smooth="yes"/>
      <point x="631" y="156"/>
      <point x="585" y="94"/>
      <point x="515" y="94" type="curve" smooth="yes"/>
      <point x="475" y="94"/>
      <point x="462" y="119"/>
      <point x="462" y="153" type="curve" smooth="yes"/>
      <point x="462" y="160"/>
      <point x="463" y="167"/>
      <point x="464" y="175" type="curve" smooth="yes"/>
      <point x="490" y="358" type="line" smooth="yes"/>
      <point x="491" y="367"/>
      <point x="492" y="375"/>
      <point x="492" y="382" type="curve" smooth="yes"/>
      <point x="492" y="430"/>
      <point x="465" y="455"/>
      <point x="390" y="455" type="curve" smooth="yes"/>
      <point x="275" y="455"/>
      <point x="256" y="395"/>
      <point x="252" y="363" type="curve" smooth="yes"/>
      <point x="248" y="338" type="line"/>
      <point x="264" y="338" type="line"/>
      <point x="268" y="364" type="line" smooth="yes"/>
      <point x="276" y="418"/>
      <point x="325" y="439"/>
      <point x="386" y="439" type="curve" smooth="yes"/>
      <point x="436" y="439"/>
      <point x="476" y="425"/>
      <point x="476" y="383" type="curve" smooth="yes"/>
      <point x="476" y="380"/>
      <point x="476" y="377"/>
      <point x="475" y="373" type="curve" smooth="yes"/>
      <point x="471" y="344"/>
      <point x="433" y="321"/>
      <point x="371" y="304" type="curve" smooth="yes"/>
      <point x="304" y="285"/>
      <point x="228" y="259"/>
      <point x="219" y="192" type="curve" smooth="yes"/>
      <point x="218" y="184"/>
      <point x="217" y="176"/>
      <point x="217" y="169" type="curve" smooth="yes"/>
      <point x="217" y="119"/>
      <point x="249" y="102"/>
      <point x="316" y="102" type="curve" smooth="yes"/>
      <point x="374" y="102"/>
      <point x="425" y="124"/>
      <point x="448" y="173" type="curve"/>
      <point x="447" y="165"/>
      <point x="446" y="157"/>
      <point x="446" y="150" type="curve" smooth="yes"/>
      <point x="446" y="111"/>
      <point x="461" y="78"/>
      <point x="513" y="78" type="curve" smooth="yes"/>
      <point x="607" y="78"/>
      <point x="649" y="169"/>
      <point x="669" y="317" type="curve" smooth="yes"/>
      <point x="672" y="340"/>
      <point x="674" y="361"/>
      <point x="674" y="380" type="curve" smooth="yes"/>
      <point x="674" y="535"/>
      <point x="573" y="593"/>
      <point x="403" y="593" type="curve" smooth="yes"/>
      <point x="196" y="593"/>
      <point x="90" y="467"/>
      <point x="60" y="251" type="curve" smooth="yes"/>
      <point x="55" y="218"/>
      <point x="53" y="187"/>
      <point x="53" y="159" type="curve" smooth="yes"/>
      <point x="53" y="14"/>
      <point x="120" y="-64"/>
    </contour>
    <contour>
      <point x="317" y="118" type="curve" smooth="yes"/>
      <point x="260" y="118"/>
      <point x="233" y="132"/>
      <point x="233" y="171" type="curve" smooth="yes"/>
      <point x="233" y="249"/>
      <point x="306" y="270"/>
      <point x="370" y="288" type="curve" smooth="yes"/>
      <point x="409" y="299"/>
      <point x="456" y="317"/>
      <point x="471" y="335" type="curve"/>
      <point x="457" y="236" type="line" smooth="yes"/>
      <point x="447" y="168"/>
      <point x="400" y="118"/>
    </contour>
  </outline>
</glyph>
<glyph name="A" format="2">
  <advance width="365"/>
  <unicode hex="0041"/>
  <note>
A
</note>
  <anchor x="150" y="0" name="bottom"/>
  <anchor x="316" y="0" name="ogonek"/>
  <anchor x="233" y="591" name="top"/>
  <outline>
    <contour>
      <point x="-9" y="0" type="line"/>
      <point x="8" y="0" type="line"/>
      <point x="70" y="160" type="line"/>
      <point x="272" y="160" type="line"/>
      <point x="289" y="0" type="line"/>
      <point x="306" y="0" type="line"/>
      <point x="239" y="591" type="line"/>
      <point x="226" y="591" type="line"/>
    </contour>
    <contour>
      <point x="270" y="176" type="line"/>
      <point x="76" y="176" type="line"/>
      <point x="220" y="532" type="line"/>
      <point x="227" y="549" type="line"/>
      <point x="228" y="532" type="line"/>
    </contour>
  </outline>
</glyph>
<glyph name="C" format="2">
  <advance width="408"/>
  <unicode hex="0043"/>
  <note>
C
</note>
  <anchor x="167" y="-12" name="bottom"/>
  <anchor x="253" y="591" name="top"/>
  <outline>
    <contour>
      <point x="166" y="-12" type="curve" smooth="yes"/>
      <point x="246" y="-12"/>
      <point x="306" y="2"/>
      <point x="322" y="118" type="curve" smooth="yes"/>
      <point x="332" y="189" type="line"/>
      <point x="316" y="189" type="line"/>
      <point x="306" y="116" type="line" smooth="yes"/>
      <point x="292" y="19"/>
      <point x="239" y="4"/>
      <point x="169" y="4" type="curve" smooth="yes"/>
      <point x="111" y="4"/>
      <point x="63" y="16"/>
      <point x="63" y="87" type="curve" smooth="yes"/>
      <point x="63" y="96"/>
      <point x="63" y="105"/>
      <point x="65" y="116" type="curve" smooth="yes"/>
      <point x="114" y="467" type="line" smooth="yes"/>
      <point x="128" y="566"/>
      <point x="176" y="583"/>
      <point x="251" y="583" type="curve" smooth="yes"/>
      <point x="314" y="583"/>
      <point x="358" y="571"/>
      <point x="358" y="503" type="curve" smooth="yes"/>
      <point x="358" y="494"/>
      <point x="358" y="484"/>
      <point x="356" y="473" type="curve" smooth="yes"/>
      <point x="343" y="381" type="line"/>
      <point x="359" y="381" type="line"/>
      <point x="372" y="469" type="line" smooth="yes"/>
      <point x="374" y="482"/>
      <point x="375" y="494"/>
      <point x="375" y="504" type="curve" smooth="yes"/>
      <point x="375" y="586"/>
      <point x="322" y="599"/>
      <point x="254" y="599" type="curve" smooth="yes"/>
      <point x="177" y="599"/>
      <point x="115" y="585"/>
      <point x="99" y="469" type="curve" smooth="yes"/>
      <point x="49" y="118" type="line" smooth="yes"/>
      <point x="47" y="105"/>
      <point x="46" y="93"/>
      <point x="46" y="83" type="curve" smooth="yes"/>
      <point x="46" y="1"/>
      <point x="99" y="-12"/>
    </contour>
  </outline>
</glyph>
<glyph name="D" format="2">
  <advance width="425"/>
  <unicode hex="0044"/>
  <note>
D
</note>
  <anchor x="179" y="0" name="bottom"/>
  <anchor x="138" y="296" name="center"/>
  <anchor x="246" y="591" name="top"/>
  <outline>
    <contour>
      <point x="41" y="0" type="line"/>
      <point x="197" y="0" type="line" smooth="yes"/>
      <point x="273" y="0"/>
      <point x="326" y="25"/>
      <point x="341" y="130" type="curve" smooth="yes"/>
      <point x="387" y="461" type="line" smooth="yes"/>
      <point x="389" y="474"/>
      <point x="390" y="485"/>
      <point x="390" y="496" type="curve" smooth="yes"/>
      <point x="390" y="572"/>
      <point x="343" y="591"/>
      <point x="281" y="591" type="curve" smooth="yes"/>
      <point x="125" y="591" type="line"/>
    </contour>
    <contour>
      <point x="200" y="16" type="curve" smooth="yes"/>
      <point x="60" y="16" type="line"/>
      <point x="138" y="576" type="line"/>
      <point x="278" y="576" type="line" smooth="yes"/>
      <point x="338" y="576"/>
      <point x="373" y="554"/>
      <point x="373" y="489" type="curve" smooth="yes"/>
      <point x="373" y="479"/>
      <point x="372" y="467"/>
      <point x="370" y="455" type="curve" smooth="yes"/>
      <point x="325" y="135" type="line" smooth="yes"/>
      <point x="312" y="39"/>
      <point x="268" y="16"/>
    </contour>
  </outline>
</glyph>
<glyph name="E" format="2">
  <advance width="347"/>
  <unicode hex="0045"/>
  <note>
E
</note>
  <anchor x="160" y="0" name="bottom"/>
  <anchor x="272" y="0" name="ogonek"/>
  <anchor x="244" y="591" name="top"/>
  <anchor x="97" y="591" name="topleft"/>
  <outline>
    <contour>
      <point x="41" y="0" type="line"/>
      <point x="286" y="0" type="line"/>
      <point x="289" y="16" type="line"/>
      <point x="60" y="16" type="line"/>
      <point x="100" y="303" type="line"/>
      <point x="278" y="303" type="line"/>
      <point x="280" y="319" type="line"/>
      <point x="102" y="319" type="line"/>
      <point x="138" y="575" type="line"/>
      <point x="367" y="575" type="line"/>
      <point x="370" y="591" type="line"/>
      <point x="125" y="591" type="line"/>
    </contour>
  </outline>
</glyph>
<glyph name="H" format="2">
  <advance width="434"/>
  <unicode hex="0048"/>
  <note>
H
</note>
  <anchor x="180" y="0" name="bottom"/>
  <anchor x="222" y="296" name="center"/>
  <anchor x="263" y="591" name="top"/>
  <anchor x="96" y="591" name="topleft"/>
  <outline>
    <contour>
      <point x="41" y="0" type="line"/>
      <point x="57" y="0" type="line"/>
      <point x="100" y="302" type="line"/>
      <point x="349" y="302" type="line"/>
      <point x="306" y="0" type="line"/>
      <point x="322" y="0" type="line"/>
      <point x="406" y="591" type="line"/>
      <point x="390" y="591" type="line"/>
      <point x="351" y="318" type="line"/>
      <point x="102" y="318" type="line"/>
      <point x="141" y="591" type="line"/>
      <point x="125" y="591" type="line"/>
    </contour>
  </outline>
</glyph>
<glyph name="I" format="2">
  <advance width="169"/>
  <unicode hex="0049"/>
  <note>
I
</note>
  <anchor x="51" y="0" name="bottom"/>
  <anchor x="68" y="0" name="ogonek"/>
  <anchor x="134" y="591" name="top"/>
  <anchor x="98" y="591" name="topleft"/>
  <outline>
    <contour>
      <point x="41" y="0" type="line"/>
      <point x="57" y="0" type="line"/>
      <point x="141" y="591" type="line"/>
      <point x="125" y="591" type="line"/>
    </contour>
  </outline>
</glyph>
<glyph name="J" format="2">
  <advance width="198"/>
  <unicode hex="004A"/>
  <note>
J
</note>
  <anchor x="57" y="0" name="bottom"/>
  <anchor x="160" y="591" name="top"/>
  <outline>
    <contour>
      <point x="-35" y="0" type="line"/>
      <point x="-15" y="0" type="line" smooth="yes"/>
      <point x="20" y="0"/>
      <point x="45" y="4"/>
      <point x="62" y="15" type="curve" smooth="yes"/>
      <point x="89" y="32"/>
      <point x="94" y="57"/>
      <point x="103" y="117" type="curve" smooth="yes"/>
      <point x="170" y="591" type="line"/>
      <point x="154" y="591" type="line"/>
      <point x="83" y="92" type="line" smooth="yes"/>
      <point x="79" y="62"/>
      <point x="69" y="36"/>
      <point x="52" y="26" type="curve" smooth="yes"/>
      <point x="38" y="17"/>
      <point x="18" y="16"/>
      <point x="-9" y="16" type="curve" smooth="yes"/>
      <point x="-32" y="16" type="line"/>
    </contour>
  </outline>
</glyph>
<glyph name="M" format="2">
  <advance width="527"/>
  <unicode hex="004D"/>
  <note>
M
</note>
  <outline>
    <contour>
      <point x="41" y="0" type="line"/>
      <point x="57" y="0" type="line"/>
      <point x="133" y="537" type="line"/>
      <point x="221" y="0" type="line"/>
      <point x="235" y="0" type="line"/>
      <point x="475" y="537" type="line"/>
      <point x="399" y="0" type="line"/>
      <point x="415" y="0" type="line"/>
      <point x="499" y="591" type="line"/>
      <point x="483" y="591" type="line"/>
      <point x="233" y="32" type="line"/>
      <point x="142" y="591" type="line"/>
      <point x="125" y="591" type="line"/>
    </contour>
  </outline>
</glyph>
<glyph name="N" format="2">
  <advance width="434"/>
  <unicode hex="004E"/>
  <note>
N
</note>
  <anchor x="182" y="0" name="bottom"/>
  <anchor x="265" y="591" name="top"/>
  <outline>
    <contour>
      <point x="41" y="0" type="line"/>
      <point x="57" y="0" type="line"/>
      <point x="137" y="565" type="line"/>
      <point x="302" y="0" type="line"/>
      <point x="322" y="0" type="line"/>
      <point x="406" y="591" type="line"/>
      <point x="391" y="591" type="line"/>
      <point x="312" y="29" type="line"/>
      <point x="147" y="591" type="line"/>
      <point x="125" y="591" type="line"/>
    </contour>
  </outline>
</glyph>
<glyph name="O" format="2">
  <advance width="416"/>
  <unicode hex="004F"/>
  <note>
O
</note>
  <anchor x="173" y="0" name="bottom"/>
  <anchor x="215" y="296" name="center"/>
  <anchor x="190" y="-9" name="ogonek"/>
  <anchor x="256" y="591" name="top"/>
  <anchor x="95" y="591" name="topleft"/>
  <anchor x="314" y="591" name="topright"/>
  <outline>
    <contour>
      <point x="170" y="-12" type="curve" smooth="yes"/>
      <point x="250" y="-12"/>
      <point x="314" y="2"/>
      <point x="330" y="118" type="curve" smooth="yes"/>
      <point x="380" y="469" type="line" smooth="yes"/>
      <point x="382" y="481"/>
      <point x="383" y="493"/>
      <point x="383" y="503" type="curve" smooth="yes"/>
      <point x="383" y="586"/>
      <point x="327" y="599"/>
      <point x="258" y="599" type="curve" smooth="yes"/>
      <point x="181" y="599"/>
      <point x="115" y="585"/>
      <point x="99" y="469" type="curve" smooth="yes"/>
      <point x="49" y="118" type="line" smooth="yes"/>
      <point x="47" y="106"/>
      <point x="46" y="94"/>
      <point x="46" y="84" type="curve" smooth="yes"/>
      <point x="46" y="1"/>
      <point x="102" y="-12"/>
    </contour>
    <contour>
      <point x="173" y="4" type="curve" smooth="yes"/>
      <point x="112" y="4"/>
      <point x="63" y="14"/>
      <point x="63" y="89" type="curve" smooth="yes"/>
      <point x="63" y="98"/>
      <point x="64" y="109"/>
      <point x="66" y="121" type="curve" smooth="yes"/>
      <point x="114" y="466" type="line" smooth="yes"/>
      <point x="129" y="570"/>
      <point x="186" y="583"/>
      <point x="255" y="583" type="curve" smooth="yes"/>
      <point x="315" y="583"/>
      <point x="365" y="573"/>
      <point x="365" y="498" type="curve" smooth="yes"/>
      <point x="365" y="488"/>
      <point x="365" y="478"/>
      <point x="363" y="466" type="curve" smooth="yes"/>
      <point x="315" y="121" type="line" smooth="yes"/>
      <point x="300" y="17"/>
      <point x="243" y="4"/>
    </contour>
  </outline>
</glyph>
<glyph name="P" format="2">
  <advance width="387"/>
  <unicode hex="0050"/>
  <note>
P
</note>
  <outline>
    <contour>
      <point x="41" y="0" type="line"/>
      <point x="57" y="0" type="line"/>
      <point x="96" y="271" type="line"/>
      <point x="207" y="271" type="line" smooth="yes"/>
      <point x="329" y="271"/>
      <point x="361" y="313"/>
      <point x="376" y="418" type="curve" smooth="yes"/>
      <point x="387" y="494" type="line" smooth="yes"/>
      <point x="388" y="502"/>
      <point x="389" y="509"/>
      <point x="389" y="515" type="curve" smooth="yes"/>
      <point x="389" y="573"/>
      <point x="349" y="591"/>
      <point x="277" y="591" type="curve" smooth="yes"/>
      <point x="125" y="591" type="line"/>
    </contour>
    <contour>
      <point x="209" y="287" type="curve" smooth="yes"/>
      <point x="98" y="287" type="line"/>
      <point x="138" y="575" type="line"/>
      <point x="273" y="575" type="line" smooth="yes"/>
      <point x="344" y="575"/>
      <point x="371" y="558"/>
      <point x="371" y="505" type="curve" smooth="yes"/>
      <point x="371" y="495"/>
      <point x="370" y="484"/>
      <point x="368" y="471" type="curve" smooth="yes"/>
      <point x="360" y="417" type="line" smooth="yes"/>
      <point x="346" y="320"/>
      <point x="318" y="287"/>
    </contour>
  </outline>
</glyph>
<glyph name="R" format="2">
  <advance width="411"/>
  <unicode hex="0052"/>
  <note>
R
</note>
  <anchor x="187" y="0" name="bottom"/>
  <anchor x="254" y="591" name="top"/>
  <outline>
    <contour>
      <point x="41" y="0" type="line"/>
      <point x="57" y="0" type="line"/>
      <point x="98" y="287" type="line"/>
      <point x="209" y="287" type="line" smooth="yes"/>
      <point x="258" y="287"/>
      <point x="279" y="252"/>
      <point x="288" y="200" type="curve" smooth="yes"/>
      <point x="320" y="0" type="line"/>
      <point x="337" y="0" type="line"/>
      <point x="300" y="224" type="line" smooth="yes"/>
      <point x="294" y="256"/>
      <point x="275" y="288"/>
      <point x="254" y="291" type="curve"/>
      <point x="304" y="297"/>
      <point x="360" y="328"/>
      <point x="371" y="411" type="curve" smooth="yes"/>
      <point x="383" y="494" type="line" smooth="yes"/>
      <point x="384" y="501"/>
      <point x="384" y="507"/>
      <point x="384" y="513" type="curve" smooth="yes"/>
      <point x="384" y="570"/>
      <point x="343" y="591"/>
      <point x="291" y="591" type="curve" smooth="yes"/>
      <point x="125" y="591" type="line"/>
    </contour>
    <contour>
      <point x="221" y="303" type="curve" smooth="yes"/>
      <point x="100" y="303" type="line"/>
      <point x="138" y="575" type="line"/>
      <point x="292" y="575" type="line" smooth="yes"/>
      <point x="333" y="575"/>
      <point x="367" y="553"/>
      <point x="367" y="506" type="curve" smooth="yes"/>
      <point x="367" y="501"/>
      <point x="367" y="496"/>
      <point x="366" y="491" type="curve" smooth="yes"/>
      <point x="355" y="409" type="line" smooth="yes"/>
      <point x="344" y="331"/>
      <point x="289" y="303"/>
    </contour>
  </outline>
</glyph>
<glyph name="W" format="2">
  <advance width="513"/>
  <unicode hex="0057"/>
  <note>
W
</note>
  <anchor x="226" y="0" name="bottom"/>
  <anchor x="309" y="591" name="top"/>
  <outline>
    <contour>
      <point x="87" y="0" type="line"/>
      <point x="104" y="0" type="line"/>
      <point x="298" y="553" type="line"/>
      <point x="333" y="0" type="line"/>
      <point x="352" y="0" type="line"/>
      <point x="538" y="591" type="line"/>
      <point x="522" y="591" type="line"/>
      <point x="347" y="35" type="line"/>
      <point x="312" y="591" type="line"/>
      <point x="295" y="591" type="line"/>
      <point x="103" y="45" type="line"/>
      <point x="87" y="591" type="line"/>
      <point x="71" y="591" type="line"/>
    </contour>
  </outline>
</glyph>
<glyph name="bracketleft" format="2">
  <advance width="271"/>
  <unicode hex="005B"/>
  <note>
bracketleft
</note>
  <outline>
    <contour>
      <point x="33" y="-62" type="line"/>
      <point x="204" y="-62" type="line"/>
      <point x="207" y="-46" type="line"/>
      <point x="52" y="-46" type="line"/>
      <point x="144" y="614" type="line"/>
      <point x="299" y="614" type="line"/>
      <point x="302" y="630" type="line"/>
      <point x="131" y="630" type="line"/>
    </contour>
  </outline>
</glyph>
<glyph name="backslash" format="2">
  <advance width="442"/>
  <unicode hex="005C"/>
  <note>
backslash
</note>
  <outline>
    <contour>
      <point x="342" y="-46" type="line"/>
      <point x="360" y="-46" type="line"/>
      <point x="113" y="631" type="line"/>
      <point x="94" y="631" type="line"/>
    </contour>
  </outline>
</glyph>
<glyph name="bracketright" format="2">
  <advance width="271"/>
  <unicode hex="005D"/>
  <note>
bracketright
</note>
  <outline>
    <contour>
      <point x="-19" y="-62" type="line"/>
      <point x="152" y="-62" type="line"/>
      <point x="250" y="630" type="line"/>
      <point x="79" y="630" type="line"/>
      <point x="76" y="614" type="line"/>
      <point x="231" y="614" type="line"/>
      <point x="139" y="-46" type="line"/>
      <point x="-16" y="-46" type="line"/>
    </contour>
  </outline>
</glyph>
<glyph name="underscore" format="2">
  <advance width="723"/>
  <unicode hex="005F"/>
  <note>
underscore
</note>
  <outline>
    <contour>
      <point x="-10" y="-108" type="line"/>
      <point x="633" y="-108" type="line"/>
      <point x="635" y="-92" type="line"/>
      <point x="-8" y="-92" type="line"/>
    </contour>
  </outline>
</glyph>
<glyph name="h" format="2">
  <advance width="374"/>
  <unicode hex="0068"/>
  <note>
h
</note>
  <anchor x="153" y="0" name="bottom"/>
  <anchor x="157" y="560" name="center"/>
  <anchor x="129" y="630" name="top"/>
  <outline>
    <contour>
      <point x="34" y="0" type="line"/>
      <point x="50" y="0" type="line"/>
      <point x="98" y="348" type="line"/>
      <point x="109" y="409"/>
      <point x="149" y="487"/>
      <point x="227" y="487" type="curve" smooth="yes"/>
      <point x="301" y="487"/>
      <point x="317" y="451"/>
      <point x="317" y="409" type="curve" smooth="yes"/>
      <point x="317" y="394"/>
      <point x="315" y="378"/>
      <point x="313" y="363" type="curve" smooth="yes"/>
      <point x="262" y="0" type="line"/>
      <point x="278" y="0" type="line"/>
      <point x="330" y="372" type="line" smooth="yes"/>
      <point x="332" y="386"/>
      <point x="334" y="401"/>
      <point x="334" y="416" type="curve" smooth="yes"/>
      <point x="334" y="462"/>
      <point x="315" y="503"/>
      <point x="229" y="503" type="curve" smooth="yes"/>
      <point x="166" y="503"/>
      <point x="131" y="465"/>
      <point x="110" y="426" type="curve"/>
      <point x="138" y="630" type="line"/>
      <point x="122" y="630" type="line"/>
    </contour>
  </outline>
</glyph>
<glyph name="k" format="2">
  <advance width="302"/>
  <unicode hex="006B"/>
  <note>
k
</note>
  <anchor x="141" y="0" name="bottom"/>
  <anchor x="208" y="630" name="top"/>
  <outline>
    <contour>
      <point x="34" y="0" type="line"/>
      <point x="50" y="0" type="line"/>
      <point x="89" y="280" type="line"/>
      <point x="112" y="280" type="line" smooth="yes"/>
      <point x="157" y="280"/>
      <point x="220" y="103"/>
      <point x="233" y="0" type="curve"/>
      <point x="250" y="0" type="line"/>
      <point x="240" y="75"/>
      <point x="211" y="210"/>
      <point x="141" y="287" type="curve"/>
      <point x="169" y="290"/>
      <point x="277" y="392"/>
      <point x="312" y="495" type="curve"/>
      <point x="296" y="495" type="line"/>
      <point x="262" y="404"/>
      <point x="159" y="296"/>
      <point x="115" y="296" type="curve" smooth="yes"/>
      <point x="91" y="296" type="line"/>
      <point x="138" y="630" type="line"/>
      <point x="122" y="630" type="line"/>
    </contour>
  </outline>
</glyph>
<glyph name="m" format="2">
  <advance width="602"/>
  <unicode hex="006D"/>
  <note>
m
</note>
  <outline>
    <contour>
      <point x="34" y="0" type="line"/>
      <point x="50" y="0" type="line"/>
      <point x="90" y="293" type="line" smooth="yes"/>
      <point x="104" y="392"/>
      <point x="170" y="487"/>
      <point x="247" y="487" type="curve" smooth="yes"/>
      <point x="304" y="487"/>
      <point x="317" y="455"/>
      <point x="317" y="416" type="curve" smooth="yes"/>
      <point x="317" y="400"/>
      <point x="315" y="384"/>
      <point x="313" y="367" type="curve" smooth="yes"/>
      <point x="262" y="0" type="line"/>
      <point x="278" y="0" type="line"/>
      <point x="321" y="301" type="line" smooth="yes"/>
      <point x="336" y="407"/>
      <point x="403" y="487"/>
      <point x="473" y="487" type="curve" smooth="yes"/>
      <point x="532" y="487"/>
      <point x="545" y="454"/>
      <point x="545" y="413" type="curve" smooth="yes"/>
      <point x="545" y="397"/>
      <point x="543" y="380"/>
      <point x="541" y="363" type="curve" smooth="yes"/>
      <point x="490" y="0" type="line"/>
      <point x="506" y="0" type="line"/>
      <point x="558" y="372" type="line" smooth="yes"/>
      <point x="560" y="388"/>
      <point x="562" y="404"/>
      <point x="562" y="419" type="curve" smooth="yes"/>
      <point x="562" y="464"/>
      <point x="546" y="503"/>
      <point x="476" y="503" type="curve" smooth="yes"/>
      <point x="407" y="503"/>
      <point x="354" y="449"/>
      <point x="333" y="394" type="curve"/>
      <point x="334" y="402"/>
      <point x="334" y="410"/>
      <point x="334" y="418" type="curve" smooth="yes"/>
      <point x="334" y="463"/>
      <point x="319" y="503"/>
      <point x="252" y="503" type="curve" smooth="yes"/>
      <point x="181" y="503"/>
      <point x="132" y="449"/>
      <point x="107" y="395" type="curve"/>
      <point x="119" y="495" type="line"/>
      <point x="103" y="495" type="line"/>
    </contour>
  </outline>
</glyph>
<glyph name="o" format="2">
  <advance width="362"/>
  <unicode hex="006F"/>
  <note>
o
</note>
  <anchor x="143" y="0" name="bottom"/>
  <anchor x="178" y="248" name="center"/>
  <anchor x="172" y="0" name="ogonek"/>
  <anchor x="216" y="495" name="top"/>
  <anchor x="246" y="495" name="topright"/>
  <outline>
    <contour>
      <point x="143" y="-7" type="curve" smooth="yes"/>
      <point x="256" y="-7"/>
      <point x="277" y="62"/>
      <point x="286" y="124" type="curve" smooth="yes"/>
      <point x="320" y="372" type="line" smooth="yes"/>
      <point x="322" y="385"/>
      <point x="323" y="399"/>
      <point x="323" y="412" type="curve" smooth="yes"/>
      <point x="323" y="460"/>
      <point x="304" y="503"/>
      <point x="219" y="503" type="curve" smooth="yes"/>
      <point x="100" y="503"/>
      <point x="85" y="433"/>
      <point x="76" y="372" type="curve" smooth="yes"/>
      <point x="42" y="124" type="line" smooth="yes"/>
      <point x="40" y="109"/>
      <point x="38" y="93"/>
      <point x="38" y="78" type="curve" smooth="yes"/>
      <point x="38" y="32"/>
      <point x="56" y="-7"/>
    </contour>
    <contour>
      <point x="145" y="9" type="curve" smooth="yes"/>
      <point x="69" y="9"/>
      <point x="54" y="43"/>
      <point x="54" y="83" type="curve" smooth="yes"/>
      <point x="54" y="97"/>
      <point x="56" y="113"/>
      <point x="58" y="127" type="curve" smooth="yes"/>
      <point x="92" y="369" type="line" smooth="yes"/>
      <point x="99" y="422"/>
      <point x="109" y="487"/>
      <point x="217" y="487" type="curve" smooth="yes"/>
      <point x="292" y="487"/>
      <point x="307" y="450"/>
      <point x="307" y="409" type="curve" smooth="yes"/>
      <point x="307" y="395"/>
      <point x="306" y="382"/>
      <point x="304" y="369" type="curve" smooth="yes"/>
      <point x="270" y="127" type="line" smooth="yes"/>
      <point x="263" y="74"/>
      <point x="248" y="9"/>
    </contour>
  </outline>
</glyph>
<glyph name="r" format="2">
  <advance width="229"/>
  <unicode hex="0072"/>
  <note>
r
</note>
  <anchor x="40" y="0" name="bottom"/>
  <anchor x="174" y="495" name="top"/>
  <outline>
    <contour>
      <point x="34" y="0" type="line"/>
      <point x="50" y="0" type="line"/>
      <point x="81" y="224" type="line" smooth="yes"/>
      <point x="95" y="326"/>
      <point x="138" y="400"/>
      <point x="171" y="438" type="curve" smooth="yes"/>
      <point x="200" y="472"/>
      <point x="232" y="488"/>
      <point x="264" y="485" type="curve"/>
      <point x="266" y="500" type="line"/>
      <point x="239" y="503"/>
      <point x="203" y="495"/>
      <point x="164" y="454" type="curve" smooth="yes"/>
      <point x="145" y="435"/>
      <point x="116" y="395"/>
      <point x="99" y="348" type="curve"/>
      <point x="118" y="495" type="line"/>
      <point x="103" y="495" type="line"/>
    </contour>
  </outline>
</glyph>
<glyph name="t" format="2">
  <advance width="212"/>
  <unicode hex="0074"/>
  <note>
t
</note>
  <anchor x="106" y="0" name="bottom"/>
  <anchor x="123" y="334" name="center"/>
  <anchor x="147" y="495" name="top"/>
  <anchor x="194" y="540" name="topright"/>
  <outline>
    <contour>
      <point x="106" y="0" type="curve" smooth="yes"/>
      <point x="131" y="0"/>
      <point x="157" y="3"/>
      <point x="166" y="4" type="curve"/>
      <point x="168" y="20" type="line"/>
      <point x="144" y="17"/>
      <point x="127" y="15"/>
      <point x="108" y="15" type="curve" smooth="yes"/>
      <point x="71" y="15"/>
      <point x="61" y="39"/>
      <point x="61" y="68" type="curve" smooth="yes"/>
      <point x="61" y="74"/>
      <point x="61" y="81"/>
      <point x="62" y="88" type="curve" smooth="yes"/>
      <point x="117" y="479" type="line"/>
      <point x="233" y="479" type="line"/>
      <point x="235" y="495" type="line"/>
      <point x="119" y="495" type="line"/>
      <point x="133" y="592" type="line"/>
      <point x="120" y="592" type="line"/>
      <point x="103" y="495" type="line"/>
      <point x="65" y="493" type="line"/>
      <point x="63" y="479" type="line"/>
      <point x="101" y="479" type="line"/>
      <point x="46" y="93" type="line" smooth="yes"/>
      <point x="45" y="83"/>
      <point x="44" y="74"/>
      <point x="44" y="66" type="curve" smooth="yes"/>
      <point x="44" y="22"/>
      <point x="62" y="0"/>
    </contour>
  </outline>
</glyph>
<glyph name="v" format="2">
  <advance width="336"/>
  <unicode hex="0076"/>
  <note>
v
</note>
  <outline>
    <contour>
      <point x="106" y="0" type="line"/>
      <point x="123" y="0" type="line"/>
      <point x="167" y="57"/>
      <point x="207" y="115"/>
      <point x="234" y="173" type="curve" smooth="yes"/>
      <point x="264" y="234"/>
      <point x="286" y="308"/>
      <point x="286" y="378" type="curve" smooth="yes"/>
      <point x="286" y="419"/>
      <point x="278" y="459"/>
      <point x="260" y="495" type="curve"/>
      <point x="244" y="495" type="line"/>
      <point x="262" y="457"/>
      <point x="269" y="418"/>
      <point x="269" y="377" type="curve" smooth="yes"/>
      <point x="269" y="309"/>
      <point x="248" y="240"/>
      <point x="219" y="178" type="curve" smooth="yes"/>
      <point x="192" y="122"/>
      <point x="161" y="71"/>
      <point x="120" y="18" type="curve"/>
      <point x="70" y="495" type="line"/>
      <point x="54" y="495" type="line"/>
    </contour>
  </outline>
</glyph>
<glyph name="w" format="2">
  <advance width="586"/>
  <unicode hex="0077"/>
  <note>
w
</note>
  <anchor x="248" y="0" name="bottom"/>
  <anchor x="309" y="495" name="top"/>
  <outline>
    <contour>
      <point x="104" y="0" type="line"/>
      <point x="122" y="0" type="line"/>
      <point x="301" y="460" type="line"/>
      <point x="350" y="0" type="line"/>
      <point x="367" y="0" type="line"/>
      <point x="423" y="65"/>
      <point x="459" y="119"/>
      <point x="484" y="173" type="curve" smooth="yes"/>
      <point x="514" y="234"/>
      <point x="536" y="308"/>
      <point x="536" y="378" type="curve" smooth="yes"/>
      <point x="536" y="419"/>
      <point x="528" y="459"/>
      <point x="510" y="495" type="curve"/>
      <point x="494" y="495" type="line"/>
      <point x="512" y="457"/>
      <point x="519" y="418"/>
      <point x="519" y="377" type="curve" smooth="yes"/>
      <point x="519" y="309"/>
      <point x="498" y="240"/>
      <point x="469" y="178" type="curve" smooth="yes"/>
      <point x="443" y="125"/>
      <point x="414" y="76"/>
      <point x="365" y="18" type="curve"/>
      <point x="313" y="495" type="line"/>
      <point x="297" y="495" type="line"/>
      <point x="117" y="27" type="line"/>
      <point x="70" y="495" type="line"/>
      <point x="54" y="495" type="line"/>
    </contour>
  </outline>
</glyph>
<glyph name="y" format="2">
  <advance width="344"/>
  <unicode hex="0079"/>
  <note>
y
</note>
  <anchor x="212" y="0" name="bottom"/>
  <anchor x="167" y="495" name="top"/>
  <outline>
    <contour>
      <point x="2" y="-118" type="curve" smooth="yes"/>
      <point x="53" y="-118"/>
      <point x="105" y="-94"/>
      <point x="140" y="-46" type="curve" smooth="yes"/>
      <point x="188" y="22"/>
      <point x="220" y="81"/>
      <point x="242" y="138" type="curve" smooth="yes"/>
      <point x="271" y="206"/>
      <point x="291" y="288"/>
      <point x="291" y="365" type="curve" smooth="yes"/>
      <point x="291" y="411"/>
      <point x="284" y="455"/>
      <point x="267" y="495" type="curve"/>
      <point x="250" y="495" type="line"/>
      <point x="267" y="453"/>
      <point x="274" y="409"/>
      <point x="274" y="364" type="curve" smooth="yes"/>
      <point x="274" y="289"/>
      <point x="254" y="212"/>
      <point x="226" y="144" type="curve" smooth="yes"/>
      <point x="203" y="88"/>
      <point x="178" y="33"/>
      <point x="136" y="-26" type="curve"/>
      <point x="135" y="-18" type="line"/>
      <point x="57" y="495" type="line"/>
      <point x="41" y="495" type="line"/>
      <point x="120" y="-40" type="line"/>
      <point x="95" y="-79"/>
      <point x="45" y="-102"/>
      <point x="0" y="-102" type="curve" smooth="yes"/>
      <point x="-17" y="-102"/>
      <point x="-34" y="-99"/>
      <point x="-49" y="-92" type="curve"/>
      <point x="-52" y="-109" type="line"/>
      <point x="-35" y="-115"/>
      <point x="-16" y="-118"/>
    </contour>
  </outline>
</glyph>
<glyph name="z" format="2">
  <advance width="250"/>
  <unicode hex="007A"/>
  <note>
z
</note>
  <anchor x="87" y="0" name="bottom"/>
  <anchor x="122" y="248" name="center"/>
  <anchor x="157" y="495" name="top"/>
  <outline>
    <contour>
      <point x="-14" y="7" type="curve"/>
      <point x="-14" y="0" type="line"/>
      <point x="191" y="0" type="line"/>
      <point x="193" y="16" type="line"/>
      <point x="10" y="16" type="line"/>
      <point x="52" y="116"/>
      <point x="221" y="368"/>
      <point x="260" y="479" type="curve" smooth="yes"/>
      <point x="261" y="483"/>
      <point x="261" y="491"/>
      <point x="261" y="495" type="curve"/>
      <point x="68" y="495" type="line"/>
      <point x="66" y="479" type="line"/>
      <point x="243" y="479" type="line"/>
      <point x="202" y="364"/>
      <point x="36" y="131"/>
    </contour>
  </outline>
</glyph>
<glyph name="braceleft" format="2">
  <advance width="274"/>
  <unicode hex="007B"/>
  <note>
braceleft
</note>
  <outline>
    <contour>
      <point x="158" y="-137" type="curve"/>
      <point x="160" y="-122" type="line"/>
      <point x="122" y="-114"/>
      <point x="85" y="-92"/>
      <point x="85" y="-37" type="curve" smooth="yes"/>
      <point x="85" y="57"/>
      <point x="162" y="96"/>
      <point x="174" y="184" type="curve" smooth="yes"/>
      <point x="179" y="221"/>
      <point x="155" y="255"/>
      <point x="110" y="268" type="curve"/>
      <point x="159" y="279"/>
      <point x="193" y="315"/>
      <point x="198" y="358" type="curve" smooth="yes"/>
      <point x="199" y="364"/>
      <point x="199" y="369"/>
      <point x="199" y="374" type="curve" smooth="yes"/>
      <point x="199" y="430"/>
      <point x="164" y="474"/>
      <point x="164" y="531" type="curve" smooth="yes"/>
      <point x="164" y="537"/>
      <point x="165" y="544"/>
      <point x="166" y="551" type="curve" smooth="yes"/>
      <point x="175" y="610"/>
      <point x="214" y="644"/>
      <point x="268" y="651" type="curve"/>
      <point x="270" y="665" type="line"/>
      <point x="211" y="656"/>
      <point x="159" y="623"/>
      <point x="149" y="551" type="curve" smooth="yes"/>
      <point x="148" y="544"/>
      <point x="148" y="538"/>
      <point x="148" y="531" type="curve" smooth="yes"/>
      <point x="148" y="471"/>
      <point x="182" y="421"/>
      <point x="182" y="368" type="curve" smooth="yes"/>
      <point x="182" y="362"/>
      <point x="182" y="356"/>
      <point x="181" y="350" type="curve" smooth="yes"/>
      <point x="175" y="307"/>
      <point x="114" y="273"/>
      <point x="61" y="273" type="curve"/>
      <point x="60" y="263" type="line"/>
      <point x="112" y="260"/>
      <point x="163" y="230"/>
      <point x="156" y="177" type="curve" smooth="yes"/>
      <point x="147" y="111"/>
      <point x="69" y="59"/>
      <point x="69" y="-44" type="curve" smooth="yes"/>
      <point x="69" y="-97"/>
      <point x="98" y="-123"/>
    </contour>
  </outline>
</glyph>
<glyph name="asciitilde" format="2">
  <advance width="451"/>
  <unicode hex="007E"/>
  <note>
asciitilde
</note>
  <outline>
    <contour>
      <point x="351" y="544" type="curve" smooth="yes"/>
      <point x="404" y="544"/>
      <point x="441" y="567"/>
      <point x="451" y="606" type="curve"/>
      <point x="435" y="606" type="line"/>
      <point x="426" y="576"/>
      <point x="398" y="560"/>
      <point x="353" y="560" type="curve" smooth="yes"/>
      <point x="320" y="560"/>
      <point x="298" y="571"/>
      <point x="276" y="582" type="curve" smooth="yes"/>
      <point x="253" y="594"/>
      <point x="227" y="606"/>
      <point x="188" y="606" type="curve" smooth="yes"/>
      <point x="139" y="606"/>
      <point x="104" y="584"/>
      <point x="92" y="545" type="curve"/>
      <point x="109" y="545" type="line"/>
      <point x="119" y="574"/>
      <point x="146" y="590"/>
      <point x="186" y="590" type="curve" smooth="yes"/>
      <point x="221" y="590"/>
      <point x="244" y="579"/>
      <point x="267" y="567" type="curve" smooth="yes"/>
      <point x="290" y="556"/>
      <point x="315" y="544"/>
    </contour>
  </outline>
</glyph>
<glyph name="cent" format="2">
  <advance width="378"/>
  <unicode hex="00A2"/>
  <note>
cent
</note>
  <outline>
    <contour>
      <point x="136" y="-63" type="line"/>
      <point x="153" y="-63" type="line"/>
      <point x="170" y="53" type="line"/>
      <point x="277" y="56"/>
      <point x="294" y="123"/>
      <point x="302" y="184" type="curve" smooth="yes"/>
      <point x="308" y="227" type="line"/>
      <point x="292" y="227" type="line"/>
      <point x="287" y="187" type="line" smooth="yes"/>
      <point x="278" y="128"/>
      <point x="265" y="67"/>
      <point x="162" y="67" type="curve" smooth="yes"/>
      <point x="87" y="67"/>
      <point x="70" y="99"/>
      <point x="70" y="139" type="curve" smooth="yes"/>
      <point x="70" y="154"/>
      <point x="73" y="171"/>
      <point x="75" y="187" type="curve" smooth="yes"/>
      <point x="109" y="429" type="line" smooth="yes"/>
      <point x="117" y="488"/>
      <point x="130" y="549"/>
      <point x="229" y="549" type="curve" smooth="yes"/>
      <point x="308" y="549"/>
      <point x="325" y="513"/>
      <point x="325" y="470" type="curve" smooth="yes"/>
      <point x="325" y="457"/>
      <point x="323" y="443"/>
      <point x="321" y="429" type="curve" smooth="yes"/>
      <point x="315" y="388" type="line"/>
      <point x="331" y="388" type="line"/>
      <point x="337" y="432" type="line" smooth="yes"/>
      <point x="339" y="446"/>
      <point x="340" y="460"/>
      <point x="340" y="474" type="curve" smooth="yes"/>
      <point x="340" y="520"/>
      <point x="323" y="561"/>
      <point x="241" y="563" type="curve"/>
      <point x="253" y="643" type="line"/>
      <point x="237" y="643" type="line"/>
      <point x="225" y="563" type="line"/>
      <point x="116" y="563"/>
      <point x="102" y="493"/>
      <point x="93" y="432" type="curve" smooth="yes"/>
      <point x="58" y="184" type="line" smooth="yes"/>
      <point x="56" y="168"/>
      <point x="54" y="152"/>
      <point x="54" y="137" type="curve" smooth="yes"/>
      <point x="54" y="92"/>
      <point x="71" y="53"/>
      <point x="153" y="53" type="curve"/>
    </contour>
  </outline>
</glyph>
<glyph name="brokenbar" format="2">
  <advance width="176"/>
  <unicode hex="00A6"/>
  <note>
brokenbar
</note>
  <outline>
    <contour>
      <point x="39" y="-46" type="line"/>
      <point x="55" y="-46" type="line"/>
      <point x="100" y="268" type="line"/>
      <point x="84" y="268" type="line"/>
    </contour>
    <contour>
      <point x="94" y="341" type="line"/>
      <point x="110" y="341" type="line"/>
      <point x="151" y="630" type="line"/>
      <point x="135" y="630" type="line"/>
    </contour>
  </outline>
</glyph>
<glyph name="copyright" format="2">
  <advance width="660"/>
  <unicode hex="00A9"/>
  <note>
copyright
</note>
  <outline>
    <contour>
      <point x="300" y="31" type="curve" smooth="yes"/>
      <point x="455" y="31"/>
      <point x="598" y="157"/>
      <point x="619" y="312" type="curve" smooth="yes"/>
      <point x="621" y="325"/>
      <point x="622" y="338"/>
      <point x="622" y="351" type="curve" smooth="yes"/>
      <point x="622" y="486"/>
      <point x="521" y="591"/>
      <point x="378" y="591" type="curve" smooth="yes"/>
      <point x="223" y="591"/>
      <point x="80" y="466"/>
      <point x="59" y="312" type="curve" smooth="yes"/>
      <point x="57" y="299"/>
      <point x="56" y="285"/>
      <point x="56" y="272" type="curve" smooth="yes"/>
      <point x="56" y="135"/>
      <point x="156" y="31"/>
    </contour>
    <contour>
      <point x="302" y="46" type="curve" smooth="yes"/>
      <point x="171" y="46"/>
      <point x="72" y="149"/>
      <point x="72" y="275" type="curve" smooth="yes"/>
      <point x="72" y="287"/>
      <point x="73" y="300"/>
      <point x="75" y="312" type="curve" smooth="yes"/>
      <point x="94" y="456"/>
      <point x="233" y="575"/>
      <point x="376" y="575" type="curve" smooth="yes"/>
      <point x="511" y="575"/>
      <point x="604" y="477"/>
      <point x="604" y="348" type="curve" smooth="yes"/>
      <point x="604" y="336"/>
      <point x="604" y="324"/>
      <point x="602" y="312" type="curve" smooth="yes"/>
      <point x="581" y="168"/>
      <point x="450" y="46"/>
    </contour>
    <contour>
      <point x="313" y="178" type="curve" smooth="yes"/>
      <point x="366" y="178"/>
      <point x="405" y="194"/>
      <point x="417" y="261" type="curve"/>
      <point x="399" y="261" type="line"/>
      <point x="392" y="210"/>
      <point x="352" y="193"/>
      <point x="315" y="193" type="curve" smooth="yes"/>
      <point x="268" y="193"/>
      <point x="255" y="213"/>
      <point x="255" y="253" type="curve" smooth="yes"/>
      <point x="255" y="270"/>
      <point x="257" y="290"/>
      <point x="260" y="313" type="curve" smooth="yes"/>
      <point x="274" y="415"/>
      <point x="283" y="443"/>
      <point x="352" y="443" type="curve" smooth="yes"/>
      <point x="398" y="443"/>
      <point x="418" y="431"/>
      <point x="418" y="387" type="curve" smooth="yes"/>
      <point x="418" y="379"/>
      <point x="417" y="371"/>
      <point x="416" y="361" type="curve"/>
      <point x="431" y="361" type="line"/>
      <point x="432" y="372"/>
      <point x="433" y="381"/>
      <point x="433" y="389" type="curve" smooth="yes"/>
      <point x="433" y="440"/>
      <point x="411" y="457"/>
      <point x="354" y="457" type="curve" smooth="yes"/>
      <point x="271" y="457"/>
      <point x="259" y="423"/>
      <point x="244" y="312" type="curve" smooth="yes"/>
      <point x="241" y="288"/>
      <point x="239" y="268"/>
      <point x="239" y="252" type="curve" smooth="yes"/>
      <point x="239" y="195"/>
      <point x="260" y="178"/>
    </contour>
  </outline>
</glyph>
<glyph name="plusminus" format="2">
  <advance width="364"/>
  <unicode hex="00B1"/>
  <note>
plusminus
</note>
  <outline>
    <contour>
      <point x="162" y="160" type="line"/>
      <point x="178" y="160" type="line"/>
      <point x="195" y="284" type="line"/>
      <point x="319" y="284" type="line"/>
      <point x="321" y="300" type="line"/>
      <point x="197" y="300" type="line"/>
      <point x="215" y="424" type="line"/>
      <point x="199" y="424" type="line"/>
      <point x="181" y="300" type="line"/>
      <point x="57" y="300" type="line"/>
      <point x="55" y="284" type="line"/>
      <point x="179" y="284" type="line"/>
    </contour>
    <contour>
      <point x="15" y="0" type="line"/>
      <point x="277" y="0" type="line"/>
      <point x="279" y="16" type="line"/>
      <point x="17" y="16" type="line"/>
    </contour>
  </outline>
</glyph>
<glyph name="twosuperior" format="2">
  <advance width="271"/>
  <unicode hex="00B2"/>
  <note>
twosuperior
</note>
  <outline>
    <contour>
      <point x="55" y="237" type="line"/>
      <point x="220" y="237" type="line"/>
      <point x="222" y="252" type="line"/>
      <point x="73" y="252" type="line"/>
      <point x="80" y="301" type="line" smooth="yes"/>
      <point x="85" y="340"/>
      <point x="106" y="359"/>
      <point x="139" y="376" type="curve" smooth="yes"/>
      <point x="144" y="378"/>
      <point x="176" y="395"/>
      <point x="191" y="403" type="curve" smooth="yes"/>
      <point x="224" y="420"/>
      <point x="248" y="455"/>
      <point x="255" y="505" type="curve" smooth="yes"/>
      <point x="256" y="513"/>
      <point x="257" y="520"/>
      <point x="257" y="527" type="curve" smooth="yes"/>
      <point x="257" y="569"/>
      <point x="235" y="593"/>
      <point x="182" y="593" type="curve" smooth="yes"/>
      <point x="130" y="593"/>
      <point x="95" y="566"/>
      <point x="87" y="510" type="curve" smooth="yes"/>
      <point x="83" y="478" type="line"/>
      <point x="99" y="478" type="line"/>
      <point x="104" y="516" type="line" smooth="yes"/>
      <point x="110" y="556"/>
      <point x="140" y="579"/>
      <point x="180" y="579" type="curve" smooth="yes"/>
      <point x="221" y="579"/>
      <point x="240" y="557"/>
      <point x="240" y="524" type="curve" smooth="yes"/>
      <point x="240" y="520"/>
      <point x="240" y="515"/>
      <point x="239" y="510" type="curve" smooth="yes"/>
      <point x="238" y="498" type="line" smooth="yes"/>
      <point x="233" y="462"/>
      <point x="215" y="434"/>
      <point x="183" y="416" type="curve" smooth="yes"/>
      <point x="169" y="408"/>
      <point x="136" y="391"/>
      <point x="128" y="387" type="curve" smooth="yes"/>
      <point x="92" y="368"/>
      <point x="71" y="349"/>
      <point x="64" y="301" type="curve" smooth="yes"/>
    </contour>
  </outline>
</glyph>
<glyph name="micro" format="2">
  <advance width="376"/>
  <unicode hex="00B5"/>
  <note>
mu
</note>
  <outline>
    <contour>
      <point x="15" y="-129" type="line"/>
      <point x="31" y="-129" type="line"/>
      <point x="56" y="50" type="line"/>
      <point x="57" y="28"/>
      <point x="85" y="-7"/>
      <point x="156" y="-7" type="curve" smooth="yes"/>
      <point x="238" y="-7"/>
      <point x="280" y="50"/>
      <point x="292" y="132" type="curve" smooth="yes"/>
      <point x="343" y="495" type="line"/>
      <point x="327" y="495" type="line"/>
      <point x="274" y="120" type="line" smooth="yes"/>
      <point x="266" y="60"/>
      <point x="227" y="9"/>
      <point x="160" y="9" type="curve" smooth="yes"/>
      <point x="92" y="9"/>
      <point x="65" y="49"/>
      <point x="65" y="99" type="curve" smooth="yes"/>
      <point x="65" y="106"/>
      <point x="65" y="113"/>
      <point x="66" y="120" type="curve" smooth="yes"/>
      <point x="119" y="495" type="line"/>
      <point x="103" y="495" type="line"/>
    </contour>
  </outline>
</glyph>
<glyph name="paragraph" format="2">
  <advance width="423"/>
  <unicode hex="00B6"/>
  <note>
paragraph
</note>
  <outline>
    <contour>
      <point x="189" y="-61" type="line"/>
      <point x="205" y="-61" type="line"/>
      <point x="294" y="574" type="line"/>
      <point x="377" y="574" type="line"/>
      <point x="288" y="-61" type="line"/>
      <point x="304" y="-61" type="line"/>
      <point x="394" y="585" type="line"/>
      <point x="290" y="585" type="line" smooth="yes"/>
      <point x="197" y="585"/>
      <point x="100" y="529"/>
      <point x="80" y="389" type="curve" smooth="yes"/>
      <point x="78" y="374"/>
      <point x="77" y="360"/>
      <point x="77" y="347" type="curve" smooth="yes"/>
      <point x="77" y="258"/>
      <point x="127" y="212"/>
      <point x="227" y="212" type="curve"/>
    </contour>
  </outline>
</glyph>
<glyph name="onesuperior" format="2">
  <advance width="186"/>
  <unicode hex="00B9"/>
  <note>
onesuperior
</note>
  <outline>
    <contour>
      <point x="92" y="238" type="line"/>
      <point x="108" y="238" type="line"/>
      <point x="158" y="591" type="line"/>
      <point x="147" y="591" type="line"/>
      <point x="141" y="548"/>
      <point x="130" y="532"/>
      <point x="91" y="532" type="curve"/>
      <point x="89" y="522" type="line"/>
      <point x="132" y="522" type="line"/>
    </contour>
  </outline>
</glyph>
<glyph name="guillemetright" format="2">
  <advance width="414"/>
  <unicode hex="00BB"/>
  <note>
guillemotright
</note>
  <outline>
    <contour>
      <point x="207" y="75" type="line"/>
      <point x="221" y="75" type="line"/>
      <point x="363" y="244" type="line"/>
      <point x="259" y="428" type="line"/>
      <point x="245" y="428" type="line"/>
      <point x="345" y="244" type="line"/>
    </contour>
    <contour>
      <point x="27" y="75" type="line"/>
      <point x="41" y="75" type="line"/>
      <point x="183" y="244" type="line"/>
      <point x="79" y="428" type="line"/>
      <point x="65" y="428" type="line"/>
      <point x="165" y="244" type="line"/>
    </contour>
  </outline>
</glyph>
<glyph name="threequarters" format="2">
  <advance width="616"/>
  <unicode hex="00BE"/>
  <note>
threequarters
</note>
  <outline>
    <contour>
      <point x="103" y="0" type="line"/>
      <point x="120" y="0" type="line"/>
      <point x="524" y="585" type="line"/>
      <point x="505" y="585" type="line"/>
    </contour>
    <contour>
      <point x="132" y="238" type="curve" smooth="yes"/>
      <point x="192" y="238"/>
      <point x="226" y="272"/>
      <point x="234" y="332" type="curve" smooth="yes"/>
      <point x="237" y="355" type="line" smooth="yes"/>
      <point x="242" y="386"/>
      <point x="222" y="422"/>
      <point x="176" y="428" type="curve"/>
      <point x="215" y="434"/>
      <point x="251" y="472"/>
      <point x="256" y="512" type="curve" smooth="yes"/>
      <point x="257" y="519" type="line" smooth="yes"/>
      <point x="258" y="524"/>
      <point x="258" y="529"/>
      <point x="258" y="534" type="curve" smooth="yes"/>
      <point x="258" y="573"/>
      <point x="232" y="595"/>
      <point x="185" y="595" type="curve" smooth="yes"/>
      <point x="132" y="595"/>
      <point x="101" y="570"/>
      <point x="92" y="511" type="curve" smooth="yes"/>
      <point x="90" y="492" type="line"/>
      <point x="106" y="492" type="line"/>
      <point x="109" y="517" type="line" smooth="yes"/>
      <point x="115" y="557"/>
      <point x="139" y="579"/>
      <point x="183" y="579" type="curve" smooth="yes"/>
      <point x="221" y="579"/>
      <point x="242" y="557"/>
      <point x="242" y="528" type="curve" smooth="yes"/>
      <point x="241" y="518" type="line"/>
      <point x="241" y="514" type="line"/>
      <point x="233" y="459"/>
      <point x="183" y="436"/>
      <point x="156" y="436" type="curve" smooth="yes"/>
      <point x="126" y="436" type="line"/>
      <point x="123" y="420" type="line"/>
      <point x="155" y="420" type="line" smooth="yes"/>
      <point x="186" y="420"/>
      <point x="221" y="401"/>
      <point x="221" y="358" type="curve" smooth="yes"/>
      <point x="221" y="354"/>
      <point x="221" y="350"/>
      <point x="220" y="346" type="curve" smooth="yes"/>
      <point x="219" y="337" type="line" smooth="yes"/>
      <point x="211" y="280"/>
      <point x="182" y="254"/>
      <point x="134" y="254" type="curve" smooth="yes"/>
      <point x="94" y="254"/>
      <point x="71" y="268"/>
      <point x="71" y="309" type="curve" smooth="yes"/>
      <point x="71" y="315"/>
      <point x="72" y="322"/>
      <point x="73" y="330" type="curve" smooth="yes"/>
      <point x="76" y="355" type="line"/>
      <point x="60" y="355" type="line"/>
      <point x="56" y="324" type="line" smooth="yes"/>
      <point x="55" y="317"/>
      <point x="54" y="310"/>
      <point x="54" y="304" type="curve" smooth="yes"/>
      <point x="54" y="255"/>
      <point x="84" y="238"/>
    </contour>
    <contour>
      <point x="428" y="-4" type="line"/>
      <point x="444" y="-4" type="line"/>
      <point x="454" y="67" type="line"/>
      <point x="495" y="67" type="line"/>
      <point x="497" y="83" type="line"/>
      <point x="456" y="83" type="line"/>
      <point x="494" y="351" type="line"/>
      <point x="480" y="351" type="line"/>
      <point x="303" y="76" type="line"/>
      <point x="302" y="67" type="line"/>
      <point x="438" y="67" type="line"/>
    </contour>
    <contour>
      <point x="440" y="83" type="line"/>
      <point x="324" y="83" type="line"/>
      <point x="473" y="314" type="line"/>
    </contour>
    <contour>
      <point x="119" y="0" type="line"/>
      <point x="106" y="0" type="line"/>
      <point x="508" y="585" type="line"/>
      <point x="523" y="585" type="line"/>
    </contour>
  </outline>
</glyph>
<glyph name="AE" format="2">
  <advance width="501"/>
  <unicode hex="00C6"/>
  <note>
AE
</note>
  <anchor x="205" y="0" name="bottom"/>
  <anchor x="287" y="591" name="top"/>
  <outline>
    <contour>
      <point x="-33" y="0" type="line"/>
      <point x="-15" y="0" type="line"/>
      <point x="69" y="160" type="line"/>
      <point x="282" y="160" type="line"/>
      <point x="282" y="176" type="line"/>
      <point x="77" y="176" type="line"/>
      <point x="290" y="588" type="line"/>
      <point x="275" y="591" type="line"/>
    </contour>
    <contour>
      <point x="274" y="0" type="line"/>
      <point x="448" y="0" type="line"/>
      <point x="451" y="16" type="line"/>
      <point x="291" y="16" type="line"/>
      <point x="291" y="303" type="line"/>
      <point x="440" y="303" type="line"/>
      <point x="442" y="319" type="line"/>
      <point x="291" y="319" type="line"/>
      <point x="291" y="575" type="line"/>
      <point x="469" y="575" type="line"/>
      <point x="472" y="591" type="line"/>
      <point x="275" y="591" type="line"/>
    </contour>
  </outline>
</glyph>
<glyph name="Oslash" format="2">
  <advance width="415"/>
  <unicode hex="00D8"/>
  <note>
Oslash
</note>
  <anchor x="170" y="0" name="bottom"/>
  <anchor x="229" y="296" name="center"/>
  <anchor x="204" y="-9" name="ogonek"/>
  <anchor x="243" y="591" name="top"/>
  <anchor x="109" y="591" name="topleft"/>
  <anchor x="328" y="591" name="topright"/>
  <outline>
    <contour>
      <point x="-13" y="-56" type="line"/>
      <point x="5" y="-56" type="line"/>
      <point x="67" y="40" type="line"/>
      <point x="84" y="-4"/>
      <point x="131" y="-12"/>
      <point x="184" y="-12" type="curve" smooth="yes"/>
      <point x="264" y="-12"/>
      <point x="328" y="2"/>
      <point x="344" y="118" type="curve" smooth="yes"/>
      <point x="394" y="469" type="line" smooth="yes"/>
      <point x="396" y="482"/>
      <point x="396" y="493"/>
      <point x="396" y="503" type="curve" smooth="yes"/>
      <point x="396" y="517"/>
      <point x="395" y="530"/>
      <point x="392" y="540" type="curve"/>
      <point x="444" y="621" type="line"/>
      <point x="427" y="621" type="line"/>
      <point x="385" y="556" type="line"/>
      <point x="365" y="592"/>
      <point x="322" y="599"/>
      <point x="272" y="599" type="curve" smooth="yes"/>
      <point x="195" y="599"/>
      <point x="129" y="585"/>
      <point x="113" y="469" type="curve" smooth="yes"/>
      <point x="63" y="118" type="line" smooth="yes"/>
      <point x="61" y="105"/>
      <point x="61" y="94"/>
      <point x="61" y="83" type="curve" smooth="yes"/>
      <point x="61" y="75"/>
      <point x="61" y="67"/>
      <point x="62" y="60" type="curve"/>
    </contour>
    <contour>
      <point x="187" y="4" type="curve" smooth="yes"/>
      <point x="135" y="4"/>
      <point x="92" y="11"/>
      <point x="80" y="60" type="curve"/>
      <point x="378" y="519" type="line"/>
      <point x="379" y="513"/>
      <point x="379" y="506"/>
      <point x="379" y="498" type="curve" smooth="yes"/>
      <point x="379" y="488"/>
      <point x="379" y="478"/>
      <point x="377" y="466" type="curve" smooth="yes"/>
      <point x="329" y="121" type="line" smooth="yes"/>
      <point x="314" y="17"/>
      <point x="257" y="4"/>
    </contour>
    <contour>
      <point x="78" y="83" type="line"/>
      <point x="77" y="94"/>
      <point x="78" y="107"/>
      <point x="80" y="121" type="curve" smooth="yes"/>
      <point x="128" y="466" type="line" smooth="yes"/>
      <point x="143" y="570"/>
      <point x="200" y="583"/>
      <point x="269" y="583" type="curve" smooth="yes"/>
      <point x="316" y="583"/>
      <point x="357" y="577"/>
      <point x="373" y="538" type="curve"/>
    </contour>
  </outline>
</glyph>
<glyph name="germandbls" format="2">
  <advance width="381"/>
  <unicode hex="00DF"/>
  <note>
germandbls
</note>
  <outline>
    <contour>
      <point x="-42" y="-146" type="curve" smooth="yes"/>
      <point x="11" y="-146"/>
      <point x="35" y="-115"/>
      <point x="42" y="-60" type="curve" smooth="yes"/>
      <point x="125" y="528" type="line" smooth="yes"/>
      <point x="132" y="575"/>
      <point x="146" y="617"/>
      <point x="241" y="617" type="curve" smooth="yes"/>
      <point x="305" y="617"/>
      <point x="336" y="597"/>
      <point x="336" y="551" type="curve" smooth="yes"/>
      <point x="336" y="545"/>
      <point x="335" y="538"/>
      <point x="334" y="531" type="curve" smooth="yes"/>
      <point x="321" y="433" type="line" smooth="yes"/>
      <point x="314" y="385"/>
      <point x="277" y="349"/>
      <point x="218" y="349" type="curve" smooth="yes"/>
      <point x="164" y="349" type="line"/>
      <point x="162" y="333" type="line"/>
      <point x="205" y="333" type="line" smooth="yes"/>
      <point x="260" y="333"/>
      <point x="306" y="313"/>
      <point x="306" y="256" type="curve" smooth="yes"/>
      <point x="306" y="251"/>
      <point x="306" y="245"/>
      <point x="305" y="239" type="curve" smooth="yes"/>
      <point x="289" y="123" type="line" smooth="yes"/>
      <point x="276" y="31"/>
      <point x="233" y="16"/>
      <point x="174" y="16" type="curve" smooth="yes"/>
      <point x="97" y="16" type="line"/>
      <point x="95" y="0" type="line"/>
      <point x="172" y="0" type="line" smooth="yes"/>
      <point x="237" y="0"/>
      <point x="290" y="15"/>
      <point x="305" y="119" type="curve" smooth="yes"/>
      <point x="322" y="244" type="line" smooth="yes"/>
      <point x="323" y="249"/>
      <point x="323" y="254"/>
      <point x="323" y="259" type="curve" smooth="yes"/>
      <point x="323" y="306"/>
      <point x="290" y="336"/>
      <point x="249" y="341" type="curve"/>
      <point x="249" y="342" type="line"/>
      <point x="292" y="346"/>
      <point x="331" y="385"/>
      <point x="337" y="429" type="curve" smooth="yes"/>
      <point x="352" y="538" type="line" smooth="yes"/>
      <point x="353" y="545"/>
      <point x="354" y="552"/>
      <point x="354" y="559" type="curve" smooth="yes"/>
      <point x="354" y="614"/>
      <point x="311" y="633"/>
      <point x="244" y="633" type="curve" smooth="yes"/>
      <point x="147" y="633"/>
      <point x="119" y="599"/>
      <point x="109" y="527" type="curve" smooth="yes"/>
      <point x="99" y="457" type="line"/>
      <point x="68" y="457" type="line"/>
      <point x="66" y="441" type="line"/>
      <point x="97" y="441" type="line"/>
      <point x="27" y="-55" type="line" smooth="yes"/>
      <point x="20" y="-104"/>
      <point x="6" y="-131"/>
      <point x="-46" y="-131" type="curve" smooth="yes"/>
      <point x="-58" y="-131"/>
      <point x="-73" y="-131"/>
      <point x="-85" y="-130" type="curve" smooth="yes"/>
      <point x="-107" y="-128" type="line"/>
      <point x="-109" y="-143" type="line"/>
      <point x="-98" y="-144"/>
      <point x="-66" y="-146"/>
    </contour>
  </outline>
</glyph>
<glyph name="eth" format="2">
  <advance width="360"/>
  <unicode hex="00F0"/>
  <note>
eth
</note>
  <outline>
    <contour>
      <point x="148" y="-7" type="curve" smooth="yes"/>
      <point x="252" y="-7"/>
      <point x="271" y="48"/>
      <point x="282" y="124" type="curve" smooth="yes"/>
      <point x="338" y="513" type="line" smooth="yes"/>
      <point x="339" y="522"/>
      <point x="340" y="534"/>
      <point x="340" y="543" type="curve" smooth="yes"/>
      <point x="340" y="602"/>
      <point x="301" y="636"/>
      <point x="232" y="636" type="curve" smooth="yes"/>
      <point x="202" y="636"/>
      <point x="176" y="633"/>
      <point x="147" y="627" type="curve"/>
      <point x="144" y="611" type="line"/>
      <point x="179" y="619"/>
      <point x="207" y="620"/>
      <point x="230" y="620" type="curve" smooth="yes"/>
      <point x="279" y="620"/>
      <point x="324" y="603"/>
      <point x="324" y="540" type="curve" smooth="yes"/>
      <point x="324" y="533"/>
      <point x="323" y="526"/>
      <point x="322" y="518" type="curve" smooth="yes"/>
      <point x="314" y="462" type="line"/>
      <point x="309" y="476"/>
      <point x="283" y="503"/>
      <point x="220" y="503" type="curve" smooth="yes"/>
      <point x="118" y="503"/>
      <point x="90" y="447"/>
      <point x="79" y="372" type="curve" smooth="yes"/>
      <point x="42" y="124" type="line" smooth="yes"/>
      <point x="40" y="111"/>
      <point x="39" y="98"/>
      <point x="39" y="85" type="curve" smooth="yes"/>
      <point x="39" y="29"/>
      <point x="65" y="-7"/>
    </contour>
    <contour>
      <point x="150" y="9" type="curve" smooth="yes"/>
      <point x="75" y="9"/>
      <point x="57" y="40"/>
      <point x="57" y="88" type="curve" smooth="yes"/>
      <point x="57" y="106"/>
      <point x="59" y="125"/>
      <point x="62" y="146" type="curve" smooth="yes"/>
      <point x="92" y="354" type="line" smooth="yes"/>
      <point x="102" y="422"/>
      <point x="118" y="487"/>
      <point x="213" y="487" type="curve" smooth="yes"/>
      <point x="287" y="487"/>
      <point x="308" y="451"/>
      <point x="308" y="417" type="curve" smooth="yes"/>
      <point x="308" y="414" type="line"/>
      <point x="266" y="127" type="line" smooth="yes"/>
      <point x="254" y="48"/>
      <point x="229" y="9"/>
    </contour>
    <contour>
      <point x="185" y="567" type="line"/>
      <point x="202" y="567" type="line"/>
      <point x="279" y="682" type="line"/>
      <point x="262" y="683" type="line"/>
    </contour>
  </outline>
</glyph>
<glyph name="divide" format="2">
  <advance width="352"/>
  <unicode hex="00F7"/>
  <note>
divide
</note>
  <outline>
    <contour>
      <point x="55" y="281" type="line"/>
      <point x="307" y="281" type="line"/>
      <point x="309" y="297" type="line"/>
      <point x="57" y="297" type="line"/>
    </contour>
    <contour>
      <point x="158" y="107" type="curve" smooth="yes"/>
      <point x="167" y="107"/>
      <point x="173" y="112"/>
      <point x="176" y="123" type="curve"/>
      <point x="177" y="134"/>
      <point x="173" y="139"/>
      <point x="162" y="139" type="curve" smooth="yes"/>
      <point x="151" y="139"/>
      <point x="145" y="134"/>
      <point x="144" y="123" type="curve"/>
      <point x="141" y="114"/>
      <point x="149" y="107"/>
    </contour>
    <contour>
      <point x="202" y="427" type="curve" smooth="yes"/>
      <point x="212" y="427"/>
      <point x="218" y="432"/>
      <point x="221" y="443" type="curve"/>
      <point x="222" y="454"/>
      <point x="218" y="459"/>
      <point x="207" y="459" type="curve" smooth="yes"/>
      <point x="196" y="459"/>
      <point x="190" y="454"/>
      <point x="189" y="443" type="curve"/>
      <point x="186" y="434"/>
      <point x="193" y="427"/>
    </contour>
  </outline>
</glyph>
<glyph name="thorn" format="2">
  <advance width="367"/>
  <unicode hex="00FE"/>
  <note>
thorn
</note>
  <outline>
    <contour>
      <point x="18" y="-116" type="line"/>
      <point x="34" y="-116" type="line"/>
      <point x="55" y="38" type="line"/>
      <point x="60" y="16"/>
      <point x="86" y="-7"/>
      <point x="153" y="-7" type="curve" smooth="yes"/>
      <point x="266" y="-7"/>
      <point x="282" y="62"/>
      <point x="290" y="124" type="curve" smooth="yes"/>
      <point x="325" y="372" type="line" smooth="yes"/>
      <point x="327" y="387"/>
      <point x="329" y="402"/>
      <point x="329" y="417" type="curve" smooth="yes"/>
      <point x="329" y="463"/>
      <point x="311" y="503"/>
      <point x="225" y="503" type="curve" smooth="yes"/>
      <point x="156" y="503"/>
      <point x="123" y="471"/>
      <point x="112" y="445" type="curve"/>
      <point x="138" y="630" type="line"/>
      <point x="122" y="630" type="line"/>
    </contour>
    <contour>
      <point x="155" y="9" type="curve" smooth="yes"/>
      <point x="79" y="9"/>
      <point x="64" y="43"/>
      <point x="64" y="82" type="curve" smooth="yes"/>
      <point x="64" y="97"/>
      <point x="66" y="112"/>
      <point x="68" y="127" type="curve" smooth="yes"/>
      <point x="101" y="363" type="line" smooth="yes"/>
      <point x="110" y="428"/>
      <point x="126" y="487"/>
      <point x="222" y="487" type="curve" smooth="yes"/>
      <point x="297" y="487"/>
      <point x="313" y="455"/>
      <point x="313" y="415" type="curve" smooth="yes"/>
      <point x="313" y="401"/>
      <point x="311" y="385"/>
      <point x="309" y="369" type="curve" smooth="yes"/>
      <point x="275" y="127" type="line" smooth="yes"/>
      <point x="267" y="74"/>
      <point x="258" y="9"/>
    </contour>
  </outline>
</glyph>
<glyph name="Hbar" format="2">
  <advance width="434"/>
  <unicode hex="0126"/>
  <note>
Hbar
</note>
  <outline>
    <contour>
      <point x="41" y="0" type="line"/>
      <point x="57" y="0" type="line"/>
      <point x="100" y="302" type="line"/>
      <point x="349" y="302" type="line"/>
      <point x="306" y="0" type="line"/>
      <point x="322" y="0" type="line"/>
      <point x="406" y="591" type="line"/>
      <point x="390" y="591" type="line"/>
      <point x="351" y="318" type="line"/>
      <point x="102" y="318" type="line"/>
      <point x="141" y="591" type="line"/>
      <point x="125" y="591" type="line"/>
    </contour>
    <contour>
      <point x="55" y="451" type="line"/>
      <point x="436" y="451" type="line"/>
      <point x="438" y="466" type="line"/>
      <point x="57" y="466" type="line"/>
    </contour>
  </outline>
</glyph>
<glyph name="idotless" format="2">
  <advance width="153"/>
  <unicode hex="0131"/>
  <note>
dotlessi
</note>
  <anchor x="48" y="0" name="bottom"/>
  <anchor x="60" y="0" name="ogonek"/>
  <anchor x="113" y="495" name="top"/>
  <outline>
    <contour>
      <point x="34" y="0" type="line"/>
      <point x="50" y="0" type="line"/>
      <point x="119" y="495" type="line"/>
      <point x="103" y="495" type="line"/>
    </contour>
  </outline>
</glyph>
<glyph name="ldot" format="2">
  <advance width="153"/>
  <unicode hex="0140"/>
  <outline>
    <contour>
      <point x="34" y="0" type="line"/>
      <point x="50" y="0" type="line"/>
      <point x="138" y="630" type="line"/>
      <point x="122" y="630" type="line"/>
    </contour>
    <contour>
      <point x="158" y="288" type="curve" smooth="yes"/>
      <point x="171" y="288"/>
      <point x="176" y="294"/>
      <point x="176" y="309" type="curve" smooth="yes"/>
      <point x="176" y="317"/>
      <point x="172" y="320"/>
      <point x="163" y="320" type="curve" smooth="yes"/>
      <point x="151" y="320"/>
      <point x="144" y="314"/>
      <point x="144" y="301" type="curve" smooth="yes"/>
      <point x="144" y="292"/>
      <point x="148" y="288"/>
    </contour>
  </outline>
</glyph>
<glyph name="Eng" format="2">
  <advance width="433"/>
  <unicode hex="014A"/>
  <note>
Eng
</note>
  <outline>
    <contour>
      <point x="308" y="-23" type="line"/>
      <point x="322" y="0" type="line"/>
      <point x="405" y="591" type="line"/>
      <point x="390" y="591" type="line"/>
      <point x="311" y="29" type="line"/>
      <point x="146" y="591" type="line"/>
      <point x="124" y="591" type="line"/>
      <point x="41" y="0" type="line"/>
      <point x="57" y="0" type="line"/>
      <point x="136" y="565" type="line"/>
    </contour>
    <contour>
      <point x="232" y="-116" type="curve" smooth="yes"/>
      <point x="281" y="-116"/>
      <point x="309" y="-85"/>
      <point x="317" y="-33" type="curve" smooth="yes"/>
      <point x="322" y="0" type="line"/>
      <point x="306" y="0" type="line"/>
      <point x="301" y="-33" type="line" smooth="yes"/>
      <point x="296" y="-67"/>
      <point x="278" y="-101"/>
      <point x="235" y="-101" type="curve" smooth="yes"/>
      <point x="216" y="-101"/>
      <point x="200" y="-99"/>
      <point x="186" y="-97" type="curve"/>
      <point x="184" y="-113" type="line"/>
      <point x="183" y="-113"/>
      <point x="207" y="-116"/>
    </contour>
  </outline>
</glyph>
<glyph name="eng" format="2">
  <advance width="374"/>
  <unicode hex="014B"/>
  <note>
eng
</note>
  <outline>
    <contour>
      <point x="188" y="-116" type="curve" smooth="yes"/>
      <point x="237" y="-116"/>
      <point x="266" y="-86"/>
      <point x="273" y="-33" type="curve" smooth="yes"/>
      <point x="330" y="372" type="line" smooth="yes"/>
      <point x="332" y="387"/>
      <point x="334" y="403"/>
      <point x="334" y="419" type="curve" smooth="yes"/>
      <point x="334" y="472"/>
      <point x="309" y="503"/>
      <point x="245" y="503" type="curve" smooth="yes"/>
      <point x="181" y="503"/>
      <point x="130" y="452"/>
      <point x="107" y="395" type="curve"/>
      <point x="119" y="495" type="line"/>
      <point x="103" y="495" type="line"/>
      <point x="34" y="0" type="line"/>
      <point x="50" y="0" type="line"/>
      <point x="92" y="305" type="line" smooth="yes"/>
      <point x="104" y="392"/>
      <point x="170" y="487"/>
      <point x="244" y="487" type="curve" smooth="yes"/>
      <point x="297" y="487"/>
      <point x="317" y="460"/>
      <point x="317" y="412" type="curve" smooth="yes"/>
      <point x="317" y="396"/>
      <point x="315" y="379"/>
      <point x="313" y="363" type="curve" smooth="yes"/>
      <point x="257" y="-32" type="line" smooth="yes"/>
      <point x="252" y="-68"/>
      <point x="234" y="-101"/>
      <point x="191" y="-101" type="curve" smooth="yes"/>
      <point x="172" y="-101"/>
      <point x="155" y="-99"/>
      <point x="142" y="-97" type="curve"/>
      <point x="139" y="-113" type="line"/>
      <point x="138" y="-113"/>
      <point x="163" y="-116"/>
    </contour>
  </outline>
</glyph>
<glyph name="oe" format="2">
  <advance width="581"/>
  <unicode hex="0153"/>
  <note>
oe
</note>
  <anchor x="372" y="0" name="bottom"/>
  <anchor x="178" y="248" name="center"/>
  <anchor x="463" y="10" name="ogonek"/>
  <anchor x="442" y="495" name="top"/>
  <anchor x="246" y="495" name="topright"/>
  <outline>
    <contour>
      <point x="143" y="-7" type="curve" smooth="yes"/>
      <point x="215" y="-7"/>
      <point x="249" y="21"/>
      <point x="267" y="57" type="curve"/>
      <point x="273" y="21"/>
      <point x="298" y="-7"/>
      <point x="371" y="-7" type="curve" smooth="yes"/>
      <point x="484" y="-7"/>
      <point x="500" y="62"/>
      <point x="509" y="124" type="curve" smooth="yes"/>
      <point x="515" y="167" type="line"/>
      <point x="499" y="167" type="line"/>
      <point x="493" y="127" type="line" smooth="yes"/>
      <point x="484" y="66"/>
      <point x="471" y="9"/>
      <point x="373" y="9" type="curve" smooth="yes"/>
      <point x="298" y="9"/>
      <point x="282" y="43"/>
      <point x="282" y="84" type="curve" smooth="yes"/>
      <point x="282" y="93"/>
      <point x="283" y="103"/>
      <point x="284" y="112" type="curve" smooth="yes"/>
      <point x="285" y="116"/>
      <point x="285" y="120"/>
      <point x="286" y="124" type="curve" smooth="yes"/>
      <point x="300" y="228" type="line"/>
      <point x="416" y="241"/>
      <point x="527" y="263"/>
      <point x="543" y="372" type="curve" smooth="yes"/>
      <point x="545" y="387"/>
      <point x="547" y="403"/>
      <point x="547" y="417" type="curve" smooth="yes"/>
      <point x="547" y="465"/>
      <point x="528" y="503"/>
      <point x="443" y="503" type="curve" smooth="yes"/>
      <point x="372" y="503"/>
      <point x="338" y="475"/>
      <point x="321" y="438" type="curve"/>
      <point x="314" y="475"/>
      <point x="289" y="503"/>
      <point x="219" y="503" type="curve" smooth="yes"/>
      <point x="100" y="503"/>
      <point x="85" y="433"/>
      <point x="76" y="372" type="curve" smooth="yes"/>
      <point x="42" y="124" type="line" smooth="yes"/>
      <point x="40" y="109"/>
      <point x="38" y="93"/>
      <point x="38" y="78" type="curve" smooth="yes"/>
      <point x="38" y="32"/>
      <point x="56" y="-7"/>
    </contour>
    <contour>
      <point x="145" y="9" type="curve" smooth="yes"/>
      <point x="69" y="9"/>
      <point x="54" y="43"/>
      <point x="54" y="83" type="curve" smooth="yes"/>
      <point x="54" y="97"/>
      <point x="56" y="113"/>
      <point x="58" y="127" type="curve" smooth="yes"/>
      <point x="92" y="369" type="line" smooth="yes"/>
      <point x="99" y="422"/>
      <point x="109" y="487"/>
      <point x="217" y="487" type="curve" smooth="yes"/>
      <point x="292" y="487"/>
      <point x="307" y="449"/>
      <point x="307" y="408" type="curve" smooth="yes"/>
      <point x="307" y="401"/>
      <point x="307" y="393"/>
      <point x="306" y="385" type="curve" smooth="yes"/>
      <point x="305" y="381"/>
      <point x="305" y="376"/>
      <point x="304" y="372" type="curve" smooth="yes"/>
      <point x="287" y="248" type="line"/>
      <point x="270" y="127" type="line" smooth="yes"/>
      <point x="263" y="74"/>
      <point x="248" y="9"/>
    </contour>
    <contour>
      <point x="302" y="244" type="curve"/>
      <point x="313" y="322" type="line"/>
      <point x="319" y="363" type="line" smooth="yes"/>
      <point x="330" y="438"/>
      <point x="352" y="487"/>
      <point x="441" y="487" type="curve" smooth="yes"/>
      <point x="515" y="487"/>
      <point x="531" y="458"/>
      <point x="531" y="418" type="curve" smooth="yes"/>
      <point x="531" y="403"/>
      <point x="529" y="388"/>
      <point x="527" y="372" type="curve" smooth="yes"/>
      <point x="516" y="293"/>
      <point x="426" y="252"/>
    </contour>
  </outline>
</glyph>
<glyph name="Schwa" format="2">
  <advance width="391"/>
  <unicode hex="018F"/>
  <outline>
    <contour>
      <point x="151" y="-8" type="curve" smooth="yes"/>
      <point x="228" y="-8"/>
      <point x="290" y="6"/>
      <point x="306" y="122" type="curve" smooth="yes"/>
      <point x="356" y="473" type="line" smooth="yes"/>
      <point x="358" y="486"/>
      <point x="359" y="498"/>
      <point x="359" y="508" type="curve" smooth="yes"/>
      <point x="359" y="590"/>
      <point x="306" y="603"/>
      <point x="239" y="603" type="curve" smooth="yes"/>
      <point x="166" y="603"/>
      <point x="99" y="589"/>
      <point x="83" y="473" type="curve" smooth="yes"/>
      <point x="73" y="402" type="line"/>
      <point x="89" y="402" type="line"/>
      <point x="98" y="468" type="line" smooth="yes"/>
      <point x="113" y="572"/>
      <point x="170" y="587"/>
      <point x="236" y="587" type="curve" smooth="yes"/>
      <point x="293" y="587"/>
      <point x="342" y="575"/>
      <point x="342" y="501" type="curve" smooth="yes"/>
      <point x="342" y="491"/>
      <point x="341" y="480"/>
      <point x="339" y="468" type="curve" smooth="yes"/>
      <point x="291" y="130" type="line" smooth="yes"/>
      <point x="277" y="25"/>
      <point x="225" y="8"/>
      <point x="154" y="8" type="curve" smooth="yes"/>
      <point x="92" y="8"/>
      <point x="47" y="20"/>
      <point x="47" y="90" type="curve" smooth="yes"/>
      <point x="47" y="100"/>
      <point x="48" y="111"/>
      <point x="50" y="124" type="curve" smooth="yes"/>
      <point x="67" y="247" type="line"/>
      <point x="51" y="247" type="line"/>
      <point x="33" y="122" type="line" smooth="yes"/>
      <point x="31" y="109"/>
      <point x="30" y="97"/>
      <point x="30" y="87" type="curve" smooth="yes"/>
      <point x="30" y="5"/>
      <point x="83" y="-8"/>
    </contour>
    <contour>
      <point x="49" y="231" type="line"/>
      <point x="314" y="231" type="line"/>
      <point x="316" y="247" type="line"/>
      <point x="51" y="247" type="line"/>
    </contour>
  </outline>
</glyph>
<glyph name="florin" format="2">
  <advance width="297"/>
  <unicode hex="0192"/>
  <note>
florin
</note>
  <outline>
    <contour>
      <point x="-66" y="-149" type="curve" smooth="yes"/>
      <point x="-14" y="-149"/>
      <point x="14" y="-116"/>
      <point x="30" y="-60" type="curve" smooth="yes"/>
      <point x="160" y="409" type="line"/>
      <point x="267" y="409" type="line"/>
      <point x="273" y="425" type="line"/>
      <point x="165" y="425" type="line"/>
      <point x="191" y="522" type="line" smooth="yes"/>
      <point x="210" y="591"/>
      <point x="235" y="622"/>
      <point x="277" y="622" type="curve" smooth="yes"/>
      <point x="294" y="622"/>
      <point x="308" y="621"/>
      <point x="319" y="620" type="curve" smooth="yes"/>
      <point x="336" y="618" type="line"/>
      <point x="340" y="632" type="line"/>
      <point x="327" y="634"/>
      <point x="306" y="636"/>
      <point x="281" y="636" type="curve" smooth="yes"/>
      <point x="229" y="636"/>
      <point x="199" y="603"/>
      <point x="181" y="542" type="curve" smooth="yes"/>
      <point x="149" y="425" type="line"/>
      <point x="107" y="425" type="line"/>
      <point x="101" y="409" type="line"/>
      <point x="144" y="409" type="line"/>
      <point x="14" y="-59" type="line" smooth="yes"/>
      <point x="5" y="-94"/>
      <point x="-14" y="-134"/>
      <point x="-61" y="-134" type="curve" smooth="yes"/>
      <point x="-78" y="-134"/>
      <point x="-91" y="-133"/>
      <point x="-102" y="-132" type="curve" smooth="yes"/>
      <point x="-118" y="-130" type="line"/>
      <point x="-124" y="-145" type="line"/>
      <point x="-113" y="-147"/>
      <point x="-90" y="-149"/>
    </contour>
  </outline>
</glyph>
<glyph name="schwa" format="2">
  <advance width="354"/>
  <unicode hex="0259"/>
  <anchor x="139" y="0" name="bottom"/>
  <anchor x="118.007" y="485" name="ogonek"/>
  <anchor x="209" y="495" name="top"/>
  <outline>
    <contour>
      <point x="138" y="-8" type="curve" smooth="yes"/>
      <point x="249" y="-8"/>
      <point x="269" y="62"/>
      <point x="277" y="123" type="curve" smooth="yes"/>
      <point x="311" y="371" type="line" smooth="yes"/>
      <point x="313" y="386"/>
      <point x="315" y="402"/>
      <point x="315" y="417" type="curve" smooth="yes"/>
      <point x="315" y="463"/>
      <point x="296.995" y="502"/>
      <point x="209.995" y="502" type="curve" smooth="yes"/>
      <point x="96.995" y="502"/>
      <point x="81" y="433"/>
      <point x="72" y="371" type="curve" smooth="yes"/>
      <point x="66" y="328" type="line"/>
      <point x="82" y="328" type="line"/>
      <point x="88" y="368" type="line" smooth="yes"/>
      <point x="97" y="429"/>
      <point x="110.006" y="486"/>
      <point x="208.006" y="486" type="curve" smooth="yes"/>
      <point x="283.006" y="486"/>
      <point x="299" y="453"/>
      <point x="299" y="411" type="curve" smooth="yes"/>
      <point x="299" y="397"/>
      <point x="297" y="383"/>
      <point x="295" y="368" type="curve" smooth="yes"/>
      <point x="281" y="267" type="line"/>
      <point x="165" y="254"/>
      <point x="54" y="232"/>
      <point x="38" y="123" type="curve" smooth="yes"/>
      <point x="36" y="108"/>
      <point x="34" y="92"/>
      <point x="34" y="78" type="curve" smooth="yes"/>
      <point x="34" y="30"/>
      <point x="53" y="-8"/>
    </contour>
    <contour>
      <point x="140" y="8" type="curve" smooth="yes"/>
      <point x="66" y="8"/>
      <point x="50" y="37"/>
      <point x="50" y="77" type="curve" smooth="yes"/>
      <point x="50" y="92"/>
      <point x="52" y="107"/>
      <point x="54" y="123" type="curve" smooth="yes"/>
      <point x="65" y="202"/>
      <point x="155" y="243"/>
      <point x="279" y="251" type="curve"/>
      <point x="262" y="132" type="line" smooth="yes"/>
      <point x="251" y="57"/>
      <point x="229" y="8"/>
    </contour>
  </outline>
</glyph>
<glyph name="gravecomb" format="2">
  <unicode hex="0300"/>
  <note>
gravecomb
</note>
  <guideline x="88" y="518" angle="82"/>
  <anchor x="301" y="495" name="_top"/>
  <anchor x="264" y="436" name="_topviet"/>
  <anchor x="305" y="631" name="top"/>
  <outline>
    <contour>
      <point x="326" y="545" type="line"/>
      <point x="341" y="545" type="line"/>
      <point x="275" y="631" type="line"/>
      <point x="255" y="631" type="line"/>
    </contour>
  </outline>
</glyph>
<glyph name="circumflexcomb" format="2">
  <unicode hex="0302"/>
  <note>
circumflexcomb
</note>
  <guideline x="128" y="518" angle="82"/>
  <anchor x="286" y="495" name="_top"/>
  <anchor x="295" y="557" name="top"/>
  <anchor x="332" y="506" name="topviet"/>
  <outline>
    <contour>
      <point x="203" y="545" type="line"/>
      <point x="221" y="545" type="line"/>
      <point x="304" y="617" type="line"/>
      <point x="363" y="545" type="line"/>
      <point x="381" y="545" type="line"/>
      <point x="313" y="631" type="line"/>
      <point x="298" y="631" type="line"/>
    </contour>
  </outline>
</glyph>
<glyph name="macroncomb" format="2">
  <unicode hex="0304"/>
  <guideline x="121" y="518" angle="82"/>
  <anchor x="288" y="495" name="_top"/>
  <anchor x="296" y="554" name="top"/>
  <outline>
    <contour>
      <point x="215" y="566" type="line"/>
      <point x="375" y="566" type="line"/>
      <point x="378" y="582" type="line"/>
      <point x="218" y="582" type="line"/>
    </contour>
  </outline>
</glyph>
<glyph name="dotaccentcomb" format="2">
  <unicode hex="0307"/>
  <guideline x="47" y="481" angle="82"/>
  <anchor x="285" y="495" name="_top"/>
  <anchor x="296" y="570" name="top"/>
  <outline>
    <contour>
      <point x="295" y="566" type="curve" smooth="yes"/>
      <point x="306" y="566"/>
      <point x="311" y="571"/>
      <point x="311" y="583" type="curve" smooth="yes"/>
      <point x="311" y="591"/>
      <point x="308" y="594"/>
      <point x="299" y="594" type="curve" smooth="yes"/>
      <point x="288" y="594"/>
      <point x="283" y="589"/>
      <point x="283" y="577" type="curve" smooth="yes"/>
      <point x="283" y="569"/>
      <point x="286" y="566"/>
    </contour>
  </outline>
</glyph>
<glyph name="hungarumlautcomb" format="2">
  <unicode hex="030B"/>
  <guideline x="100" y="518" angle="82"/>
  <anchor x="254" y="495" name="_top"/>
  <anchor x="299" y="630" name="top"/>
  <outline>
    <contour>
      <point x="273" y="544" type="line"/>
      <point x="288" y="544" type="line"/>
      <point x="371" y="630" type="line"/>
      <point x="351" y="630" type="line"/>
    </contour>
    <contour>
      <point x="225" y="545" type="line"/>
      <point x="240" y="545" type="line"/>
      <point x="323" y="631" type="line"/>
      <point x="303" y="631" type="line"/>
    </contour>
  </outline>
</glyph>
<glyph name="caroncomb" format="2">
  <unicode hex="030C"/>
  <guideline x="134" y="518" angle="82"/>
  <anchor x="292" y="495" name="_top"/>
  <anchor x="313" y="630" name="top"/>
  <outline>
    <contour>
      <point x="282" y="541" type="line"/>
      <point x="297" y="541" type="line"/>
      <point x="392" y="627" type="line"/>
      <point x="374" y="627" type="line"/>
      <point x="291" y="555" type="line"/>
      <point x="232" y="627" type="line"/>
      <point x="214" y="627" type="line"/>
    </contour>
  </outline>
</glyph>
<glyph name="breveinvertedcomb" format="2">
  <unicode hex="0311"/>
  <guideline x="119" y="518" angle="82"/>
  <anchor x="291" y="495" name="_top"/>
  <anchor x="304" y="591" name="top"/>
  <outline>
    <contour>
      <point x="209" y="545" type="curve"/>
      <point x="225" y="545" type="line"/>
      <point x="230" y="586"/>
      <point x="271" y="606"/>
      <point x="306" y="606" type="curve" smooth="yes"/>
      <point x="340" y="606"/>
      <point x="365" y="589"/>
      <point x="360" y="545" type="curve"/>
      <point x="376" y="545" type="line"/>
      <point x="381" y="582"/>
      <point x="367" y="622"/>
      <point x="309" y="622" type="curve" smooth="yes"/>
      <point x="250" y="622"/>
      <point x="214" y="583"/>
    </contour>
  </outline>
</glyph>
<glyph name="commaturnedabovecomb" format="2">
  <unicode hex="0312"/>
  <anchor x="280" y="495" name="_top"/>
  <anchor x="304" y="645" name="top"/>
  <outline>
    <contour>
      <point x="296" y="544" type="curve" smooth="yes"/>
      <point x="306" y="544"/>
      <point x="311" y="551"/>
      <point x="311" y="558" type="curve" smooth="yes"/>
      <point x="311" y="574"/>
      <point x="298" y="574"/>
      <point x="298" y="584" type="curve" smooth="yes"/>
      <point x="298" y="598"/>
      <point x="313" y="623"/>
      <point x="320" y="633" type="curve"/>
      <point x="309" y="633" type="line"/>
      <point x="294" y="614"/>
      <point x="278" y="584"/>
      <point x="278" y="563" type="curve" smooth="yes"/>
      <point x="278" y="553"/>
      <point x="283" y="544"/>
    </contour>
  </outline>
</glyph>
<glyph name="dotbelowcomb" format="2">
  <unicode hex="0323"/>
  <note>
dotbelowcomb
</note>
  <guideline x="-24" y="-18" angle="82"/>
  <anchor x="215" y="0" name="_bottom"/>
  <anchor x="199" y="-110" name="bottom"/>
  <outline>
    <contour>
      <point x="204" y="-81" type="curve" smooth="yes"/>
      <point x="215" y="-81"/>
      <point x="220" y="-76"/>
      <point x="220" y="-64" type="curve" smooth="yes"/>
      <point x="220" y="-56"/>
      <point x="217" y="-53"/>
      <point x="208" y="-53" type="curve" smooth="yes"/>
      <point x="197" y="-53"/>
      <point x="192" y="-58"/>
      <point x="192" y="-70" type="curve" smooth="yes"/>
      <point x="192" y="-78"/>
      <point x="195" y="-81"/>
    </contour>
  </outline>
</glyph>
<glyph name="commaaccentcomb" format="2">
  <unicode hex="0326"/>
  <anchor x="218" y="0" name="_bottom"/>
  <anchor x="195" y="-140" name="bottom"/>
  <outline>
    <contour>
      <point x="182" y="-130" type="curve"/>
      <point x="193" y="-130" type="line"/>
      <point x="208" y="-111"/>
      <point x="224" y="-81"/>
      <point x="224" y="-60" type="curve" smooth="yes"/>
      <point x="224" y="-50"/>
      <point x="219" y="-41"/>
      <point x="206" y="-41" type="curve" smooth="yes"/>
      <point x="196" y="-41"/>
      <point x="191" y="-48"/>
      <point x="191" y="-55" type="curve" smooth="yes"/>
      <point x="191" y="-71"/>
      <point x="204" y="-71"/>
      <point x="204" y="-81" type="curve" smooth="yes"/>
      <point x="204" y="-95"/>
      <point x="189" y="-120"/>
    </contour>
  </outline>
</glyph>
<glyph name="ogonekcomb" format="2">
  <unicode hex="0328"/>
  <anchor x="246" y="1" name="_ogonek"/>
  <outline>
    <contour>
      <point x="208" y="-128" type="curve" smooth="yes"/>
      <point x="221" y="-128"/>
      <point x="236" y="-125"/>
      <point x="249" y="-117" type="curve"/>
      <point x="245" y="-105" type="line"/>
      <point x="232" y="-111"/>
      <point x="222" y="-113"/>
      <point x="210" y="-113" type="curve" smooth="yes"/>
      <point x="187" y="-113"/>
      <point x="171" y="-100"/>
      <point x="171" y="-81" type="curve" smooth="yes"/>
      <point x="171" y="-51"/>
      <point x="206" y="-16"/>
      <point x="236" y="1" type="curve"/>
      <point x="220" y="1" type="line"/>
      <point x="192" y="-12"/>
      <point x="155" y="-46"/>
      <point x="155" y="-84" type="curve" smooth="yes"/>
      <point x="155" y="-112"/>
      <point x="176" y="-128"/>
    </contour>
  </outline>
</glyph>
<glyph name="strokeshortcomb" format="2">
  <unicode hex="0335"/>
  <anchor x="246" y="217" name="_center"/>
  <outline>
    <contour>
      <point x="160" y="210" type="line"/>
      <point x="331" y="210" type="line"/>
      <point x="333" y="225" type="line"/>
      <point x="162" y="225" type="line"/>
    </contour>
  </outline>
</glyph>
<glyph name="Omega" format="2">
  <advance width="577"/>
  <unicode hex="03A9"/>
  <note>
uni03A9
</note>
  <outline>
    <contour>
      <point x="-5" y="0" type="line"/>
      <point x="202" y="0" type="line"/>
      <point x="209" y="15" type="line"/>
      <point x="132" y="75"/>
      <point x="77" y="132"/>
      <point x="77" y="248" type="curve" smooth="yes"/>
      <point x="77" y="267"/>
      <point x="79" y="287"/>
      <point x="82" y="310" type="curve" smooth="yes"/>
      <point x="105" y="474"/>
      <point x="180" y="549"/>
      <point x="320" y="549" type="curve" smooth="yes"/>
      <point x="436" y="549"/>
      <point x="497" y="488"/>
      <point x="497" y="373" type="curve" smooth="yes"/>
      <point x="497" y="356"/>
      <point x="496" y="338"/>
      <point x="493" y="319" type="curve" smooth="yes"/>
      <point x="474" y="185"/>
      <point x="407" y="88"/>
      <point x="281" y="15" type="curve"/>
      <point x="283" y="0" type="line"/>
      <point x="511" y="0" type="line"/>
      <point x="514" y="16" type="line"/>
      <point x="312" y="16" type="line"/>
      <point x="427" y="91"/>
      <point x="491" y="188"/>
      <point x="509" y="319" type="curve" smooth="yes"/>
      <point x="512" y="339"/>
      <point x="513" y="358"/>
      <point x="513" y="375" type="curve" smooth="yes"/>
      <point x="513" y="497"/>
      <point x="447" y="565"/>
      <point x="323" y="565" type="curve" smooth="yes"/>
      <point x="174" y="565"/>
      <point x="90" y="482"/>
      <point x="66" y="310" type="curve" smooth="yes"/>
      <point x="63" y="287"/>
      <point x="61" y="265"/>
      <point x="61" y="245" type="curve" smooth="yes"/>
      <point x="61" y="133"/>
      <point x="111" y="73"/>
      <point x="180" y="16" type="curve"/>
      <point x="-2" y="16" type="line"/>
    </contour>
  </outline>
</glyph>
<glyph name="Dje-cy" format="2">
  <advance width="434"/>
  <unicode hex="0402"/>
  <note>
uni0402
</note>
  <outline>
    <contour>
      <point x="88" y="0" type="line"/>
      <point x="104" y="0" type="line"/>
      <point x="150" y="323" type="line"/>
      <point x="163" y="380"/>
      <point x="200" y="421"/>
      <point x="273" y="421" type="curve" smooth="yes"/>
      <point x="346" y="421"/>
      <point x="363" y="386"/>
      <point x="363" y="344" type="curve" smooth="yes"/>
      <point x="363" y="329"/>
      <point x="360" y="313"/>
      <point x="358" y="297" type="curve" smooth="yes"/>
      <point x="336" y="142" type="line" smooth="yes"/>
      <point x="324" y="55"/>
      <point x="300" y="16"/>
      <point x="199" y="16" type="curve"/>
      <point x="196" y="0" type="line"/>
      <point x="314" y="0"/>
      <point x="339" y="45"/>
      <point x="353" y="146" type="curve" smooth="yes"/>
      <point x="375" y="306" type="line" smooth="yes"/>
      <point x="377" y="321"/>
      <point x="379" y="336"/>
      <point x="379" y="351" type="curve" smooth="yes"/>
      <point x="379" y="397"/>
      <point x="361" y="437"/>
      <point x="275" y="437" type="curve" smooth="yes"/>
      <point x="212" y="437"/>
      <point x="177" y="410"/>
      <point x="158" y="379" type="curve"/>
      <point x="185" y="575" type="line"/>
      <point x="297" y="575" type="line"/>
      <point x="300" y="591" type="line"/>
      <point x="61" y="591" type="line"/>
      <point x="58" y="575" type="line"/>
      <point x="169" y="575" type="line"/>
    </contour>
  </outline>
</glyph>
<glyph name="Lje-cy" format="2">
  <advance width="625"/>
  <unicode hex="0409"/>
  <note>
uni0409
</note>
  <outline>
    <contour>
      <point x="20" y="0" type="line"/>
      <point x="75" y="0"/>
      <point x="92" y="77"/>
      <point x="94" y="92" type="curve"/>
      <point x="197" y="575" type="line"/>
      <point x="369" y="575" type="line"/>
      <point x="288" y="0" type="line"/>
      <point x="412" y="0" type="line" smooth="yes"/>
      <point x="525" y="0"/>
      <point x="541" y="69"/>
      <point x="550" y="131" type="curve" smooth="yes"/>
      <point x="574" y="304" type="line" smooth="yes"/>
      <point x="576" y="319"/>
      <point x="578" y="334"/>
      <point x="578" y="349" type="curve" smooth="yes"/>
      <point x="578" y="395"/>
      <point x="560" y="435"/>
      <point x="474" y="435" type="curve" smooth="yes"/>
      <point x="366" y="435" type="line"/>
      <point x="388" y="591" type="line"/>
      <point x="184" y="591" type="line"/>
      <point x="78" y="92" type="line" smooth="yes"/>
      <point x="67" y="41"/>
      <point x="50" y="16"/>
      <point x="23" y="16" type="curve"/>
    </contour>
    <contour>
      <point x="411" y="15" type="curve" smooth="yes"/>
      <point x="307" y="15" type="line"/>
      <point x="363" y="420" type="line"/>
      <point x="467" y="420" type="line" smooth="yes"/>
      <point x="546" y="420"/>
      <point x="563" y="385"/>
      <point x="563" y="342" type="curve" smooth="yes"/>
      <point x="563" y="329"/>
      <point x="561" y="315"/>
      <point x="559" y="301" type="curve" smooth="yes"/>
      <point x="535" y="134" type="line" smooth="yes"/>
      <point x="527" y="75"/>
      <point x="514" y="15"/>
    </contour>
  </outline>
</glyph>
<glyph name="Zhe-cy" format="2">
  <advance width="500"/>
  <unicode hex="0416"/>
  <note>
uni0416
</note>
  <outline>
    <contour>
      <point x="-22" y="0" type="line"/>
      <point x="-3" y="0" type="line"/>
      <point x="218" y="296" type="line"/>
      <point x="249" y="296" type="line"/>
      <point x="207" y="0" type="line"/>
      <point x="223" y="0" type="line"/>
      <point x="264" y="295" type="line"/>
      <point x="296" y="295" type="line"/>
      <point x="433" y="0" type="line"/>
      <point x="452" y="0" type="line"/>
      <point x="309" y="306" type="line"/>
      <point x="531" y="591" type="line"/>
      <point x="513" y="591" type="line"/>
      <point x="294" y="310" type="line"/>
      <point x="267" y="310" type="line"/>
      <point x="307" y="591" type="line"/>
      <point x="291" y="591" type="line"/>
      <point x="251" y="310" type="line"/>
      <point x="223" y="310" type="line"/>
      <point x="85" y="591" type="line"/>
      <point x="67" y="591" type="line"/>
      <point x="207" y="306" type="line"/>
    </contour>
  </outline>
</glyph>
<glyph name="Ii-cy" format="2">
  <advance width="434"/>
  <unicode hex="0418"/>
  <note>
uni0418
</note>
  <anchor x="182" y="0" name="bottom"/>
  <anchor x="265" y="591" name="top"/>
  <outline>
    <contour>
      <point x="42" y="0" type="line"/>
      <point x="62" y="0" type="line"/>
      <point x="386" y="565" type="line"/>
      <point x="307" y="0" type="line"/>
      <point x="323" y="0" type="line"/>
      <point x="405" y="591" type="line"/>
      <point x="383" y="591" type="line"/>
      <point x="60" y="29" type="line"/>
      <point x="139" y="591" type="line"/>
      <point x="124" y="591" type="line"/>
    </contour>
  </outline>
</glyph>
<glyph name="U-cy" format="2">
  <advance width="297"/>
  <unicode hex="0423"/>
  <note>
uni0423
</note>
  <anchor x="197" y="591" name="top"/>
  <outline>
    <contour>
      <point x="23" y="-19" type="curve" smooth="yes"/>
      <point x="83" y="-19"/>
      <point x="117" y="22"/>
      <point x="145" y="95" type="curve" smooth="yes"/>
      <point x="335" y="591" type="line"/>
      <point x="319" y="591" type="line"/>
      <point x="139" y="123" type="line"/>
      <point x="92" y="591" type="line"/>
      <point x="76" y="591" type="line"/>
      <point x="126" y="98" type="line"/>
      <point x="103" y="21"/>
      <point x="56" y="-5"/>
      <point x="25" y="-5" type="curve" smooth="yes"/>
      <point x="2" y="-5"/>
      <point x="-20" y="0"/>
      <point x="-23" y="1" type="curve"/>
      <point x="-25" y="-13" type="line"/>
      <point x="-22" y="-14"/>
      <point x="3" y="-19"/>
    </contour>
  </outline>
</glyph>
<glyph name="Sha-cy" format="2">
  <advance width="627"/>
  <unicode hex="0428"/>
  <note>
uni0428
</note>
  <outline>
    <contour>
      <point x="41" y="0" type="line"/>
      <point x="515" y="0" type="line"/>
      <point x="599" y="591" type="line"/>
      <point x="583" y="591" type="line"/>
      <point x="502" y="16" type="line"/>
      <point x="289" y="16" type="line"/>
      <point x="370" y="591" type="line"/>
      <point x="354" y="591" type="line"/>
      <point x="273" y="16" type="line"/>
      <point x="60" y="16" type="line"/>
      <point x="141" y="591" type="line"/>
      <point x="125" y="591" type="line"/>
    </contour>
  </outline>
</glyph>
<glyph name="Shcha-cy" format="2">
  <advance width="634"/>
  <unicode hex="0429"/>
  <note>
uni0429
</note>
  <outline>
    <contour>
      <point x="516" y="-74" type="line"/>
      <point x="532" y="-74" type="line"/>
      <point x="545" y="16" type="line"/>
      <point x="525" y="16" type="line"/>
      <point x="606" y="591" type="line"/>
      <point x="590" y="591" type="line"/>
      <point x="509" y="16" type="line"/>
      <point x="292" y="16" type="line"/>
      <point x="373" y="591" type="line"/>
      <point x="357" y="591" type="line"/>
      <point x="274" y="0" type="line"/>
      <point x="527" y="0" type="line"/>
    </contour>
    <contour>
      <point x="41" y="0" type="line"/>
      <point x="294" y="0" type="line"/>
      <point x="292" y="16" type="line"/>
      <point x="373" y="591" type="line"/>
      <point x="357" y="591" type="line"/>
      <point x="276" y="16" type="line"/>
      <point x="59" y="16" type="line"/>
      <point x="140" y="591" type="line"/>
      <point x="124" y="591" type="line"/>
    </contour>
  </outline>
</glyph>
<glyph name="Yeru-cy" format="2">
  <advance width="507"/>
  <unicode hex="042B"/>
  <note>
uni042B
</note>
  <outline>
    <contour>
      <point x="41" y="0" type="line"/>
      <point x="165" y="0" type="line" smooth="yes"/>
      <point x="278" y="0"/>
      <point x="294" y="69"/>
      <point x="303" y="131" type="curve" smooth="yes"/>
      <point x="327" y="304" type="line" smooth="yes"/>
      <point x="329" y="319"/>
      <point x="331" y="334"/>
      <point x="331" y="349" type="curve" smooth="yes"/>
      <point x="331" y="395"/>
      <point x="313" y="435"/>
      <point x="227" y="435" type="curve" smooth="yes"/>
      <point x="118" y="435" type="line"/>
      <point x="140" y="591" type="line"/>
      <point x="125" y="591" type="line"/>
    </contour>
    <contour>
      <point x="164" y="15" type="curve" smooth="yes"/>
      <point x="59" y="15" type="line"/>
      <point x="115" y="420" type="line"/>
      <point x="220" y="420" type="line" smooth="yes"/>
      <point x="299" y="420"/>
      <point x="316" y="385"/>
      <point x="316" y="342" type="curve" smooth="yes"/>
      <point x="316" y="329"/>
      <point x="314" y="315"/>
      <point x="312" y="301" type="curve" smooth="yes"/>
      <point x="288" y="134" type="line" smooth="yes"/>
      <point x="280" y="75"/>
      <point x="267" y="15"/>
    </contour>
    <contour>
      <point x="379" y="0" type="line"/>
      <point x="395" y="0" type="line"/>
      <point x="479" y="591" type="line"/>
      <point x="463" y="591" type="line"/>
    </contour>
  </outline>
</glyph>
<glyph name="Ereversed-cy" format="2">
  <advance width="412"/>
  <unicode hex="042D"/>
  <note>
uni042D
</note>
  <outline>
    <contour>
      <point x="169" y="-12" type="curve" smooth="yes"/>
      <point x="249" y="-12"/>
      <point x="310" y="4"/>
      <point x="326" y="118" type="curve" smooth="yes"/>
      <point x="376" y="469" type="line" smooth="yes"/>
      <point x="378" y="482"/>
      <point x="379" y="494"/>
      <point x="379" y="504" type="curve" smooth="yes"/>
      <point x="379" y="588"/>
      <point x="325" y="599"/>
      <point x="253" y="599" type="curve" smooth="yes"/>
      <point x="176" y="599"/>
      <point x="115" y="583"/>
      <point x="99" y="469" type="curve" smooth="yes"/>
      <point x="86" y="381" type="line"/>
      <point x="102" y="381" type="line"/>
      <point x="115" y="473" type="line" smooth="yes"/>
      <point x="129" y="574"/>
      <point x="181" y="584"/>
      <point x="252" y="584" type="curve" smooth="yes"/>
      <point x="318" y="584"/>
      <point x="362" y="575"/>
      <point x="362" y="502" type="curve" smooth="yes"/>
      <point x="362" y="492"/>
      <point x="361" y="480"/>
      <point x="359" y="467" type="curve" smooth="yes"/>
      <point x="337" y="308" type="line"/>
      <point x="165" y="308" type="line"/>
      <point x="163" y="292" type="line"/>
      <point x="335" y="292" type="line"/>
      <point x="310" y="116" type="line" smooth="yes"/>
      <point x="295" y="12"/>
      <point x="239" y="2"/>
      <point x="170" y="2" type="curve" smooth="yes"/>
      <point x="112" y="2"/>
      <point x="62" y="10"/>
      <point x="62" y="84" type="curve" smooth="yes"/>
      <point x="62" y="93"/>
      <point x="63" y="104"/>
      <point x="65" y="116" type="curve" smooth="yes"/>
      <point x="75" y="189" type="line"/>
      <point x="59" y="189" type="line"/>
      <point x="49" y="118" type="line" smooth="yes"/>
      <point x="47" y="105"/>
      <point x="46" y="93"/>
      <point x="46" y="82" type="curve" smooth="yes"/>
      <point x="46" y="-1"/>
      <point x="98" y="-12"/>
    </contour>
  </outline>
</glyph>
<glyph name="Iu-cy" format="2">
  <advance width="697"/>
  <unicode hex="042E"/>
  <note>
uni042E
</note>
  <outline>
    <contour>
      <point x="443" y="-12" type="curve" smooth="yes"/>
      <point x="523" y="-12"/>
      <point x="587" y="2"/>
      <point x="605" y="118" type="curve" smooth="yes"/>
      <point x="661" y="469" type="line" smooth="yes"/>
      <point x="663" y="483"/>
      <point x="664" y="495"/>
      <point x="664" y="506" type="curve" smooth="yes"/>
      <point x="664" y="587"/>
      <point x="609" y="599"/>
      <point x="541" y="599" type="curve" smooth="yes"/>
      <point x="464" y="599"/>
      <point x="398" y="585"/>
      <point x="380" y="469" type="curve" smooth="yes"/>
      <point x="324" y="118" type="line" smooth="yes"/>
      <point x="322" y="104"/>
      <point x="321" y="92"/>
      <point x="321" y="81" type="curve" smooth="yes"/>
      <point x="321" y="0"/>
      <point x="376" y="-12"/>
    </contour>
    <contour>
      <point x="41" y="0" type="line"/>
      <point x="57" y="0" type="line"/>
      <point x="104" y="302" type="line"/>
      <point x="362" y="302" type="line"/>
      <point x="365" y="318" type="line"/>
      <point x="107" y="318" type="line"/>
      <point x="150" y="591" type="line"/>
      <point x="134" y="591" type="line"/>
    </contour>
    <contour>
      <point x="446" y="4" type="curve" smooth="yes"/>
      <point x="386" y="4"/>
      <point x="338" y="14"/>
      <point x="338" y="85" type="curve" smooth="yes"/>
      <point x="338" y="96"/>
      <point x="339" y="108"/>
      <point x="341" y="121" type="curve" smooth="yes"/>
      <point x="395" y="466" type="line" smooth="yes"/>
      <point x="412" y="570"/>
      <point x="469" y="583"/>
      <point x="538" y="583" type="curve" smooth="yes"/>
      <point x="598" y="583"/>
      <point x="647" y="573"/>
      <point x="647" y="501" type="curve" smooth="yes"/>
      <point x="647" y="490"/>
      <point x="646" y="479"/>
      <point x="644" y="466" type="curve" smooth="yes"/>
      <point x="590" y="121" type="line" smooth="yes"/>
      <point x="573" y="17"/>
      <point x="516" y="4"/>
    </contour>
  </outline>
</glyph>
<glyph name="Ia-cy" format="2">
  <advance width="430"/>
  <unicode hex="042F"/>
  <note>
uni042F
</note>
  <anchor x="153" y="0" name="bottom"/>
  <anchor x="273" y="591" name="top"/>
  <outline>
    <contour>
      <point x="3" y="0" type="line"/>
      <point x="20" y="0" type="line"/>
      <point x="115" y="200" type="line" smooth="yes"/>
      <point x="141" y="252"/>
      <point x="173" y="287"/>
      <point x="222" y="287" type="curve" smooth="yes"/>
      <point x="333" y="287" type="line"/>
      <point x="283" y="0" type="line"/>
      <point x="299" y="0" type="line"/>
      <point x="402" y="591" type="line"/>
      <point x="236" y="591" type="line" smooth="yes"/>
      <point x="184" y="591"/>
      <point x="137" y="570"/>
      <point x="119" y="513" type="curve" smooth="yes"/>
      <point x="117" y="507"/>
      <point x="115" y="501"/>
      <point x="113" y="494" type="curve" smooth="yes"/>
      <point x="99" y="411" type="line" smooth="yes"/>
      <point x="97" y="400"/>
      <point x="96" y="390"/>
      <point x="96" y="381" type="curve" smooth="yes"/>
      <point x="96" y="320"/>
      <point x="136" y="296"/>
      <point x="178" y="291" type="curve"/>
      <point x="156" y="288"/>
      <point x="127" y="256"/>
      <point x="111" y="224" type="curve" smooth="yes"/>
    </contour>
    <contour>
      <point x="215" y="303" type="line" smooth="yes"/>
      <point x="155" y="303"/>
      <point x="112" y="325"/>
      <point x="112" y="383" type="curve" smooth="yes"/>
      <point x="112" y="391"/>
      <point x="113" y="400"/>
      <point x="115" y="409" type="curve" smooth="yes"/>
      <point x="130" y="491" type="line" smooth="yes"/>
      <point x="130" y="496"/>
      <point x="132" y="501"/>
      <point x="133" y="506" type="curve" smooth="yes"/>
      <point x="148" y="553"/>
      <point x="189" y="575"/>
      <point x="230" y="575" type="curve" smooth="yes"/>
      <point x="384" y="575" type="line"/>
      <point x="336" y="303" type="line"/>
    </contour>
  </outline>
</glyph>
<glyph name="be-cy" format="2">
  <advance width="363"/>
  <unicode hex="0431"/>
  <note>
uni0431
</note>
  <outline>
    <contour>
      <point x="146" y="-10" type="curve" smooth="yes"/>
      <point x="264" y="-10"/>
      <point x="278" y="62"/>
      <point x="287" y="124" type="curve" smooth="yes"/>
      <point x="314" y="316" type="line" smooth="yes"/>
      <point x="316" y="331"/>
      <point x="318" y="346"/>
      <point x="318" y="361" type="curve" smooth="yes"/>
      <point x="318" y="408"/>
      <point x="299" y="450"/>
      <point x="211" y="450" type="curve" smooth="yes"/>
      <point x="151" y="450"/>
      <point x="112" y="432"/>
      <point x="91" y="394" type="curve"/>
      <point x="97" y="393" type="line"/>
      <point x="111" y="493" type="line" smooth="yes"/>
      <point x="123" y="576"/>
      <point x="165" y="593"/>
      <point x="225" y="593" type="curve" smooth="yes"/>
      <point x="251" y="593" type="line" smooth="yes"/>
      <point x="292" y="593"/>
      <point x="314" y="600"/>
      <point x="316" y="616" type="curve" smooth="yes"/>
      <point x="318" y="626" type="line"/>
      <point x="312" y="626" type="line"/>
      <point x="305" y="613"/>
      <point x="285" y="609"/>
      <point x="261" y="609" type="curve" smooth="yes"/>
      <point x="224" y="609" type="line" smooth="yes"/>
      <point x="161" y="609"/>
      <point x="108" y="592"/>
      <point x="94" y="493" type="curve" smooth="yes"/>
      <point x="42" y="124" type="line" smooth="yes"/>
      <point x="40" y="110"/>
      <point x="38" y="95"/>
      <point x="38" y="81" type="curve" smooth="yes"/>
      <point x="38" y="33"/>
      <point x="57" y="-10"/>
    </contour>
    <contour>
      <point x="149" y="6" type="curve" smooth="yes"/>
      <point x="73" y="6"/>
      <point x="55" y="42"/>
      <point x="55" y="85" type="curve" smooth="yes"/>
      <point x="55" y="99"/>
      <point x="57" y="113"/>
      <point x="59" y="127" type="curve" smooth="yes"/>
      <point x="87" y="331" type="line" smooth="yes"/>
      <point x="95" y="384"/>
      <point x="118" y="434"/>
      <point x="209" y="434" type="curve" smooth="yes"/>
      <point x="285" y="434"/>
      <point x="302" y="398"/>
      <point x="302" y="355" type="curve" smooth="yes"/>
      <point x="302" y="341"/>
      <point x="300" y="327"/>
      <point x="298" y="313" type="curve" smooth="yes"/>
      <point x="272" y="127" type="line" smooth="yes"/>
      <point x="263" y="68"/>
      <point x="249" y="6"/>
    </contour>
  </outline>
</glyph>
<glyph name="zhe-cy" format="2">
  <advance width="447"/>
  <unicode hex="0436"/>
  <note>
uni0436
</note>
  <outline>
    <contour>
      <point x="-21" y="0" type="line"/>
      <point x="-2" y="0" type="line"/>
      <point x="184" y="254" type="line"/>
      <point x="217" y="254" type="line"/>
      <point x="181" y="0" type="line"/>
      <point x="196" y="0" type="line"/>
      <point x="232" y="254" type="line"/>
      <point x="266" y="254" type="line"/>
      <point x="379" y="0" type="line"/>
      <point x="398" y="0" type="line"/>
      <point x="280" y="261" type="line"/>
      <point x="460" y="495" type="line"/>
      <point x="442" y="495" type="line"/>
      <point x="267" y="270" type="line"/>
      <point x="234" y="270" type="line"/>
      <point x="266" y="495" type="line"/>
      <point x="251" y="495" type="line"/>
      <point x="219" y="270" type="line"/>
      <point x="186" y="270" type="line"/>
      <point x="75" y="495" type="line"/>
      <point x="57" y="495" type="line"/>
      <point x="171" y="261" type="line"/>
    </contour>
  </outline>
</glyph>
<glyph name="ii-cy" format="2">
  <advance width="378"/>
  <unicode hex="0438"/>
  <note>
uni0438
</note>
  <anchor x="314" y="0" name="bottomright"/>
  <anchor x="230" y="495" name="top"/>
  <outline>
    <contour>
      <point x="33" y="0" type="line"/>
      <point x="56" y="0" type="line"/>
      <point x="326" y="473" type="line"/>
      <point x="259" y="0" type="line"/>
      <point x="275" y="0" type="line"/>
      <point x="345" y="495" type="line"/>
      <point x="321" y="495" type="line"/>
      <point x="53" y="24" type="line"/>
      <point x="119" y="495" type="line"/>
      <point x="103" y="495" type="line"/>
    </contour>
  </outline>
</glyph>
<glyph name="te-cy" format="2">
  <advance width="269"/>
  <unicode hex="0442"/>
  <note>
uni0442
</note>
  <outline>
    <contour>
      <point x="91" y="0" type="line"/>
      <point x="107" y="0" type="line"/>
      <point x="175" y="479" type="line"/>
      <point x="287" y="479" type="line"/>
      <point x="289" y="495" type="line"/>
      <point x="50" y="495" type="line"/>
      <point x="48" y="479" type="line"/>
      <point x="159" y="479" type="line"/>
    </contour>
  </outline>
</glyph>
<glyph name="u-cy" format="2">
  <advance width="297"/>
  <unicode hex="0443"/>
  <note>
uni0443
</note>
  <anchor x="167" y="0" name="bottom"/>
  <anchor x="182" y="495" name="top"/>
  <outline>
    <contour>
      <point x="1" y="-115" type="curve" smooth="yes"/>
      <point x="61" y="-115"/>
      <point x="95" y="-70"/>
      <point x="122" y="-1" type="curve" smooth="yes"/>
      <point x="313" y="495" type="line"/>
      <point x="297" y="495" type="line"/>
      <point x="117" y="27" type="line"/>
      <point x="70" y="495" type="line"/>
      <point x="54" y="495" type="line"/>
      <point x="105" y="-4" type="line"/>
      <point x="81" y="-82"/>
      <point x="34" y="-101"/>
      <point x="3" y="-101" type="curve" smooth="yes"/>
      <point x="-20" y="-101"/>
      <point x="-42" y="-96"/>
      <point x="-45" y="-95" type="curve"/>
      <point x="-47" y="-109" type="line"/>
      <point x="-44" y="-110"/>
      <point x="-19" y="-115"/>
    </contour>
  </outline>
</glyph>
<glyph name="che-cy" format="2">
  <advance width="348"/>
  <unicode hex="0447"/>
  <note>
uni0447
</note>
  <outline>
    <contour>
      <point x="229" y="0" type="line"/>
      <point x="245" y="0" type="line"/>
      <point x="315" y="495" type="line"/>
      <point x="299" y="495" type="line"/>
      <point x="266" y="265" type="line"/>
      <point x="253" y="208"/>
      <point x="227" y="167"/>
      <point x="154" y="167" type="curve" smooth="yes"/>
      <point x="97" y="167"/>
      <point x="84" y="200"/>
      <point x="84" y="241" type="curve" smooth="yes"/>
      <point x="84" y="257"/>
      <point x="86" y="274"/>
      <point x="88" y="291" type="curve" smooth="yes"/>
      <point x="117" y="495" type="line"/>
      <point x="101" y="495" type="line"/>
      <point x="71" y="282" type="line" smooth="yes"/>
      <point x="69" y="266"/>
      <point x="67" y="249"/>
      <point x="67" y="233" type="curve" smooth="yes"/>
      <point x="67" y="189"/>
      <point x="82" y="151"/>
      <point x="151" y="151" type="curve" smooth="yes"/>
      <point x="214" y="151"/>
      <point x="239" y="178"/>
      <point x="259" y="209" type="curve"/>
    </contour>
  </outline>
</glyph>
<glyph name="sha-cy" format="2">
  <advance width="544"/>
  <unicode hex="0448"/>
  <note>
uni0448
</note>
  <outline>
    <contour>
      <point x="33" y="0" type="line"/>
      <point x="441" y="0" type="line"/>
      <point x="511" y="495" type="line"/>
      <point x="495" y="495" type="line"/>
      <point x="427" y="16" type="line"/>
      <point x="245" y="16" type="line"/>
      <point x="313" y="495" type="line"/>
      <point x="297" y="495" type="line"/>
      <point x="229" y="16" type="line"/>
      <point x="51" y="16" type="line"/>
      <point x="119" y="495" type="line"/>
      <point x="103" y="495" type="line"/>
    </contour>
  </outline>
</glyph>
<glyph name="softsign-cy" format="2">
  <advance width="351"/>
  <unicode hex="044C"/>
  <note>
uni044C
</note>
  <outline>
    <contour>
      <point x="33" y="0" type="line"/>
      <point x="157" y="0" type="line" smooth="yes"/>
      <point x="270" y="0"/>
      <point x="286" y="69"/>
      <point x="295" y="131" type="curve" smooth="yes"/>
      <point x="305" y="207" type="line" smooth="yes"/>
      <point x="307" y="222"/>
      <point x="309" y="237"/>
      <point x="309" y="252" type="curve" smooth="yes"/>
      <point x="309" y="298"/>
      <point x="291" y="338"/>
      <point x="205" y="338" type="curve" smooth="yes"/>
      <point x="96" y="338" type="line"/>
      <point x="118" y="495" type="line"/>
      <point x="103" y="495" type="line"/>
    </contour>
    <contour>
      <point x="155" y="15" type="curve" smooth="yes"/>
      <point x="50" y="15" type="line"/>
      <point x="94" y="323" type="line"/>
      <point x="199" y="323" type="line" smooth="yes"/>
      <point x="277" y="323"/>
      <point x="294" y="289"/>
      <point x="294" y="246" type="curve" smooth="yes"/>
      <point x="294" y="233"/>
      <point x="292" y="218"/>
      <point x="290" y="204" type="curve" smooth="yes"/>
      <point x="280" y="134" type="line" smooth="yes"/>
      <point x="272" y="75"/>
      <point x="258" y="15"/>
    </contour>
  </outline>
</glyph>
<glyph name="iu-cy" format="2">
  <advance width="600"/>
  <unicode hex="044E"/>
  <note>
uni044E
</note>
  <outline>
    <contour>
      <point x="377" y="-12" type="curve" smooth="yes"/>
      <point x="443" y="-12"/>
      <point x="507" y="2"/>
      <point x="523" y="118" type="curve" smooth="yes"/>
      <point x="559" y="376" type="line" smooth="yes"/>
      <point x="561" y="389"/>
      <point x="562" y="400"/>
      <point x="562" y="410" type="curve" smooth="yes"/>
      <point x="562" y="493"/>
      <point x="507" y="506"/>
      <point x="451" y="506" type="curve" smooth="yes"/>
      <point x="388" y="506"/>
      <point x="322" y="492"/>
      <point x="306" y="376" type="curve" smooth="yes"/>
      <point x="270" y="118" type="line" smooth="yes"/>
      <point x="268" y="105"/>
      <point x="267" y="94"/>
      <point x="267" y="84" type="curve" smooth="yes"/>
      <point x="267" y="1"/>
      <point x="322" y="-12"/>
    </contour>
    <contour>
      <point x="33" y="0" type="line"/>
      <point x="49" y="0" type="line"/>
      <point x="83" y="242" type="line"/>
      <point x="296" y="242" type="line"/>
      <point x="299" y="258" type="line"/>
      <point x="86" y="258" type="line"/>
      <point x="119" y="498" type="line"/>
      <point x="103" y="498" type="line"/>
    </contour>
    <contour>
      <point x="380" y="4" type="curve" smooth="yes"/>
      <point x="331" y="4"/>
      <point x="284" y="14"/>
      <point x="284" y="90" type="curve" smooth="yes"/>
      <point x="284" y="99"/>
      <point x="284" y="110"/>
      <point x="286" y="121" type="curve" smooth="yes"/>
      <point x="322" y="373" type="line" smooth="yes"/>
      <point x="336" y="477"/>
      <point x="393" y="490"/>
      <point x="448" y="490" type="curve" smooth="yes"/>
      <point x="496" y="490"/>
      <point x="545" y="480"/>
      <point x="545" y="403" type="curve" smooth="yes"/>
      <point x="545" y="394"/>
      <point x="545" y="384"/>
      <point x="543" y="373" type="curve" smooth="yes"/>
      <point x="507" y="121" type="line" smooth="yes"/>
      <point x="493" y="17"/>
      <point x="436" y="4"/>
    </contour>
  </outline>
</glyph>
<glyph name="ia-cy" format="2">
  <advance width="370"/>
  <unicode hex="044F"/>
  <note>
uni044F
</note>
  <outline>
    <contour>
      <point x="10" y="0" type="line"/>
      <point x="27" y="0" type="line"/>
      <point x="80" y="104" type="line" smooth="yes"/>
      <point x="106" y="155"/>
      <point x="141" y="238"/>
      <point x="190" y="238" type="curve" smooth="yes"/>
      <point x="285" y="238" type="line"/>
      <point x="251" y="0" type="line"/>
      <point x="267" y="0" type="line"/>
      <point x="337" y="495" type="line"/>
      <point x="204" y="495" type="line" smooth="yes"/>
      <point x="147" y="495"/>
      <point x="94" y="470"/>
      <point x="84" y="398" type="curve" smooth="yes"/>
      <point x="79" y="362" type="line" smooth="yes"/>
      <point x="77" y="350"/>
      <point x="76" y="340"/>
      <point x="76" y="330" type="curve" smooth="yes"/>
      <point x="76" y="272"/>
      <point x="107" y="252"/>
      <point x="163" y="244" type="curve"/>
      <point x="126" y="237"/>
      <point x="90" y="160"/>
      <point x="74" y="128" type="curve" smooth="yes"/>
    </contour>
    <contour>
      <point x="287" y="254" type="line"/>
      <point x="199" y="254" type="line" smooth="yes"/>
      <point x="131" y="254"/>
      <point x="93" y="276"/>
      <point x="93" y="336" type="curve" smooth="yes"/>
      <point x="93" y="343"/>
      <point x="94" y="351"/>
      <point x="95" y="360" type="curve" smooth="yes"/>
      <point x="100" y="395" type="line" smooth="yes"/>
      <point x="108" y="452"/>
      <point x="153" y="479"/>
      <point x="198" y="479" type="curve" smooth="yes"/>
      <point x="319" y="479" type="line"/>
    </contour>
  </outline>
</glyph>
<glyph name="nje-cy" format="2">
  <advance width="571"/>
  <unicode hex="045A"/>
  <note>
uni045A
</note>
  <outline>
    <contour>
      <point x="253" y="0" type="line"/>
      <point x="377" y="0" type="line" smooth="yes"/>
      <point x="490" y="0"/>
      <point x="506" y="69"/>
      <point x="515" y="131" type="curve" smooth="yes"/>
      <point x="525" y="207" type="line" smooth="yes"/>
      <point x="527" y="222"/>
      <point x="529" y="237"/>
      <point x="529" y="252" type="curve" smooth="yes"/>
      <point x="529" y="298"/>
      <point x="511" y="338"/>
      <point x="425" y="338" type="curve" smooth="yes"/>
      <point x="316" y="338" type="line"/>
      <point x="338" y="495" type="line"/>
      <point x="323" y="495" type="line"/>
    </contour>
    <contour>
      <point x="33" y="0" type="line"/>
      <point x="49" y="0" type="line"/>
      <point x="119" y="495" type="line"/>
      <point x="103" y="495" type="line"/>
    </contour>
    <contour>
      <point x="74" y="243" type="line"/>
      <point x="295" y="243" type="line"/>
      <point x="298" y="259" type="line"/>
      <point x="77" y="259" type="line"/>
    </contour>
    <contour>
      <point x="375" y="15" type="curve" smooth="yes"/>
      <point x="270" y="15" type="line"/>
      <point x="314" y="323" type="line"/>
      <point x="419" y="323" type="line" smooth="yes"/>
      <point x="497" y="323"/>
      <point x="514" y="289"/>
      <point x="514" y="246" type="curve" smooth="yes"/>
      <point x="514" y="233"/>
      <point x="512" y="218"/>
      <point x="510" y="204" type="curve" smooth="yes"/>
      <point x="500" y="134" type="line" smooth="yes"/>
      <point x="492" y="75"/>
      <point x="478" y="15"/>
    </contour>
  </outline>
</glyph>
<glyph name="tshe-cy" format="2">
  <advance width="374"/>
  <unicode hex="045B"/>
  <note>
uni045B
</note>
  <outline>
    <contour>
      <point x="34" y="0" type="line"/>
      <point x="50" y="0" type="line"/>
      <point x="95" y="323" type="line"/>
      <point x="108" y="380"/>
      <point x="145" y="421"/>
      <point x="218" y="421" type="curve" smooth="yes"/>
      <point x="291" y="421"/>
      <point x="308" y="386"/>
      <point x="308" y="344" type="curve" smooth="yes"/>
      <point x="308" y="329"/>
      <point x="305" y="313"/>
      <point x="303" y="297" type="curve" smooth="yes"/>
      <point x="262" y="0" type="line"/>
      <point x="278" y="0" type="line"/>
      <point x="321" y="306" type="line" smooth="yes"/>
      <point x="323" y="320"/>
      <point x="325" y="335"/>
      <point x="325" y="349" type="curve" smooth="yes"/>
      <point x="325" y="396"/>
      <point x="307" y="437"/>
      <point x="220" y="437" type="curve" smooth="yes"/>
      <point x="157" y="437"/>
      <point x="122" y="410"/>
      <point x="103" y="379" type="curve"/>
      <point x="124" y="532" type="line"/>
      <point x="240" y="532" type="line"/>
      <point x="243" y="548" type="line"/>
      <point x="60" y="548" type="line"/>
      <point x="57" y="532" type="line"/>
      <point x="108" y="532" type="line"/>
    </contour>
    <contour>
      <point x="109" y="535" type="line"/>
      <point x="125" y="535" type="line"/>
      <point x="138" y="630" type="line"/>
      <point x="122" y="630" type="line"/>
    </contour>
  </outline>
</glyph>
<glyph name="dzhe-cy" format="2">
  <advance width="377"/>
  <unicode hex="045F"/>
  <note>
uni045F
</note>
  <outline>
    <contour>
      <point x="33" y="0" type="line"/>
      <point x="274" y="0" type="line"/>
      <point x="344" y="495" type="line"/>
      <point x="328" y="495" type="line"/>
      <point x="260" y="16" type="line"/>
      <point x="51" y="16" type="line"/>
      <point x="119" y="495" type="line"/>
      <point x="103" y="495" type="line"/>
    </contour>
    <contour>
      <point x="131" y="-113" type="line"/>
      <point x="147" y="-113" type="line"/>
      <point x="164" y="5" type="line"/>
      <point x="148" y="5" type="line"/>
    </contour>
  </outline>
</glyph>
<glyph name="Yat-cy" format="2">
  <advance width="381"/>
  <unicode hex="0462"/>
  <outline>
    <contour>
      <point x="44" y="0" type="line"/>
      <point x="168" y="0" type="line" smooth="yes"/>
      <point x="281" y="0"/>
      <point x="297" y="69"/>
      <point x="306" y="131" type="curve" smooth="yes"/>
      <point x="330" y="304" type="line" smooth="yes"/>
      <point x="332" y="319"/>
      <point x="334" y="334"/>
      <point x="334" y="349" type="curve" smooth="yes"/>
      <point x="334" y="395"/>
      <point x="316" y="435"/>
      <point x="230" y="435" type="curve" smooth="yes"/>
      <point x="121" y="435" type="line"/>
      <point x="142" y="588" type="line"/>
      <point x="127" y="588" type="line"/>
    </contour>
    <contour>
      <point x="43" y="0" type="line"/>
      <point x="59" y="0" type="line"/>
      <point x="143" y="591" type="line"/>
      <point x="127" y="591" type="line"/>
    </contour>
    <contour>
      <point x="167" y="15" type="curve" smooth="yes"/>
      <point x="62" y="15" type="line"/>
      <point x="118" y="420" type="line"/>
      <point x="223" y="420" type="line" smooth="yes"/>
      <point x="302" y="420"/>
      <point x="319" y="385"/>
      <point x="319" y="342" type="curve" smooth="yes"/>
      <point x="319" y="329"/>
      <point x="317" y="315"/>
      <point x="315" y="301" type="curve" smooth="yes"/>
      <point x="291" y="134" type="line" smooth="yes"/>
      <point x="283" y="75"/>
      <point x="270" y="15"/>
    </contour>
    <contour>
      <point x="59" y="522" type="line"/>
      <point x="238" y="522" type="line"/>
      <point x="241" y="538" type="line"/>
      <point x="62" y="538" type="line"/>
    </contour>
  </outline>
</glyph>
<glyph name="yat-cy" format="2">
  <advance width="351"/>
  <unicode hex="0463"/>
  <outline>
    <contour>
      <point x="33" y="0" type="line"/>
      <point x="157" y="0" type="line" smooth="yes"/>
      <point x="270" y="0"/>
      <point x="287" y="69"/>
      <point x="295" y="131" type="curve" smooth="yes"/>
      <point x="305" y="207" type="line" smooth="yes"/>
      <point x="307" y="222"/>
      <point x="309" y="237"/>
      <point x="309" y="252" type="curve" smooth="yes"/>
      <point x="309" y="298"/>
      <point x="291" y="338"/>
      <point x="205" y="338" type="curve" smooth="yes"/>
      <point x="96" y="338" type="line"/>
      <point x="118" y="495" type="line"/>
      <point x="103" y="495" type="line"/>
    </contour>
    <contour>
      <point x="155" y="15" type="curve" smooth="yes"/>
      <point x="50" y="15" type="line"/>
      <point x="94" y="323" type="line"/>
      <point x="199" y="323" type="line" smooth="yes"/>
      <point x="277" y="323"/>
      <point x="294" y="289"/>
      <point x="294" y="246" type="curve" smooth="yes"/>
      <point x="294" y="233"/>
      <point x="292" y="218"/>
      <point x="290" y="204" type="curve" smooth="yes"/>
      <point x="280" y="134" type="line" smooth="yes"/>
      <point x="272" y="75"/>
      <point x="258" y="15"/>
    </contour>
    <contour>
      <point x="32" y="401" type="line"/>
      <point x="213" y="401" type="line"/>
      <point x="215" y="416" type="line"/>
      <point x="34" y="416" type="line"/>
    </contour>
  </outline>
</glyph>
<glyph name="Yusbig-cy" format="2">
  <advance width="662"/>
  <unicode hex="046A"/>
  <outline>
    <contour>
      <point x="6" y="0" type="line"/>
      <point x="23" y="0" type="line"/>
      <point x="119" y="223" type="line" smooth="yes"/>
      <point x="137" y="265"/>
      <point x="160" y="309"/>
      <point x="227" y="309" type="curve" smooth="yes"/>
      <point x="327" y="309" type="line"/>
      <point x="283" y="0" type="line"/>
      <point x="299" y="0" type="line"/>
      <point x="343" y="309" type="line"/>
      <point x="444" y="309" type="line" smooth="yes"/>
      <point x="511" y="309"/>
      <point x="522" y="265"/>
      <point x="528" y="223" type="curve" smooth="yes"/>
      <point x="560" y="0" type="line"/>
      <point x="577" y="0" type="line"/>
      <point x="544" y="226" type="line" smooth="yes"/>
      <point x="536" y="280"/>
      <point x="523" y="325"/>
      <point x="442" y="325" type="curve" smooth="yes"/>
      <point x="352" y="325" type="line"/>
      <point x="680" y="576" type="line"/>
      <point x="683" y="591" type="line"/>
      <point x="76" y="591" type="line"/>
      <point x="73" y="576" type="line"/>
      <point x="323" y="325" type="line"/>
      <point x="223" y="325" type="line" smooth="yes"/>
      <point x="152" y="325"/>
      <point x="124" y="274"/>
      <point x="103" y="226" type="curve" smooth="yes"/>
    </contour>
    <contour>
      <point x="339" y="332" type="line"/>
      <point x="98" y="575" type="line"/>
      <point x="654" y="575" type="line"/>
    </contour>
  </outline>
</glyph>
<glyph name="Germandbls" format="2">
  <advance width="389"/>
  <unicode hex="1E9E"/>
  <outline>
    <contour>
      <point x="33" y="-59" type="line"/>
      <point x="49" y="-59" type="line"/>
      <point x="130" y="519" type="line" smooth="yes"/>
      <point x="135" y="552"/>
      <point x="135" y="577"/>
      <point x="243" y="577" type="curve" smooth="yes"/>
      <point x="307" y="577"/>
      <point x="337" y="558"/>
      <point x="337" y="511" type="curve" smooth="yes"/>
      <point x="337" y="505"/>
      <point x="336" y="498"/>
      <point x="335" y="491" type="curve" smooth="yes"/>
      <point x="329" y="448" type="line" smooth="yes"/>
      <point x="321" y="385"/>
      <point x="295" y="346"/>
      <point x="224" y="346" type="curve" smooth="yes"/>
      <point x="170" y="346" type="line"/>
      <point x="168" y="333" type="line"/>
      <point x="211" y="333" type="line" smooth="yes"/>
      <point x="266" y="333"/>
      <point x="313" y="315"/>
      <point x="313" y="254" type="curve" smooth="yes"/>
      <point x="313" y="249"/>
      <point x="313" y="242"/>
      <point x="312" y="236" type="curve" smooth="yes"/>
      <point x="296" y="123" type="line" smooth="yes"/>
      <point x="283" y="31"/>
      <point x="240" y="15"/>
      <point x="181" y="15" type="curve" smooth="yes"/>
      <point x="104" y="15" type="line"/>
      <point x="101" y="0" type="line"/>
      <point x="178" y="0" type="line" smooth="yes"/>
      <point x="243" y="0"/>
      <point x="295" y="15"/>
      <point x="309" y="119" type="curve" smooth="yes"/>
      <point x="327" y="244" type="line" smooth="yes"/>
      <point x="328" y="249"/>
      <point x="328" y="255"/>
      <point x="328" y="260" type="curve" smooth="yes"/>
      <point x="328" y="306"/>
      <point x="296" y="335"/>
      <point x="255" y="340" type="curve"/>
      <point x="299" y="344"/>
      <point x="336" y="385"/>
      <point x="343" y="441" type="curve" smooth="yes"/>
      <point x="351" y="498" type="line" smooth="yes"/>
      <point x="352" y="506"/>
      <point x="353" y="513"/>
      <point x="353" y="519" type="curve" smooth="yes"/>
      <point x="353" y="575"/>
      <point x="312" y="593"/>
      <point x="245" y="593" type="curve" smooth="yes"/>
      <point x="138" y="593"/>
      <point x="122" y="573"/>
      <point x="116" y="527" type="curve" smooth="yes"/>
    </contour>
  </outline>
</glyph>
<glyph name="endash" format="2">
  <advance width="364"/>
  <unicode hex="2013"/>
  <note>
endash
</note>
  <outline>
    <contour>
      <point x="45" y="244" type="line"/>
      <point x="319" y="244" type="line"/>
      <point x="321" y="260" type="line"/>
      <point x="47" y="260" type="line"/>
    </contour>
  </outline>
</glyph>
<glyph name="quoteright" format="2">
  <advance width="132"/>
  <unicode hex="2019"/>
  <note>
quoteright
</note>
  <outline>
    <contour>
      <point x="73" y="480" type="curve"/>
      <point x="86" y="480" type="line"/>
      <point x="106" y="505"/>
      <point x="130" y="544"/>
      <point x="134" y="571" type="curve" smooth="yes"/>
      <point x="135" y="584"/>
      <point x="131" y="596"/>
      <point x="116" y="596" type="curve" smooth="yes"/>
      <point x="103" y="596"/>
      <point x="96" y="583"/>
      <point x="96" y="573" type="curve" smooth="yes"/>
      <point x="96" y="558"/>
      <point x="107" y="556"/>
      <point x="107" y="546" type="curve" smooth="yes"/>
      <point x="107" y="529"/>
      <point x="83" y="495"/>
    </contour>
  </outline>
</glyph>
<glyph name="bullet" format="2">
  <advance width="224"/>
  <unicode hex="2022"/>
  <note>
bullet
</note>
  <outline>
    <contour>
      <point x="108" y="223" type="curve" smooth="yes"/>
      <point x="147" y="223"/>
      <point x="180" y="256"/>
      <point x="180" y="295" type="curve" smooth="yes"/>
      <point x="180" y="325"/>
      <point x="157" y="347"/>
      <point x="127" y="347" type="curve" smooth="yes"/>
      <point x="88" y="347"/>
      <point x="55" y="316"/>
      <point x="55" y="277" type="curve" smooth="yes"/>
      <point x="55" y="245"/>
      <point x="77" y="223"/>
    </contour>
  </outline>
</glyph>
<glyph name="ellipsis" format="2">
  <advance width="342"/>
  <unicode hex="2026"/>
  <note>
ellipsis
</note>
  <outline>
    <contour>
      <point x="243" y="-3" type="curve" smooth="yes"/>
      <point x="254" y="-3"/>
      <point x="259" y="2"/>
      <point x="259" y="13" type="curve" smooth="yes"/>
      <point x="259" y="24"/>
      <point x="254" y="29"/>
      <point x="243" y="29" type="curve" smooth="yes"/>
      <point x="232" y="29"/>
      <point x="227" y="24"/>
      <point x="227" y="13" type="curve" smooth="yes"/>
      <point x="227" y="2"/>
      <point x="232" y="-3"/>
    </contour>
    <contour>
      <point x="33" y="-3" type="curve" smooth="yes"/>
      <point x="44" y="-3"/>
      <point x="49" y="2"/>
      <point x="49" y="13" type="curve" smooth="yes"/>
      <point x="49" y="24"/>
      <point x="44" y="29"/>
      <point x="33" y="29" type="curve" smooth="yes"/>
      <point x="22" y="29"/>
      <point x="17" y="24"/>
      <point x="17" y="13" type="curve" smooth="yes"/>
      <point x="17" y="2"/>
      <point x="22" y="-3"/>
    </contour>
    <contour>
      <point x="138" y="-3" type="curve" smooth="yes"/>
      <point x="149" y="-3"/>
      <point x="154" y="2"/>
      <point x="154" y="13" type="curve" smooth="yes"/>
      <point x="154" y="24"/>
      <point x="149" y="29"/>
      <point x="138" y="29" type="curve" smooth="yes"/>
      <point x="127" y="29"/>
      <point x="122" y="24"/>
      <point x="122" y="13" type="curve" smooth="yes"/>
      <point x="122" y="2"/>
      <point x="127" y="-3"/>
    </contour>
  </outline>
</glyph>
<glyph name="second" format="2">
  <advance width="192"/>
  <unicode hex="2033"/>
  <outline>
    <contour>
      <point x="146" y="496" type="line"/>
      <point x="153" y="496" type="line"/>
      <point x="215" y="619" type="line"/>
      <point x="196" y="619" type="line"/>
    </contour>
    <contour>
      <point x="65" y="496" type="line"/>
      <point x="72" y="496" type="line"/>
      <point x="134" y="619" type="line"/>
      <point x="115" y="619" type="line"/>
    </contour>
  </outline>
</glyph>
<glyph name="guilsinglleft" format="2">
  <advance width="234"/>
  <unicode hex="2039"/>
  <note>
guilsinglleft
</note>
  <outline>
    <contour>
      <point x="144" y="75" type="line"/>
      <point x="158" y="75" type="line"/>
      <point x="68" y="244" type="line"/>
      <point x="220" y="428" type="line"/>
      <point x="206" y="428" type="line"/>
      <point x="50" y="244" type="line"/>
    </contour>
  </outline>
</glyph>
<glyph name="guilsinglright" format="2">
  <advance width="234"/>
  <unicode hex="203A"/>
  <note>
guilsinglright
</note>
  <outline>
    <contour>
      <point x="27" y="75" type="line"/>
      <point x="41" y="75" type="line"/>
      <point x="183" y="244" type="line"/>
      <point x="79" y="428" type="line"/>
      <point x="65" y="428" type="line"/>
      <point x="165" y="244" type="line"/>
    </contour>
  </outline>
</glyph>
<glyph name="fraction" format="2">
  <advance width="238"/>
  <unicode hex="2044"/>
  <note>
fraction
</note>
  <outline>
    <contour>
      <point x="-85" y="0" type="line"/>
      <point x="-68" y="0" type="line"/>
      <point x="335" y="585" type="line"/>
      <point x="316" y="585" type="line"/>
    </contour>
  </outline>
</glyph>
<glyph name="lira" format="2">
  <advance width="397"/>
  <unicode hex="20A4"/>
  <note>
lira
</note>
  <outline>
    <contour>
      <point x="234" y="-2" type="curve" smooth="yes"/>
      <point x="299" y="-2"/>
      <point x="321" y="35"/>
      <point x="329" y="91" type="curve" smooth="yes"/>
      <point x="335" y="136" type="line"/>
      <point x="319" y="136" type="line"/>
      <point x="312" y="81" type="line" smooth="yes"/>
      <point x="305" y="32"/>
      <point x="280" y="14"/>
      <point x="238" y="14" type="curve" smooth="yes"/>
      <point x="215" y="14"/>
      <point x="194" y="18"/>
      <point x="175" y="21" type="curve" smooth="yes"/>
      <point x="145" y="25"/>
      <point x="121" y="29"/>
      <point x="94" y="29" type="curve" smooth="yes"/>
      <point x="79" y="29"/>
      <point x="61" y="28"/>
      <point x="53" y="26" type="curve"/>
      <point x="92" y="73"/>
      <point x="124" y="124"/>
      <point x="142" y="175" type="curve"/>
      <point x="228" y="175" type="line"/>
      <point x="230" y="191" type="line"/>
      <point x="148" y="191" type="line"/>
      <point x="157" y="219"/>
      <point x="161" y="247"/>
      <point x="162" y="275" type="curve"/>
      <point x="242" y="275" type="line"/>
      <point x="244" y="291" type="line"/>
      <point x="161" y="291" type="line"/>
      <point x="160" y="307"/>
      <point x="157" y="323"/>
      <point x="153" y="338" type="curve" smooth="yes"/>
      <point x="146" y="361"/>
      <point x="126" y="413"/>
      <point x="126" y="459" type="curve" smooth="yes"/>
      <point x="126" y="465"/>
      <point x="126" y="471"/>
      <point x="127" y="477" type="curve" smooth="yes"/>
      <point x="137" y="547"/>
      <point x="191" y="579"/>
      <point x="264" y="579" type="curve" smooth="yes"/>
      <point x="320" y="579"/>
      <point x="369" y="557"/>
      <point x="369" y="496" type="curve" smooth="yes"/>
      <point x="369" y="490"/>
      <point x="369" y="484"/>
      <point x="368" y="477" type="curve" smooth="yes"/>
      <point x="365" y="450" type="line"/>
      <point x="381" y="450" type="line"/>
      <point x="385" y="482" type="line" smooth="yes"/>
      <point x="386" y="489"/>
      <point x="386" y="495"/>
      <point x="386" y="502" type="curve" smooth="yes"/>
      <point x="386" y="561"/>
      <point x="344" y="595"/>
      <point x="269" y="595" type="curve" smooth="yes"/>
      <point x="165" y="595"/>
      <point x="110" y="546"/>
      <point x="110" y="448" type="curve" smooth="yes"/>
      <point x="110" y="387"/>
      <point x="140" y="350"/>
      <point x="144" y="291" type="curve"/>
      <point x="67" y="291" type="line"/>
      <point x="65" y="275" type="line"/>
      <point x="144" y="275" type="line"/>
      <point x="144" y="265"/>
      <point x="144" y="254"/>
      <point x="142" y="243" type="curve" smooth="yes"/>
      <point x="140" y="226"/>
      <point x="136" y="208"/>
      <point x="130" y="191" type="curve"/>
      <point x="53" y="191" type="line"/>
      <point x="51" y="175" type="line"/>
      <point x="125" y="175" type="line"/>
      <point x="99" y="107"/>
      <point x="54" y="43"/>
      <point x="17" y="14" type="curve"/>
      <point x="16" y="3" type="line"/>
      <point x="36" y="10"/>
      <point x="60" y="13"/>
      <point x="87" y="13" type="curve" smooth="yes"/>
      <point x="118" y="13"/>
      <point x="147" y="9"/>
      <point x="174" y="5" type="curve" smooth="yes"/>
      <point x="193" y="2"/>
      <point x="214" y="-2"/>
    </contour>
  </outline>
</glyph>
<glyph name="naira" format="2">
  <advance width="445"/>
  <unicode hex="20A6"/>
  <outline>
    <contour>
      <point x="45" y="0" type="line"/>
      <point x="61" y="0" type="line"/>
      <point x="94" y="234" type="line"/>
      <point x="238" y="234" type="line"/>
      <point x="306" y="0" type="line"/>
      <point x="327" y="0" type="line"/>
      <point x="360" y="234" type="line"/>
      <point x="403" y="234" type="line"/>
      <point x="406" y="250" type="line"/>
      <point x="363" y="250" type="line"/>
      <point x="377" y="354" type="line"/>
      <point x="420" y="354" type="line"/>
      <point x="422" y="370" type="line"/>
      <point x="379" y="370" type="line"/>
      <point x="411" y="591" type="line"/>
      <point x="395" y="591" type="line"/>
      <point x="363" y="370" type="line"/>
      <point x="215" y="370" type="line"/>
      <point x="151" y="591" type="line"/>
      <point x="129" y="591" type="line"/>
      <point x="97" y="370" type="line"/>
      <point x="57" y="370" type="line"/>
      <point x="55" y="354" type="line"/>
      <point x="95" y="354" type="line"/>
      <point x="81" y="250" type="line"/>
      <point x="41" y="250" type="line"/>
      <point x="38" y="234" type="line"/>
      <point x="78" y="234" type="line"/>
    </contour>
    <contour>
      <point x="316" y="29" type="line"/>
      <point x="255" y="234" type="line"/>
      <point x="344" y="234" type="line"/>
    </contour>
    <contour>
      <point x="234" y="250" type="line"/>
      <point x="97" y="250" type="line"/>
      <point x="111" y="354" type="line"/>
      <point x="202" y="354" type="line"/>
    </contour>
    <contour>
      <point x="347" y="250" type="line"/>
      <point x="251" y="250" type="line"/>
      <point x="220" y="354" type="line"/>
      <point x="361" y="354" type="line"/>
    </contour>
    <contour>
      <point x="198" y="370" type="line"/>
      <point x="113" y="370" type="line"/>
      <point x="141" y="565" type="line"/>
    </contour>
  </outline>
</glyph>
<glyph name="won" format="2">
  <advance width="571"/>
  <unicode hex="20A9"/>
  <outline>
    <contour>
      <point x="109" y="0" type="line"/>
      <point x="126" y="0" type="line"/>
      <point x="320" y="553" type="line"/>
      <point x="355" y="0" type="line"/>
      <point x="374" y="0" type="line"/>
      <point x="560" y="591" type="line"/>
      <point x="544" y="591" type="line"/>
      <point x="369" y="35" type="line"/>
      <point x="334" y="591" type="line"/>
      <point x="317" y="591" type="line"/>
      <point x="125" y="45" type="line"/>
      <point x="109" y="591" type="line"/>
      <point x="93" y="591" type="line"/>
    </contour>
    <contour>
      <point x="32" y="254" type="line"/>
      <point x="523" y="254" type="line"/>
      <point x="525" y="270" type="line"/>
      <point x="34" y="270" type="line"/>
    </contour>
    <contour>
      <point x="52" y="374" type="line"/>
      <point x="543" y="374" type="line"/>
      <point x="545" y="390" type="line"/>
      <point x="54" y="390" type="line"/>
    </contour>
  </outline>
</glyph>
<glyph name="dong" format="2">
  <advance width="369"/>
  <unicode hex="20AB"/>
  <note>
dong
</note>
  <outline>
    <contour>
      <point x="148" y="-7" type="curve" smooth="yes"/>
      <point x="252" y="-7"/>
      <point x="271" y="48"/>
      <point x="282" y="124" type="curve" smooth="yes"/>
      <point x="355" y="630" type="line"/>
      <point x="339" y="630" type="line"/>
      <point x="314" y="462" type="line"/>
      <point x="309" y="476"/>
      <point x="283" y="503"/>
      <point x="220" y="503" type="curve" smooth="yes"/>
      <point x="118" y="503"/>
      <point x="90" y="447"/>
      <point x="79" y="372" type="curve" smooth="yes"/>
      <point x="42" y="124" type="line" smooth="yes"/>
      <point x="40" y="110"/>
      <point x="39" y="97"/>
      <point x="39" y="85" type="curve" smooth="yes"/>
      <point x="39" y="29"/>
      <point x="65" y="-7"/>
    </contour>
    <contour>
      <point x="54" y="-52" type="line"/>
      <point x="214" y="-52" type="line"/>
      <point x="217" y="-36" type="line"/>
      <point x="57" y="-36" type="line"/>
    </contour>
    <contour>
      <point x="150" y="9" type="curve" smooth="yes"/>
      <point x="75" y="9"/>
      <point x="57" y="40"/>
      <point x="57" y="88" type="curve" smooth="yes"/>
      <point x="57" y="106"/>
      <point x="59" y="125"/>
      <point x="62" y="146" type="curve" smooth="yes"/>
      <point x="92" y="354" type="line" smooth="yes"/>
      <point x="102" y="422"/>
      <point x="118" y="487"/>
      <point x="213" y="487" type="curve" smooth="yes"/>
      <point x="287" y="487"/>
      <point x="308" y="451"/>
      <point x="308" y="417" type="curve" smooth="yes"/>
      <point x="308" y="414"/>
      <point x="308" y="410"/>
      <point x="307" y="406" type="curve" smooth="yes"/>
      <point x="266" y="127" type="line" smooth="yes"/>
      <point x="254" y="48"/>
      <point x="229" y="9"/>
    </contour>
    <contour>
      <point x="215" y="546" type="line"/>
      <point x="386" y="546" type="line"/>
      <point x="388" y="561" type="line"/>
      <point x="217" y="561" type="line"/>
    </contour>
  </outline>
</glyph>
<glyph name="kip" format="2">
  <advance width="353"/>
  <unicode hex="20AD"/>
  <outline>
    <contour>
      <point x="269" y="0" type="line"/>
      <point x="288" y="0" type="line"/>
      <point x="146" y="306" type="line"/>
      <point x="368" y="591" type="line"/>
      <point x="349" y="591" type="line"/>
      <point x="128" y="306" type="line"/>
    </contour>
    <contour>
      <point x="41" y="0" type="line"/>
      <point x="57" y="0" type="line"/>
      <point x="141" y="591" type="line"/>
      <point x="125" y="591" type="line"/>
    </contour>
    <contour>
      <point x="47" y="294" type="line"/>
      <point x="321" y="294" type="line"/>
      <point x="323" y="310" type="line"/>
      <point x="49" y="310" type="line"/>
    </contour>
  </outline>
</glyph>
<glyph name="guarani" format="2">
  <advance width="409"/>
  <unicode hex="20B2"/>
  <outline>
    <contour>
      <point x="152" y="-81" type="line"/>
      <point x="168" y="-81" type="line"/>
      <point x="178" y="-12" type="line"/>
      <point x="235" y="-9"/>
      <point x="286" y="29"/>
      <point x="302" y="63" type="curve"/>
      <point x="293" y="0" type="line"/>
      <point x="309" y="0" type="line"/>
      <point x="347" y="271" type="line"/>
      <point x="217" y="271" type="line"/>
      <point x="261" y="583" type="line"/>
      <point x="325" y="582"/>
      <point x="362" y="568"/>
      <point x="362" y="501" type="curve" smooth="yes"/>
      <point x="362" y="491"/>
      <point x="361" y="480"/>
      <point x="359" y="468" type="curve" smooth="yes"/>
      <point x="350" y="401" type="line"/>
      <point x="366" y="401" type="line"/>
      <point x="375" y="469" type="line" smooth="yes"/>
      <point x="377" y="483"/>
      <point x="378" y="496"/>
      <point x="378" y="507" type="curve" smooth="yes"/>
      <point x="378" y="585"/>
      <point x="331" y="598"/>
      <point x="263" y="599" type="curve"/>
      <point x="272" y="660" type="line"/>
      <point x="256" y="660" type="line"/>
      <point x="247" y="599" type="line"/>
      <point x="173" y="597"/>
      <point x="114" y="580"/>
      <point x="98" y="469" type="curve" smooth="yes"/>
      <point x="49" y="118" type="line" smooth="yes"/>
      <point x="47" y="105"/>
      <point x="46" y="94"/>
      <point x="46" y="84" type="curve" smooth="yes"/>
      <point x="46" y="4"/>
      <point x="98" y="-11"/>
      <point x="162" y="-12" type="curve"/>
    </contour>
    <contour>
      <point x="180" y="4" type="curve"/>
      <point x="215" y="256" type="line"/>
      <point x="329" y="256" type="line"/>
      <point x="311" y="125" type="line" smooth="yes"/>
      <point x="301" y="52"/>
      <point x="245" y="7"/>
    </contour>
    <contour>
      <point x="164" y="4" type="line"/>
      <point x="107" y="5"/>
      <point x="64" y="19"/>
      <point x="64" y="92" type="curve" smooth="yes"/>
      <point x="64" y="102"/>
      <point x="64" y="113"/>
      <point x="66" y="125" type="curve" smooth="yes"/>
      <point x="114" y="468" type="line" smooth="yes"/>
      <point x="127" y="562"/>
      <point x="173" y="582"/>
      <point x="245" y="583" type="curve"/>
    </contour>
  </outline>
</glyph>
<glyph name="rupeeIndian" format="2">
  <advance width="442"/>
  <unicode hex="20B9"/>
  <outline>
    <contour>
      <point x="287" y="0" type="line"/>
      <point x="306" y="0" type="line"/>
      <point x="269" y="224" type="line" smooth="yes"/>
      <point x="263" y="256"/>
      <point x="249" y="287"/>
      <point x="232" y="292" type="curve"/>
      <point x="281" y="296"/>
      <point x="337" y="328"/>
      <point x="348" y="411" type="curve" smooth="yes"/>
      <point x="351" y="428" type="line"/>
      <point x="423" y="428" type="line"/>
      <point x="425" y="444" type="line"/>
      <point x="353" y="444" type="line"/>
      <point x="360" y="494" type="line" smooth="yes"/>
      <point x="361" y="501"/>
      <point x="361" y="507"/>
      <point x="361" y="513" type="curve" smooth="yes"/>
      <point x="361" y="543"/>
      <point x="349" y="562"/>
      <point x="331" y="575" type="curve"/>
      <point x="443" y="575" type="line"/>
      <point x="446" y="591" type="line"/>
      <point x="99" y="591" type="line"/>
      <point x="96" y="575" type="line"/>
      <point x="268" y="575" type="line" smooth="yes"/>
      <point x="312" y="575"/>
      <point x="343" y="553"/>
      <point x="343" y="507" type="curve" smooth="yes"/>
      <point x="343" y="502"/>
      <point x="343" y="497"/>
      <point x="342" y="491" type="curve" smooth="yes"/>
      <point x="336" y="444" type="line"/>
      <point x="78" y="444" type="line"/>
      <point x="76" y="428" type="line"/>
      <point x="334" y="428" type="line"/>
      <point x="331" y="409" type="line" smooth="yes"/>
      <point x="320" y="331"/>
      <point x="265" y="303"/>
      <point x="197" y="303" type="curve" smooth="yes"/>
      <point x="88" y="303" type="line"/>
      <point x="86" y="287" type="line"/>
      <point x="195" y="287" type="line" smooth="yes"/>
      <point x="230" y="287"/>
      <point x="247" y="257"/>
      <point x="255" y="205" type="curve" smooth="yes"/>
    </contour>
  </outline>
</glyph>
<glyph name="ruble" format="2">
  <advance width="405"/>
  <unicode hex="20BD"/>
  <note>
ruble
</note>
  <outline>
    <contour>
      <point x="59" y="0" type="line"/>
      <point x="75" y="0" type="line"/>
      <point x="114" y="271" type="line"/>
      <point x="225" y="271" type="line" smooth="yes"/>
      <point x="347" y="271"/>
      <point x="379" y="313"/>
      <point x="394" y="418" type="curve" smooth="yes"/>
      <point x="405" y="494" type="line" smooth="yes"/>
      <point x="406" y="502"/>
      <point x="407" y="509"/>
      <point x="407" y="515" type="curve" smooth="yes"/>
      <point x="407" y="573"/>
      <point x="367" y="591"/>
      <point x="295" y="591" type="curve" smooth="yes"/>
      <point x="143" y="591" type="line"/>
    </contour>
    <contour>
      <point x="23" y="129" type="line"/>
      <point x="241" y="129" type="line"/>
      <point x="245" y="145" type="line"/>
      <point x="28" y="145" type="line"/>
    </contour>
    <contour>
      <point x="227" y="287" type="curve" smooth="yes"/>
      <point x="116" y="287" type="line"/>
      <point x="156" y="575" type="line"/>
      <point x="291" y="575" type="line" smooth="yes"/>
      <point x="362" y="575"/>
      <point x="389" y="558"/>
      <point x="389" y="505" type="curve" smooth="yes"/>
      <point x="389" y="495"/>
      <point x="388" y="484"/>
      <point x="386" y="471" type="curve" smooth="yes"/>
      <point x="378" y="417" type="line" smooth="yes"/>
      <point x="364" y="320"/>
      <point x="336" y="287"/>
    </contour>
  </outline>
</glyph>
<glyph name="trademark" format="2">
  <advance width="493"/>
  <unicode hex="2122"/>
  <note>
trademark
</note>
  <outline>
    <contour>
      <point x="194" y="279" type="line"/>
      <point x="210" y="279" type="line"/>
      <point x="247" y="543" type="line"/>
      <point x="300" y="279" type="line"/>
      <point x="316" y="279" type="line"/>
      <point x="442" y="543" type="line"/>
      <point x="405" y="279" type="line"/>
      <point x="421" y="279" type="line"/>
      <point x="465" y="591" type="line"/>
      <point x="449" y="591" type="line"/>
      <point x="312" y="302" type="line"/>
      <point x="254" y="591" type="line"/>
      <point x="238" y="591" type="line"/>
    </contour>
    <contour>
      <point x="76" y="279" type="line"/>
      <point x="92" y="279" type="line"/>
      <point x="134" y="577" type="line"/>
      <point x="194" y="577" type="line"/>
      <point x="196" y="591" type="line"/>
      <point x="60" y="591" type="line"/>
      <point x="58" y="577" type="line"/>
      <point x="118" y="577" type="line"/>
    </contour>
  </outline>
</glyph>
<glyph name="estimated" format="2">
  <advance width="543"/>
  <unicode hex="212E"/>
  <note>
estimated
</note>
  <outline>
    <contour>
      <point x="235" y="-8" type="curve" smooth="yes"/>
      <point x="368" y="-8"/>
      <point x="436" y="63"/>
      <point x="471" y="120" type="curve"/>
      <point x="458" y="120" type="line"/>
      <point x="406" y="52"/>
      <point x="347" y="5"/>
      <point x="236" y="5" type="curve" smooth="yes"/>
      <point x="156" y="5"/>
      <point x="74" y="54"/>
      <point x="82" y="107" type="curve" smooth="yes"/>
      <point x="100" y="233" type="line"/>
      <point x="103" y="237" type="line"/>
      <point x="491" y="237" type="line"/>
      <point x="495" y="266"/>
      <point x="497" y="293"/>
      <point x="497" y="317" type="curve" smooth="yes"/>
      <point x="497" y="427"/>
      <point x="455" y="495"/>
      <point x="305" y="495" type="curve" smooth="yes"/>
      <point x="134" y="495"/>
      <point x="68" y="382"/>
      <point x="49" y="243" type="curve" smooth="yes"/>
      <point x="46" y="222"/>
      <point x="44" y="202"/>
      <point x="44" y="183" type="curve" smooth="yes"/>
      <point x="44" y="72"/>
      <point x="96" y="-8"/>
    </contour>
    <contour>
      <point x="440" y="251" type="line"/>
      <point x="105" y="251" type="line"/>
      <point x="103" y="255" type="line"/>
      <point x="120" y="382" type="line" smooth="yes"/>
      <point x="129" y="440"/>
      <point x="219" y="483"/>
      <point x="304" y="483" type="curve" smooth="yes"/>
      <point x="395" y="483"/>
      <point x="468" y="441"/>
      <point x="460" y="383" type="curve" smooth="yes"/>
      <point x="442" y="255" type="line"/>
    </contour>
  </outline>
</glyph>
<glyph name="leftArrow" format="2">
  <advance width="797"/>
  <unicode hex="2190"/>
  <outline>
    <contour>
      <point x="259" y="89" type="line"/>
      <point x="270" y="101" type="line"/>
      <point x="89" y="284" type="line"/>
      <point x="753" y="284" type="line"/>
      <point x="753" y="300" type="line"/>
      <point x="89" y="300" type="line"/>
      <point x="275" y="482" type="line"/>
      <point x="263" y="494" type="line"/>
      <point x="56" y="291" type="line"/>
    </contour>
  </outline>
</glyph>
<glyph name="rightArrow" format="2">
  <advance width="797"/>
  <unicode hex="2192"/>
  <outline>
    <contour>
      <point x="551" y="89" type="line"/>
      <point x="754" y="291" type="line"/>
      <point x="547" y="494" type="line"/>
      <point x="535" y="482" type="line"/>
      <point x="721" y="300" type="line"/>
      <point x="57" y="300" type="line"/>
      <point x="57" y="284" type="line"/>
      <point x="721" y="284" type="line"/>
      <point x="540" y="101" type="line"/>
    </contour>
  </outline>
</glyph>
<glyph name="downArrow" format="2">
  <advance width="505"/>
  <unicode hex="2193"/>
  <outline>
    <contour>
      <point x="216" y="-9" type="line"/>
      <point x="447" y="193" type="line"/>
      <point x="437" y="204" type="line"/>
      <point x="229" y="23" type="line"/>
      <point x="322" y="687" type="line"/>
      <point x="306" y="687" type="line"/>
      <point x="213" y="23" type="line"/>
      <point x="57" y="209" type="line"/>
      <point x="43" y="197" type="line"/>
    </contour>
  </outline>
</glyph>
<glyph name="leftRightArrow" format="2">
  <advance width="944"/>
  <unicode hex="2194"/>
  <outline>
    <contour>
      <point x="256" y="53" type="line"/>
      <point x="264" y="62" type="line"/>
      <point x="75" y="248" type="line"/>
      <point x="871" y="248" type="line"/>
      <point x="682" y="62" type="line"/>
      <point x="690" y="53" type="line"/>
      <point x="895" y="254" type="line"/>
      <point x="689" y="456" type="line"/>
      <point x="682" y="448" type="line"/>
      <point x="871" y="260" type="line"/>
      <point x="75" y="260" type="line"/>
      <point x="264" y="448" type="line"/>
      <point x="257" y="456" type="line"/>
      <point x="51" y="254" type="line"/>
    </contour>
  </outline>
</glyph>
<glyph name="upDownArrow" format="2">
  <advance width="506"/>
  <unicode hex="2195"/>
  <outline>
    <contour>
      <point x="200" y="-134" type="line"/>
      <point x="431" y="68" type="line"/>
      <point x="421" y="81" type="line"/>
      <point x="212" y="-103" type="line"/>
      <point x="322" y="679" type="line"/>
      <point x="479" y="495" type="line"/>
      <point x="493" y="508" type="line"/>
      <point x="318" y="710" type="line"/>
      <point x="86" y="503" type="line"/>
      <point x="96" y="492" type="line"/>
      <point x="306" y="679" type="line"/>
      <point x="196" y="-103" type="line"/>
      <point x="38" y="84" type="line"/>
      <point x="26" y="73" type="line"/>
    </contour>
  </outline>
</glyph>
<glyph name="partialdiff" format="2">
  <advance width="357"/>
  <unicode hex="2202"/>
  <note>
partialdiff
</note>
  <outline>
    <contour>
      <point x="143" y="-7" type="curve" smooth="yes"/>
      <point x="241" y="-7"/>
      <point x="270" y="43"/>
      <point x="281" y="123" type="curve" smooth="yes"/>
      <point x="326" y="443" type="line" smooth="yes"/>
      <point x="332" y="487"/>
      <point x="338" y="527"/>
      <point x="338" y="561" type="curve" smooth="yes"/>
      <point x="338" y="623"/>
      <point x="318" y="663"/>
      <point x="246" y="663" type="curve" smooth="yes"/>
      <point x="211" y="663"/>
      <point x="169" y="650"/>
      <point x="159" y="646" type="curve"/>
      <point x="156" y="630" type="line"/>
      <point x="165" y="633"/>
      <point x="212" y="647"/>
      <point x="243" y="647" type="curve" smooth="yes"/>
      <point x="304" y="647"/>
      <point x="321" y="614"/>
      <point x="321" y="558" type="curve" smooth="yes"/>
      <point x="321" y="531"/>
      <point x="317" y="499"/>
      <point x="312" y="463" type="curve"/>
      <point x="301" y="481"/>
      <point x="270" y="503"/>
      <point x="215" y="503" type="curve" smooth="yes"/>
      <point x="102" y="503"/>
      <point x="86" y="433"/>
      <point x="77" y="372" type="curve" smooth="yes"/>
      <point x="42" y="124" type="line" smooth="yes"/>
      <point x="40" y="110"/>
      <point x="38" y="95"/>
      <point x="38" y="80" type="curve" smooth="yes"/>
      <point x="38" y="34"/>
      <point x="56" y="-7"/>
    </contour>
    <contour>
      <point x="145" y="9" type="curve" smooth="yes"/>
      <point x="72" y="9"/>
      <point x="55" y="42"/>
      <point x="55" y="83" type="curve" smooth="yes"/>
      <point x="55" y="97"/>
      <point x="57" y="112"/>
      <point x="59" y="127" type="curve" smooth="yes"/>
      <point x="93" y="369" type="line" smooth="yes"/>
      <point x="101" y="428"/>
      <point x="114" y="487"/>
      <point x="212" y="487" type="curve" smooth="yes"/>
      <point x="282" y="487"/>
      <point x="305" y="448"/>
      <point x="308" y="431" type="curve"/>
      <point x="266" y="127" type="line" smooth="yes"/>
      <point x="258" y="71"/>
      <point x="249" y="9"/>
    </contour>
  </outline>
</glyph>
<glyph name="product" format="2">
  <advance width="651"/>
  <unicode hex="220F"/>
  <note>
product
</note>
  <outline>
    <contour>
      <point x="145" y="-70" type="line"/>
      <point x="161" y="-70" type="line"/>
      <point x="245" y="529" type="line"/>
      <point x="494" y="529" type="line"/>
      <point x="410" y="-70" type="line"/>
      <point x="426" y="-70" type="line"/>
      <point x="510" y="529" type="line"/>
      <point x="661" y="529" type="line"/>
      <point x="663" y="545" type="line"/>
      <point x="72" y="545" type="line"/>
      <point x="70" y="529" type="line"/>
      <point x="229" y="529" type="line"/>
    </contour>
  </outline>
</glyph>
<glyph name="summation" format="2">
  <advance width="337"/>
  <unicode hex="2211"/>
  <note>
summation
</note>
  <outline>
    <contour>
      <point x="3" y="-85" type="line"/>
      <point x="240" y="-85" type="line"/>
      <point x="242" y="-69" type="line"/>
      <point x="28" y="-69" type="line"/>
      <point x="259" y="255" type="line"/>
      <point x="127" y="569" type="line"/>
      <point x="332" y="569" type="line"/>
      <point x="334" y="585" type="line"/>
      <point x="107" y="585" type="line"/>
      <point x="106" y="577" type="line"/>
      <point x="240" y="255" type="line"/>
      <point x="4" y="-78" type="line"/>
    </contour>
  </outline>
</glyph>
<glyph name="radical" format="2">
  <advance width="570"/>
  <unicode hex="221A"/>
  <note>
radical
</note>
  <outline>
    <contour>
      <point x="223" y="-76" type="line"/>
      <point x="243" y="-76" type="line"/>
      <point x="571" y="612" type="line"/>
      <point x="553" y="612" type="line"/>
      <point x="236" y="-56" type="line"/>
      <point x="190" y="345" type="line"/>
      <point x="55" y="284" type="line"/>
      <point x="53" y="268" type="line"/>
      <point x="176" y="322" type="line"/>
    </contour>
  </outline>
</glyph>
<glyph name="integral" format="2">
  <advance width="216"/>
  <unicode hex="222B"/>
  <note>
integral
</note>
  <outline>
    <contour>
      <point x="-34" y="-286" type="curve" smooth="yes"/>
      <point x="18" y="-286"/>
      <point x="46" y="-253"/>
      <point x="54" y="-197" type="curve" smooth="yes"/>
      <point x="159" y="552" type="line" smooth="yes"/>
      <point x="164" y="587"/>
      <point x="175" y="621"/>
      <point x="222" y="621" type="curve" smooth="yes"/>
      <point x="239" y="621"/>
      <point x="254" y="620"/>
      <point x="264" y="619" type="curve" smooth="yes"/>
      <point x="281" y="617" type="line"/>
      <point x="283" y="632" type="line"/>
      <point x="271" y="635"/>
      <point x="250" y="636"/>
      <point x="225" y="636" type="curve" smooth="yes"/>
      <point x="173" y="636"/>
      <point x="150" y="603"/>
      <point x="142" y="547" type="curve" smooth="yes"/>
      <point x="37" y="-202" type="line" smooth="yes"/>
      <point x="32" y="-237"/>
      <point x="16" y="-270"/>
      <point x="-31" y="-270" type="curve" smooth="yes"/>
      <point x="-51" y="-270"/>
      <point x="-64" y="-269"/>
      <point x="-90" y="-266" type="curve"/>
      <point x="-92" y="-282" type="line"/>
      <point x="-79" y="-283"/>
      <point x="-59" y="-286"/>
    </contour>
  </outline>
</glyph>
<glyph name="notequal" format="2">
  <advance width="383"/>
  <unicode hex="2260"/>
  <note>
notequal
</note>
  <outline>
    <contour>
      <point x="15" y="0" type="line"/>
      <point x="32" y="0" type="line"/>
      <point x="147" y="177" type="line"/>
      <point x="321" y="177" type="line"/>
      <point x="324" y="193" type="line"/>
      <point x="159" y="193" type="line"/>
      <point x="286" y="390" type="line"/>
      <point x="351" y="390" type="line"/>
      <point x="354" y="406" type="line"/>
      <point x="298" y="406" type="line"/>
      <point x="372" y="520" type="line"/>
      <point x="354" y="520" type="line"/>
      <point x="280" y="406" type="line"/>
      <point x="76" y="406" type="line"/>
      <point x="73" y="390" type="line"/>
      <point x="268" y="390" type="line"/>
      <point x="141" y="193" type="line"/>
      <point x="46" y="193" type="line"/>
      <point x="43" y="177" type="line"/>
      <point x="129" y="177" type="line"/>
    </contour>
  </outline>
</glyph>
<glyph name="lessequal" format="2">
  <advance width="338"/>
  <unicode hex="2264"/>
  <note>
lessequal
</note>
  <outline>
    <contour>
      <point x="276" y="163" type="line"/>
      <point x="279" y="182" type="line"/>
      <point x="80" y="326" type="line"/>
      <point x="320" y="470" type="line"/>
      <point x="323" y="491" type="line"/>
      <point x="62" y="333" type="line"/>
      <point x="60" y="320" type="line"/>
    </contour>
    <contour>
      <point x="15" y="0" type="line"/>
      <point x="253" y="0" type="line"/>
      <point x="256" y="16" type="line"/>
      <point x="18" y="16" type="line"/>
    </contour>
  </outline>
</glyph>
<glyph name="greaterequal" format="2">
  <advance width="338"/>
  <unicode hex="2265"/>
  <note>
greaterequal
</note>
  <outline>
    <contour>
      <point x="38" y="163" type="line"/>
      <point x="298" y="320" type="line"/>
      <point x="300" y="333" type="line"/>
      <point x="85" y="491" type="line"/>
      <point x="82" y="472" type="line"/>
      <point x="280" y="327" type="line"/>
      <point x="41" y="184" type="line"/>
    </contour>
    <contour>
      <point x="15" y="0" type="line"/>
      <point x="253" y="0" type="line"/>
      <point x="256" y="16" type="line"/>
      <point x="18" y="16" type="line"/>
    </contour>
  </outline>
</glyph>
<glyph name="lozenge" format="2">
  <advance width="459"/>
  <unicode hex="25CA"/>
  <note>
lozenge
</note>
  <outline>
    <contour>
      <point x="179" y="-36" type="line"/>
      <point x="200" y="-36" type="line"/>
      <point x="415" y="292" type="line"/>
      <point x="292" y="618" type="line"/>
      <point x="271" y="618" type="line"/>
      <point x="56" y="292" type="line"/>
    </contour>
    <contour>
      <point x="191" y="-21" type="line"/>
      <point x="73" y="293" type="line"/>
      <point x="280" y="602" type="line"/>
      <point x="397" y="292" type="line"/>
    </contour>
  </outline>
</glyph>
<glyph name="leftanglebracket-math" format="2">
  <advance width="250"/>
  <unicode hex="27E8"/>
  <outline>
    <contour>
      <point x="131" y="-142" type="line"/>
      <point x="145" y="-142" type="line"/>
      <point x="68" y="233" type="line"/>
      <point x="263" y="628" type="line"/>
      <point x="249" y="628" type="line"/>
      <point x="48" y="233" type="line"/>
    </contour>
  </outline>
</glyph>
<glyph name="apple" format="2">
  <advance width="626"/>
  <unicode hex="F8FF"/>
  <note>
apple
</note>
  <outline>
    <contour>
      <point x="216" y="-7" type="curve" smooth="yes"/>
      <point x="245" y="-7"/>
      <point x="260" y="-1"/>
      <point x="272" y="7" type="curve"/>
      <point x="287" y="14"/>
      <point x="298" y="23"/>
      <point x="327" y="23" type="curve" smooth="yes"/>
      <point x="351" y="23"/>
      <point x="364" y="17"/>
      <point x="379" y="8" type="curve" smooth="yes"/>
      <point x="394" y="0"/>
      <point x="407" y="-7"/>
      <point x="438" y="-7" type="curve" smooth="yes"/>
      <point x="498" y="-7"/>
      <point x="553" y="82"/>
      <point x="574" y="149" type="curve"/>
      <point x="521" y="176"/>
      <point x="486" y="233"/>
      <point x="486" y="292" type="curve" smooth="yes"/>
      <point x="486" y="356"/>
      <point x="525" y="401"/>
      <point x="556" y="422" type="curve"/>
      <point x="523" y="469"/>
      <point x="478" y="477"/>
      <point x="447" y="477" type="curve"/>
      <point x="423" y="473" type="line"/>
      <point x="360" y="451"/>
      <point x="351" y="445"/>
      <point x="321" y="445" type="curve" smooth="yes"/>
      <point x="290" y="445"/>
      <point x="248" y="475"/>
      <point x="205" y="475" type="curve" smooth="yes"/>
      <point x="167" y="475"/>
      <point x="58" y="436"/>
      <point x="58" y="284" type="curve" smooth="yes"/>
      <point x="58" y="172"/>
      <point x="106" y="73"/>
      <point x="177" y="9" type="curve" smooth="yes"/>
      <point x="188" y="-2"/>
      <point x="201" y="-7"/>
    </contour>
    <contour>
      <point x="338" y="486" type="curve"/>
      <point x="403" y="486"/>
      <point x="445" y="549"/>
      <point x="450" y="593" type="curve"/>
      <point x="450" y="603" type="line" smooth="yes"/>
      <point x="450" y="614"/>
      <point x="448" y="628"/>
      <point x="443" y="628" type="curve" smooth="yes"/>
      <point x="393" y="628"/>
      <point x="338" y="555"/>
    </contour>
  </outline>
</glyph>
<glyph name="fi" format="2">
  <advance width="321"/>
  <unicode hex="FB01"/>
  <note>
fi
</note>
  <anchor x="161" y="0" name="caret_1"/>
  <outline>
    <contour>
      <point x="-39" y="-118" type="curve" smooth="yes"/>
      <point x="20" y="-117"/>
      <point x="39" y="-86"/>
      <point x="51" y="0" type="curve" smooth="yes"/>
      <point x="116" y="458" type="line"/>
      <point x="282" y="458" type="line"/>
      <point x="284" y="474" type="line"/>
      <point x="118" y="474" type="line"/>
      <point x="128" y="548" type="line" smooth="yes"/>
      <point x="134" y="596"/>
      <point x="164" y="621"/>
      <point x="229" y="621" type="curve" smooth="yes"/>
      <point x="252" y="621"/>
      <point x="287" y="617"/>
      <point x="310" y="606" type="curve"/>
      <point x="310" y="624" type="line"/>
      <point x="291" y="630"/>
      <point x="261" y="636"/>
      <point x="230" y="636" type="curve" smooth="yes"/>
      <point x="159" y="636"/>
      <point x="121" y="607"/>
      <point x="112" y="543" type="curve" smooth="yes"/>
      <point x="102" y="474" type="line"/>
      <point x="71" y="474" type="line"/>
      <point x="69" y="458" type="line"/>
      <point x="100" y="458" type="line"/>
      <point x="35" y="0" type="line" smooth="yes"/>
      <point x="25" y="-73"/>
      <point x="13" y="-103"/>
      <point x="-36" y="-103" type="curve" smooth="yes"/>
      <point x="-55" y="-103"/>
      <point x="-76" y="-101"/>
      <point x="-82" y="-100" type="curve"/>
      <point x="-84" y="-114" type="line"/>
      <point x="-78" y="-115"/>
      <point x="-64" y="-118"/>
    </contour>
    <contour>
      <point x="204" y="0" type="line"/>
      <point x="220" y="0" type="line"/>
      <point x="286" y="474" type="line"/>
      <point x="270" y="474" type="line"/>
    </contour>
  </outline>
</glyph>
<glyph name="fl" format="2">
  <advance width="323"/>
  <unicode hex="FB02"/>
  <note>
fl
</note>
  <anchor x="162" y="0" name="caret_1"/>
  <outline>
    <contour>
      <point x="-39" y="-118" type="curve" smooth="yes"/>
      <point x="20" y="-117"/>
      <point x="39" y="-86"/>
      <point x="51" y="0" type="curve" smooth="yes"/>
      <point x="116" y="458" type="line"/>
      <point x="232" y="458" type="line"/>
      <point x="234" y="474" type="line"/>
      <point x="118" y="474" type="line"/>
      <point x="128" y="548" type="line" smooth="yes"/>
      <point x="134" y="596"/>
      <point x="164" y="621"/>
      <point x="229" y="621" type="curve" smooth="yes"/>
      <point x="246" y="621"/>
      <point x="269" y="619"/>
      <point x="289" y="613" type="curve"/>
      <point x="204" y="0" type="line"/>
      <point x="220" y="0" type="line"/>
      <point x="307" y="624" type="line"/>
      <point x="291" y="631"/>
      <point x="259" y="636"/>
      <point x="230" y="636" type="curve" smooth="yes"/>
      <point x="159" y="636"/>
      <point x="121" y="607"/>
      <point x="112" y="543" type="curve" smooth="yes"/>
      <point x="102" y="474" type="line"/>
      <point x="71" y="474" type="line"/>
      <point x="69" y="458" type="line"/>
      <point x="100" y="458" type="line"/>
      <point x="35" y="0" type="line" smooth="yes"/>
      <point x="25" y="-73"/>
      <point x="13" y="-103"/>
      <point x="-36" y="-103" type="curve" smooth="yes"/>
      <point x="-55" y="-103"/>
      <point x="-76" y="-101"/>
      <point x="-82" y="-100" type="curve"/>
      <point x="-84" y="-114" type="line"/>
      <point x="-78" y="-115"/>
      <point x="-64" y="-118"/>
    </contour>
  </outline>
</glyph>
<glyph name=".notdef" format="2">
  <advance width="538"/>
  <note>
.notdef
</note>
  <outline>
    <contour>
      <point x="110" y="0" type="line"/>
      <point x="531" y="0" type="line"/>
      <point x="540" y="8" type="line"/>
      <point x="540" y="621" type="line"/>
      <point x="531" y="630" type="line"/>
      <point x="110" y="630" type="line"/>
      <point x="102" y="620" type="line"/>
      <point x="102" y="9" type="line"/>
    </contour>
    <contour>
      <point x="225" y="116" type="line"/>
      <point x="206" y="150" type="line"/>
      <point x="296" y="316" type="line"/>
      <point x="206" y="479" type="line"/>
      <point x="225" y="514" type="line"/>
      <point x="315" y="350" type="line"/>
      <point x="406" y="514" type="line"/>
      <point x="425" y="479" type="line"/>
      <point x="335" y="314" type="line"/>
      <point x="425" y="150" type="line"/>
      <point x="406" y="116" type="line"/>
      <point x="315" y="279" type="line"/>
    </contour>
    <contour>
      <point x="523" y="16" type="line"/>
      <point x="119" y="16" type="line"/>
      <point x="119" y="613" type="line"/>
      <point x="523" y="613" type="line"/>
    </contour>
    <contour>
      <point x="154" y="577" type="line"/>
      <point x="154" y="49" type="line"/>
      <point x="489" y="49" type="line"/>
      <point x="489" y="577" type="line"/>
    </contour>
  </outline>
</glyph>
<glyph name="caroncomb.alt" format="2">
  <note>
acutecomb
</note>
  <anchor x="269" y="541" name="_topright"/>
  <outline>
    <contour>
      <point x="277" y="540" type="line"/>
      <point x="287" y="540" type="line"/>
      <point x="322" y="651" type="line"/>
      <point x="307" y="651" type="line"/>
    </contour>
  </outline>
</glyph>
